<svg xmlns="http://www.w3.org/2000/svg" width="100%" viewBox="0 0 10 15">
  <path
    fill="currentColor"
    d="M3.11,15A2.72,2.72,0,0,1,.79,13.93,5.55,5.55,0,0,1,0,10.62,6.39,6.39,0,0,1,.35,8.27,2.7,2.7,0,0,1,1.4,7a4.48,4.48,0,0,1-.48-.5,2.56,2.56,0,0,1-.35-.61A3.63,3.63,0,0,1,.33,5,6.31,6.31,0,0,1,.24,3.88,4.69,4.69,0,0,1,1,1,2.79,2.79,0,0,1,3.38,0H6.64A2.77,2.77,0,0,1,9,1a4.69,4.69,0,0,1,.75,2.91A6.31,6.31,0,0,1,9.65,5a3.63,3.63,0,0,1-.24.84,2.54,2.54,0,0,1-.34.61,5.21,5.21,0,0,1-.45.5,2.72,2.72,0,0,1,1,1.29A6.39,6.39,0,0,1,10,10.62Q10,15,6.89,15Zm1-6.78a1.16,1.16,0,0,0-1,.53,3.2,3.2,0,0,0-.38,1.78,4.05,4.05,0,0,0,.38,2,1.1,1.1,0,0,0,1,.65H5.87a1.15,1.15,0,0,0,1-.65,4.05,4.05,0,0,0,.38-2,3.2,3.2,0,0,0-.38-1.78,1.21,1.21,0,0,0-1-.53Zm0-6.35a1.09,1.09,0,0,0-1,.59,3.17,3.17,0,0,0-.36,1.66,3.11,3.11,0,0,0,.36,1.65,1.08,1.08,0,0,0,1,.58H5.87a1.1,1.1,0,0,0,1-.58,3.11,3.11,0,0,0,.36-1.65,3.17,3.17,0,0,0-.36-1.66,1.11,1.11,0,0,0-1-.59Z" />
</svg>