<svg xmlns="http://www.w3.org/2000/svg" width="100%" viewBox="0 0 10 15">
  <path
    fill="currentColor"
    d="M6.8,0A5,5,0,0,1,8.29.19a2.17,2.17,0,0,1,1,.6,2.56,2.56,0,0,1,.55,1.12A7.62,7.62,0,0,1,10,3.63v7.73a7.62,7.62,0,0,1-.17,1.74,2.62,2.62,0,0,1-.55,1.12,2,2,0,0,1-1,.6A5.38,5.38,0,0,1,6.8,15H.9V13.17H5.85a1.71,1.71,0,0,0,.54-.08.72.72,0,0,0,.36-.31,1.51,1.51,0,0,0,.2-.6,6.42,6.42,0,0,0,.06-1V9.06H2.51A2.2,2.2,0,0,1,.63,8.22,3.56,3.56,0,0,1,0,6V3.63A7.68,7.68,0,0,1,.16,1.91,2.45,2.45,0,0,1,.7.79a2,2,0,0,1,1-.6A4.81,4.81,0,0,1,3.14,0ZM4.06,1.92a1.05,1.05,0,0,0-.59.15.94.94,0,0,0-.36.49,3.7,3.7,0,0,0-.17.9c0,.37,0,.83,0,1.37A9.79,9.79,0,0,0,3,6.63c.08.39.26.58.54.58H7V3.92a3.32,3.32,0,0,0-.26-1.58,1,1,0,0,0-.9-.42Z" />
</svg>