<svg xmlns="http://www.w3.org/2000/svg" width="100%" viewBox="0 0 10 15">
  <path
    fill="currentColor"
    d="M8.19,0V1.93H4.05a1,1,0,0,0-.9.41A3.32,3.32,0,0,0,2.9,3.92V5.77H7.48a2.26,2.26,0,0,1,1.87.82A3.52,3.52,0,0,1,10,8.82v2.52a7.91,7.91,0,0,1-.17,1.77,2.52,2.52,0,0,1-.56,1.12,2,2,0,0,1-1,.59A5.2,5.2,0,0,1,6.81,15H3.15a5.15,5.15,0,0,1-1.46-.18,2,2,0,0,1-1-.59,2.73,2.73,0,0,1-.54-1.12A7.91,7.91,0,0,1,0,11.34V3.64A7.66,7.66,0,0,1,.17,1.89,2.73,2.73,0,0,1,.71.77a2,2,0,0,1,1-.59A5.15,5.15,0,0,1,3.15,0ZM2.9,11.16a6.66,6.66,0,0,0,.06,1,1.62,1.62,0,0,0,.19.61.72.72,0,0,0,.35.32,1.47,1.47,0,0,0,.55.09H6a1,1,0,0,0,.84-.34,2.12,2.12,0,0,0,.27-1.25V8.89q0-1.26-.63-1.26H2.9Z" />
</svg>