<svg xmlns="http://www.w3.org/2000/svg" width="100%" viewBox="0 0 10 15">
  <path
    fill="currentColor"
    d="M6.76,0A2.45,2.45,0,0,1,8,.32a3,3,0,0,1,.95.87,4.26,4.26,0,0,1,.6,1.31,6,6,0,0,1,.21,1.62,3.65,3.65,0,0,1-1.3,3.12,2.25,2.25,0,0,1,.61.59,4.47,4.47,0,0,1,.5.89,4.94,4.94,0,0,1,.32,1A4.83,4.83,0,0,1,10,10.8a5.85,5.85,0,0,1-.22,1.66,4.72,4.72,0,0,1-.6,1.32,3,3,0,0,1-.94.9A2.43,2.43,0,0,1,7,15H0V13.16H5.79a1.1,1.1,0,0,0,1-.68,3.63,3.63,0,0,0,.38-1.77,4.75,4.75,0,0,0-.1-.94A2.73,2.73,0,0,0,6.77,9a1.67,1.67,0,0,0-.43-.51.93.93,0,0,0-.55-.18H3V6.44H5.54a1.13,1.13,0,0,0,1-.56A3.18,3.18,0,0,0,6.9,4.2a3.36,3.36,0,0,0-.36-1.72,1.12,1.12,0,0,0-1-.61H0V0Z" />
</svg>