<svg xmlns="http://www.w3.org/2000/svg" width="100%" viewBox="0 0 10 15">
  <path
    fill="currentColor"
    d="M7,0A2.37,2.37,0,0,1,8.2.32a3,3,0,0,1,.93.91,4.38,4.38,0,0,1,.6,1.33A6.14,6.14,0,0,1,9.94,4.2a5.86,5.86,0,0,1-.21,1.61A4.26,4.26,0,0,1,9.14,7.1,2.79,2.79,0,0,1,8.22,8,2.51,2.51,0,0,1,7,8.26H4.08c-.79,0-1.18.74-1.18,2.23v2.67H10V15H0V10.49A6.56,6.56,0,0,1,.19,8.86,4,4,0,0,1,.75,7.57a2.86,2.86,0,0,1,.9-.87,2.29,2.29,0,0,1,1.21-.31H5.74a1.12,1.12,0,0,0,1-.64,3.17,3.17,0,0,0,.38-1.61,3.24,3.24,0,0,0-.38-1.62,1.12,1.12,0,0,0-1-.65H1.43V0Z" />
</svg>