<svg xmlns="http://www.w3.org/2000/svg" viewBox="0 0 100 100"><path fill="#7c0000" fill-rule="evenodd" d="m69 46 2 4-4 3-2-4 4-3Zm-11 5 15-12a27 27 0 0 0-3-5L55 48a20 20 0 0 0 3 3Zm3-17 2 3-3 3-3-3 4-3Zm4 2-4-5a91 91 0 0 0-7 6l3 6c-4 5-7 4-3 8 4 3 4 3 5 2l4-2a62 62 0 0 0 4 5l8-5-4-7 5-5c0-2-5-6-6-8l-5 5Z"/><path fill="#fd6697" fill-rule="evenodd" d="M52 36c-5-6-14-7-18-7-20 1-27 24-12 35 7 6 27 10 38 20 5-14 36-36 21-54-10-11-25-4-29 6Z"/><path fill="#ec4b7a" fill-rule="evenodd" d="M30 30c-17 3-22 24-8 34 7 6 27 10 38 20 4-14 33-34 23-51 0 8-3 16-7 21-2 2-3 3-2 0 4-7 4-12 4-12-1 3-4 9-7 12-8 9-11 11-22 7l8-1s-8 0-17-6c-5-3-12-11-6-2l6 6-10-7c-6-7-6-17 0-21Z"/><path fill="#fff" fill-rule="evenodd" d="M44 37a1 1 0 1 1-1 2 1 1 0 0 1 1-2ZM38 34a2 2 0 1 1 0 3 2 2 0 0 1 0-3Z"/><path fill="#970000" fill-rule="evenodd" d="m49 34-15-5c9 0 9 0 15 5ZM26 31l-9 6c5-5 2-3 9-6ZM15 40c-2 12 0 19 11 25l4 2c-7-1-14-4-16-11-3-6-2-10 1-16ZM76 26c6 3 9 7 10 14 1 6-2 10-6 14l1-2c5-10 3-18-5-26ZM78 59c-2 4-1 2-5 6 2-5 1-3 5-6ZM71 68 61 80c3-7 3-8 10-12Z"/><path fill="#fcca97" fill-rule="evenodd" d="m76 45-16-7-4 6 15 8 5-7z"/><path fill="#970000" fill-rule="evenodd" d="m67 38-8 10c4-8 2-4 8-10ZM57 44l14 7-14-7Z"/><path fill="#970000" fill-rule="evenodd" d="M73 44a82 82 0 0 1-12-5l12 5Z"/><path fill="#fcca97" fill-rule="evenodd" d="m64 53 10-14-6-2-10 12 6 4z"/><path fill="#970000" fill-rule="evenodd" d="m64 52 9-12c-3 5-5 10-9 14a26 26 0 0 1-5-4Z"/><path fill="#ec4b7a" fill-rule="evenodd" d="M29 35c0 4 0 6 2 10-5-3-4-7-2-10ZM38 47a75 75 0 0 0 14 9c-9-2-9-2-14-9Z"/><path fill="#fd6697" fill-rule="evenodd" d="M23 38c-1 9 2 12 9 17-8-3-12-8-9-17Z"/><path fill="#fd6697" fill-rule="evenodd" d="M19 45c1 9 5 10 13 16l-6-2c-5-2-11-8-7-14ZM40 67l11 5c-7-2-4-1-11-5ZM60 70a32 32 0 0 1 6-3 32 32 0 0 1 5-4c-5 6-3 5-11 7ZM29 26c-10 4-12 5-18 15 2-10 8-15 18-15ZM54 27c5-4 2-3 8-3-5 3-2 2-8 3ZM23 70c10 3 15 4 24 11-8-3-18-7-24-11Z"/><path fill="#fff" fill-rule="evenodd" d="M29 34h4-4ZM58 35c4-5 4-5 10-5-6 1-5 1-10 5ZM73 30l7 5-7-5Z"/></svg>