<svg xmlns="http://www.w3.org/2000/svg" viewBox="0 0 100 100"><path fill="#fd6697" fill-rule="evenodd" d="M48 38C30 14-8 46 18 66c11 8 29 6 39 17 28-24 31-45 24-55-8-12-29-12-33 10Z"/><path fill="#ec4b7a" fill-rule="evenodd" d="M21 32C9 39 3 55 18 66c11 8 29 6 39 17 12-10 20-20 24-29a127 127 0 0 1-18 15c-4 3-9 1-13-2-7-4-22-5-25-7-9-7 1 1 5-1 8-3-1 1-9-5-6-5-1-13-4-9-3 3 0 8-1 6-3-6 0-13 5-19Z"/><path fill="#fff" fill-rule="evenodd" d="M68 25a2 2 0 1 1 0 3 2 2 0 0 1 0-3ZM74 28a1 1 0 1 1 0 1 1 1 0 0 1 0-1ZM66 25c-5 0-6 2-10 5 3-4 5-6 10-5ZM56 32l-4 7 4-7ZM32 32c6 1 6 0 10 4l-10-4Z"/><path fill="#fdb70b" fill-rule="evenodd" d="M97 24c0 7-13 23-29 36-24 20-55 36-52 22l8-12 4 1a19 19 0 0 0-4 4c-7 16 63-36 66-49 1-5-10 0-10 0a8 8 0 0 0-2-2c5-3 19-8 19 0Z"/><path fill="#fd8934" fill-rule="evenodd" d="M77 52C50 78 12 97 16 82l8-12 4 1a19 19 0 0 0-4 4c-1 2 0 3 1 3a5 5 0 0 0 2 1c11-4 23-12 33-20l-4 5 11-8-6 7 16-11Z"/><path fill="#970000" fill-rule="evenodd" d="m41 79 29-21c-9 9-17 16-29 21ZM96 27c-5 12-12 19-22 27 9-10 15-15 22-27Z"/><path fill="#fff" fill-rule="evenodd" d="m41 70 20-15a83 83 0 0 1-20 15ZM67 50c3-4 4-4 9-7l-9 7Z"/><path fill="#970000" fill-rule="evenodd" d="M37 73c-9-1-19-3-23-10l-3-5 3 4c6 6 15 8 23 11ZM80 56c-5 9-5 10-13 17a196 196 0 0 1 13-17ZM82 30c-8-10-14-11-26-7 5-3 9-5 15-3 6 1 9 5 11 10ZM23 31c-9 7-11 9-14 20 0-10 4-16 14-20Z"/><path fill="#ec4b7a" fill-rule="evenodd" d="M34 61c5-2 8-2 12 2l-12-2ZM20 47c4 6 7 4 9 7h-1c-4 0-8-3-8-7ZM84 54c-1 10-3 12-10 19a113 113 0 0 0 10-19ZM69 77c-1 3-2 4-5 5a8 8 0 0 1 5-5ZM8 36C4 48 5 49 9 61 3 51 2 46 8 36ZM10 65c4 2 2 0 5 4l-5-4ZM58 19c-6 3-7 5-10 11 2-6 3-10 10-11Z"/><path fill="#fd6697" fill-rule="evenodd" d="m19 60 12 5c-7 0-7 0-12-5ZM57 75l8-2c-3 3-4 4-8 2ZM12 50l3 9c-3-6-2-2-3-9Z"/></svg>