<svg xmlns="http://www.w3.org/2000/svg" viewBox="0 0 100 100"><path fill="#fd6697" fill-rule="evenodd" d="M51 35c0-5-10-10-14-11-11-2-24 4-25 17 0 5 2 9 6 12 5 6 27 20 30 29 3-5 4-9 19-18l12-7c22-17-4-40-21-32a14 14 0 0 0-7 10Z"/><path fill="#ec4b7a" fill-rule="evenodd" d="m13 39-1 2c0 5 2 9 6 12 5 6 27 20 30 29 3-5 4-9 19-18l12-7a23 23 0 0 0 6-7c-11 7-28 19-36 19-3 0-8-4-11-7l7 3c5 2 0-1-1-2a86 86 0 0 1-9-6 772 772 0 0 1-3 0s-15-7-18-15l-1-3Z"/><path fill="#630" fill-rule="evenodd" d="M51 35c0-5-10-10-14-11-9-2-20 3-23 11a10 10 0 0 0 1 7c5 7 12-7 15-1 3 4 4 5 6 5l1 1a22 22 0 0 1 0 5 26 26 0 0 0-1 6c0 4 4 4 4 0a42 42 0 0 0-1-6c-1-1-2-6 0-6a10 10 0 0 1 3 0c4 0 6 14 19-2 7-7 9 10 19 1l7-5c-2-11-18-20-29-15a14 14 0 0 0-7 10Z"/><path fill="#fff" fill-rule="evenodd" d="M74 30a2 2 0 1 1-1 3 2 2 0 0 1 1-3ZM79 34a1 1 0 0 1 1 2 1 1 0 1 1-1-2Z"/><path fill="#970000" fill-rule="evenodd" d="M45 76c-9-8-18-13-25-22 9 8 18 12 25 22ZM52 76c4-6 5-6 11-9l-11 9ZM87 46c-3 10-7 11-17 16a19 19 0 0 1-4 2c11-9 13-6 21-18Z"/><path fill="#fff" fill-rule="evenodd" d="M71 29c-5-2-7-1-13 0 5-3 9-4 13 0ZM45 31l-9-4c5 0 5 1 9 4ZM31 27a40 40 0 0 0-8 2c4-3 4-3 8-2Z"/><path fill="#9c5641" fill-rule="evenodd" d="m49 51 11-7c-4 4-5 5-11 7ZM65 41c8 0 4 4 12 5a4 4 0 0 1-3 1c-3-1-3-4-9-6ZM32 41c-4-3-4-2-8 0 2-4 5-5 8 0Z"/><path fill="#ec4b7a" fill-rule="evenodd" d="M17 56c8 8 8 8 17 14-10-4-11-5-17-14ZM23 67c3 1 2 0 4 3-3-1-2 0-4-3ZM87 50c-1 9-7 11-15 15l-4 1 3-2c9-5 12-5 16-14ZM52 27c5-7 8-8 17-6-9 1-9 0-17 6ZM16 28c3-5 3-5 9-5l-9 5ZM53 64c6-1 9-4 15-6l-2 1c-5 4-7 6-13 5ZM57 60l4-2c-2 2-1 2-4 2ZM71 56c5-4 2-2 8-4l-8 4Z"/></svg>