<svg xmlns="http://www.w3.org/2000/svg" viewBox="0 0 100 100"><path fill="#fd0066" fill-rule="evenodd" d="M42 81a19 19 0 0 1-3 2C28 66 6 74 9 55c1 7 6 9 7 8s0-4-5-9c-3-4-5-8-1-20a11 11 0 0 0 0-7c2 2 3 3 2 9-2 20 36 24 30 45ZM80 46c11-2 6-7 8-12 0-1 5-5 2 0s9 10-1 24c-1 1 4 2 4-1 0 5-8 11-14 11-13 0-12-20 1-22Z"/><path fill="#fd6697" fill-rule="evenodd" d="M50 44c1-6-7-13-11-15-5-1-9-2-14 1-12 6-12 18-7 29 8 14 22 22 22 30l31-16c8-2 16-13 15-22 0-14-14-20-26-16-3 1-8 7-10 9Z"/><path fill="#ec4b7a" fill-rule="evenodd" d="M18 37c-5 6-4 14 0 22 8 14 22 22 22 30l31-16c7-2 14-10 15-18a70 70 0 0 1-15 13l-9 4c-2 1 6-4 7-7l-11 7c-9 5-15 8-22-3a28 28 0 0 0 6 3c-7-4-13-13-17-20 1 2 4 14 10 20-2-2-20-21-17-35Z"/><path fill="#fff" fill-rule="evenodd" d="M75 39a2 2 0 1 1-1 3 2 2 0 0 1 1-3ZM79 44a1 1 0 1 1-1 2 1 1 0 0 1 1-2Z"/><path fill="#970000" fill-rule="evenodd" d="M48 85a39 39 0 0 1 17-9c-3 3-13 7-17 9ZM86 56c-3 10-3 10-13 16 9-7 9-7 13-16ZM85 46a43 43 0 0 1-3-5c3 2 3 2 3 5ZM67 34c-11 2-8 5-13 6 6-6 5-6 13-6ZM43 31l-9-2c5-1 5-1 9 2ZM27 29c-7 4-8 5-12 14 3-9 4-12 12-14ZM9 37c-2 9-1 11 4 18-6-5-8-10-4-18ZM12 61c3 2 5 1 3-3 4 2 0 9-3 3Z"/><path fill="#fd0066" fill-rule="evenodd" d="M26 25c3-3 5-7 4-8 2 1 1 4 2 6 0 2 3 2 3-1 0-1-5-11 2-14 1-1-3 2-1 6s5 5 6 9c3 13-7 15-6 24-2-2-2-6-1-9 0-8-9-7-9 1-2-2-5-8 0-14Z"/><path fill="#970000" fill-rule="evenodd" d="M30 75a90 90 0 0 0-9-5c3-1 7 2 9 5ZM18 69c-3 0-3 0-5-3a49 49 0 0 1 5 3ZM92 60c-1 3-3 5-6 6l6-6ZM93 44c0 2 1 9-3 11l1-1c2-5 2-3 2-10ZM90 32c-4 5 0 5-4 11 1-5 0-8 4-11ZM36 15c3 4 8 6 6 12-1-8-4-6-6-12ZM30 21l-6 8c0-4 4-6 6-8ZM35 9c-2 4-2 6 0 11-3-4-3-8 0-11Z"/><path fill="#fff" fill-rule="evenodd" d="M11 35c0 5 0 6 2 11-3-5-3-5-2-11ZM38 20l2 6a20 20 0 0 0-2-6ZM29 24c-2 3 0 2-3 4l3-4ZM90 41c2 3 2 3 1 7l-1-7ZM74 38h-9c4-2 4-2 9 0ZM62 39a75 75 0 0 0-9 8c3-5 3-6 9-8ZM44 35l3 6-3-6Z"/><path fill="#ec4b7a" fill-rule="evenodd" d="M57 84c7-4 7-5 15-8-6 5-8 6-15 8ZM81 71c-1 2-1 3-3 2l3-2ZM26 76c6 3 5 3 9 8a45 45 0 0 1-9-8ZM56 33c7-4 7-5 15-3l-15 3ZM76 33c2 0 5 0 4 2l-4-2ZM48 72l18-8c-8 5-9 6-18 8ZM31 55l8 8c-6-2-5-3-8-8ZM74 62c4-4 2-2 7-4l-7 4Z"/><path fill="#fd6697" fill-rule="evenodd" d="M18 48c3 9 3 9 9 16-8-6-8-6-9-16ZM40 77c8 2 5 2 13 1-7 3-7 3-13-1Z"/></svg>