<svg xmlns="http://www.w3.org/2000/svg" viewBox="0 0 100 100"><path fill="#fff" fill-rule="evenodd" d="M24 58c-2 4-9 7-10 6l-3-5c2 0 8-1 9-3a24 24 0 0 1 4 2Z"/><path fill="#970000" fill-rule="evenodd" d="M21 56c-2 2-4 2-7 2l6-2h1ZM24 59l-4 3a18 18 0 0 0 4-3v-1 1ZM18 63c-4 3-5 1-7-3 4 5 2 4 7 3Z"/><path fill="#fd6697" fill-rule="evenodd" d="M50 33C32 7-20 43 55 82l19-20c13-15 12-27 6-33-8-7-21-8-30 4Z"/><path fill="#ec4b7a" fill-rule="evenodd" d="M16 37c-3 11 6 28 39 45l19-20c7-8 10-16 10-21-8 10-26 34-33 30-6-3-5-1-1-2l7-2c-11-1-19-7-27-15l-6-9c-2-3 3 13 7 15 0 0-11-8-15-21Z"/><path fill="#fff" fill-rule="evenodd" d="M50 33C34 11-6 35 31 67l17 11-10-24 12-21Z"/><path fill="#cacaca" fill-rule="evenodd" d="m26 43 11 11c-7-4-7-4-11-11Z"/><path fill="#cacaca" fill-rule="evenodd" d="M16 37c-2 8 2 18 15 30l17 11-7-16a61 61 0 0 1-11-10l-6-9c0 4 4 12 7 15-1-1-11-8-15-21Z"/><path fill="#fff" fill-rule="evenodd" d="M73 29a2 2 0 1 1-1 3 2 2 0 0 1 1-3ZM78 34a1 1 0 1 1-1 1 1 1 0 0 1 1-1Z"/><path fill="#970000" fill-rule="evenodd" d="m49 31-7-5c3 2 3 0 7 5ZM39 25c-11-3-20 4-23 14 0-11 12-20 23-14Z"/><path fill="#970000" fill-rule="evenodd" d="M20 36c-3 7-3 15 2 21l3 4-4-4a19 19 0 0 1-1-21ZM27 63l21 15c-8-3-17-8-21-15ZM80 53c-4 10-12 17-20 23l20-23ZM83 33c2 7 2 3 1 10l-1-10ZM58 78l-2 3 2-3ZM26 62c-1-8 0-12 4-19 2-5 8-12 13-15L33 40c-5 7-7 12-7 22ZM29 33c-2 1-4 2-6 7a10 10 0 0 1 5-7h1Z"/><path fill="#970000" fill-rule="evenodd" d="M40 31c-4-4-5-6-11-6 6-1 8 2 11 6ZM37 34c-5-5-8-7-15-5 7-3 11-1 15 4v1ZM34 37c-5-5-9-6-16-4 7-3 11-1 16 4ZM20 54c-1-5-1-7 2-13-2 6-2 8-1 14l-1-1Z"/><path fill="#970000" fill-rule="evenodd" d="M32 35c-6 5-5 5-8 12 2-7 2-7 7-12h1ZM28 64c-1-11 2-16 7-24-5 9-7 13-6 24h-1ZM46 30c-5 3-5 4-9 9 3-6 4-6 9-10v1ZM23 59c-1-4-1-6 1-11v12a4 4 0 0 0-1-1Z"/><path fill="#fff" fill-rule="evenodd" d="M44 43c4 2 7 9 7 10l-5 4c0-3-2-9-4-10a24 24 0 0 1 2-4Z"/><path fill="#970000" fill-rule="evenodd" d="M42 47c2 2 3 3 3 6-1-2-1-4-3-5v-1ZM44 43l4 3a18 18 0 0 0-4-2v-1ZM49 48c4 4 2 5-2 8 4-5 4-2 2-8Z"/><path fill="#970000" fill-rule="evenodd" d="M34 70c3-14 6-25 15-35-8 12-11 20-14 35h-1Z"/><path fill="#970000" fill-rule="evenodd" d="m39 56 7 17a69 69 0 0 1-7-17ZM37 60l5 14c-3-6-4-7-5-14ZM31 67c0-14 6-28 18-36-12 9-17 22-17 36h-1Z"/><path fill="#fff" fill-rule="evenodd" d="M71 28h-7c3-2 4-2 7 0ZM61 28 51 38c4-6 4-7 10-10Z"/><path fill="#ec4b7a" fill-rule="evenodd" d="m61 63 14-15c-3 5-8 13-14 15ZM43 60a51 51 0 0 0 10 4c-6 0-5 0-10-4ZM65 76l14-13c-5 6-7 9-14 13ZM28 69c6 5 7 6 14 9-9-2-9-2-14-9ZM65 21c7-2 11-2 15 4-6-4-7-4-15-4ZM86 47c-1 5-1 6-4 9l4-9Z"/><path fill="#fd6697" fill-rule="evenodd" d="M48 74c6 1 7 0 13-3-3 3-9 7-13 3Z"/></svg>