<svg xmlns="http://www.w3.org/2000/svg" viewBox="0 0 100 100"><path fill="#fd6697" fill-rule="evenodd" d="m27 75-4 12 11-6a25 25 0 0 0-5-2 21 21 0 0 0-2-4Z"/><path fill="#970000" fill-rule="evenodd" d="M28 76a14 14 0 0 0 5 5c-3-1-4-2-5-5Z"/><path fill="#fd6697" fill-rule="evenodd" d="M51 36c-5-6-14-7-18-7-19 1-26 23-12 34 8 6 26 10 37 20 5-15 35-35 21-52-10-11-25-4-28 5Z"/><path fill="#ec4b7a" fill-rule="evenodd" d="M20 34c-8 8-9 21 1 29 8 6 26 10 37 20 4-12 26-28 25-43-4 8-10 13-16 21-6 9 3-8 0-4-6 7-8 12-16 9-3-1-17-4-9-1 4 1 10 8 5 4-4-3-20-2-28-16 2 4 21 11 13 7-10-6-15-17-12-26Z"/><path fill="#fff" fill-rule="evenodd" d="M43 37a1 1 0 1 1-1 2 1 1 0 0 1 1-2ZM37 34a2 2 0 1 1 3 3 2 2 0 0 1-3-3Z"/><path fill="#fd6697" fill-rule="evenodd" d="M74 22c0-4 1-9 5-12v6a19 19 0 0 1 5-2l1 2c-2 2-6 5-11 6Z"/><path fill="#fdb70b" fill-rule="evenodd" d="m37 71-4 5a56 56 0 0 1-7 8 71 71 0 0 1 6-9l3-5ZM80 16 55 48l-2 2-1-1 2-3a332 332 0 0 1 26-30Z"/><path fill="#970000" fill-rule="evenodd" d="M48 45c5 5 4 4 11 6-8 1-8 1-11-6ZM69 30a85 85 0 0 1-10 13 101 101 0 0 1 10-13ZM36 72c-3 5-3 6-8 10a98 98 0 0 1 8-10ZM77 20c-3 6-2 3-6 8l6-8ZM59 44l-2 2 2-2ZM15 41c-1 8-1 8 1 16-4-8-4-8-1-16ZM20 62l16 8a57 57 0 0 1 8 3c-11-3-15-4-24-11ZM79 53a68 68 0 0 1-15 19c4-8 9-13 15-19ZM63 73l-4 8c2-6 0-3 4-8ZM82 37c-1-5-4-6-4-8 3 1 5 4 4 8ZM46 32c-11-4-16-3-26 3 9-8 17-9 26-3ZM24 87a81 81 0 0 1 8-5l-8 5ZM27 76c-1 6 0 3-3 8l3-8ZM81 15c7-4 6 3-4 7a58 58 0 0 0 5-4c5-4 3-4-1-3ZM74 20l2-5-2 5ZM76 14c2-6 6-6 3 1v-5l-3 4Zm3-4Z"/><path fill="#fff" fill-rule="evenodd" d="m69 27-9 12c3-7 4-7 9-12ZM32 74l-5 8 5-8ZM32 33c-6 0-9 4-13 9 3-5 7-11 13-9ZM18 46c-1 6 0 7 3 13-4-5-5-7-3-13ZM55 34c4-4 3-4 8-5a67 67 0 0 0-8 5Z"/><path fill="#ec4b7a" fill-rule="evenodd" d="m17 32-7 11c1-7 1-7 7-11ZM85 46c-2 9-2 10-9 15 5-6 6-8 9-15ZM74 69l-8 10c2-7 2-6 8-10ZM23 45c3 6 5 7 11 12-7-3-10-5-11-12ZM50 64c6 0 6 0 12-3-5 4-6 6-12 3ZM78 42c-3 6-3 7-7 11l7-11Z"/><path fill="#fd6697" fill-rule="evenodd" d="m52 69 11-1c-5 3-5 3-11 1Z"/></svg>