<svg xmlns="http://www.w3.org/2000/svg" viewBox="0 0 100 100"><path fill="#fd6697" fill-rule="evenodd" d="M17 27c-7 14 1 39 31 57 0-11 44-18 40-40-4-20-24-17-30-10l-1 12-1 2c0 2-1 2-2 2a1 1 0 0 1 0-1l-6-6 1 15v5l-2-1-4-4 1 5 3 11 1 2c-2-3-5-10-5-13l-3-9c2 0 6 5 7 6v-2l-2-20c3 1 8 7 9 9l1-2c4-34-27-41-38-18Z"/><path fill="#ec4b7a" fill-rule="evenodd" d="M17 27c-7 14 1 39 31 57 0-11 43-17 40-40a55 55 0 0 1-18 19c-8 4-4 3-2-2l-7 6c-6 5-10 5-15 3l1 4 1 2a26 26 0 0 1-3-6c-4-2-7-6-11-10a36 36 0 0 0 10 6l-1-2-1-2a27 27 0 0 1-11-15c-2-5-1-9-1-11 0-1-2 10-1 14l2 4c-9-9-14-22-10-34a27 27 0 0 0-4 7Zm27 36a77 77 0 0 0 9 4h-3a18 18 0 0 1-5 0Z"/><path fill="#fff" fill-rule="evenodd" d="M76 36a2 2 0 1 1-2 2 2 2 0 0 1 2-2ZM80 42a1 1 0 1 1-1 1 1 1 0 0 1 1-1ZM20 28c2-3 3-5 6-6a6 6 0 0 1-1 1l-5 5ZM30 19c7-3 11-2 16 4-6-5-8-5-16-4ZM73 34l-9 2c3-2 5-4 9-2Z"/><path fill="#fcca97" fill-rule="evenodd" d="m43 45 14 7a4 4 0 0 1 2 5l-1 1a4 4 0 0 1-5 2l-13-8a4 4 0 0 1-2-5 4 4 0 0 1 5-2Z"/><rect width="6.2" height="9.4" x="45.8" y="47.9" fill="#e5a97c" rx="2.9" transform="rotate(-62 49 53)"/><path fill="#970000" fill-rule="evenodd" d="m15 31 1 16c-2-5-4-10-1-16ZM18 54c7 8 9 12 18 19-10-3-14-10-18-19ZM84 35c5 5 5 6 4 12a45 45 0 0 0-4-12ZM85 55c-5 9-8 11-18 15 9-7 9-5 18-15ZM78 30l-11-1c4-2 7-3 11 1ZM40 52l14 8c-6-2-10-5-14-8ZM45 46l7 4-7-4ZM41 56c1 7 2 9 5 15-4-6-5-7-5-15ZM51 23c4 8 4 10 4 18-1-7-1-10-4-18Z"/><path fill="#ec4b7a" fill-rule="evenodd" d="M14 54c8 14 6 11 18 21-12-6-13-8-18-21ZM57 80c6-5 6-6 13-5-6 1-7 2-13 5ZM62 27c6-4 9-5 15-2-7-1-7 0-15 2ZM26 29v13c-1-3-4-11 0-13ZM73 58c5-6 2-3 8-7-5 6-2 3-8 7ZM32 38c1 9 2 11 5 18-5-7-6-8-5-18Z"/><path fill="#fd6697" fill-rule="evenodd" d="M18 35c4 13 3 12 12 22-9-7-11-10-12-22ZM32 63l7 4a9 9 0 0 1 2 1c-4 0-5-2-9-5ZM84 54c-4 6-2 3-8 8l8-8Z"/></svg>