<svg xmlns="http://www.w3.org/2000/svg" viewBox="0 0 100 100"><path fill="#fd6697" fill-rule="evenodd" d="M51 44c-4-26-45-24-37 4 2 6 14 16 21 24 4 5 8 8 8 12a47 47 0 0 1 7-5c15-9 33-14 35-29 4-18-24-26-34-6Z"/><path fill="#ec4b7a" fill-rule="evenodd" d="M19 29c-5 4-8 10-5 19 2 6 14 16 21 24 4 5 8 8 8 12a47 47 0 0 1 7-5c15-9 32-14 35-28a38 38 0 0 1-11 10c-1 1 11-10 9-10-1 4-19 11-23 14-9 4 1 1 4 0 1 0-11 8-19 6-5 0-8-6-11-9a25 25 0 0 0 14 4c-3 1-25-15-25-22 0 8 4 10 2 9-8-10-11-15-6-24Z"/><path fill="#fff" fill-rule="evenodd" d="M76 38a2 2 0 1 1-1 3 2 2 0 0 1 1-3ZM80 43a1 1 0 1 1 0 2 1 1 0 0 1 0-2Z"/><path fill="#fcca03" fill-rule="evenodd" d="m63 72 15 12-17-11Z"/><path fill="#fdb70b" fill-rule="evenodd" d="M27 9c12 8 21 27 22 38l-13-6a118 118 0 0 0 12 16l-3 2c-8-7-14-16-17-25a48 48 0 0 1 13 5c-2-11-6-20-14-30Z"/><path fill="#970000" fill-rule="evenodd" d="M38 58c8 1 11-3 17-6-3 4-11 12-17 6ZM29 35l6 12c-5-5-4-5-6-12ZM32 15c5 8 6 12 9 21l-9-21ZM39 22c5 6 6 7 7 14a106 106 0 0 0-7-14ZM47 38l1 5-1-5ZM20 28l-7 9c2-6 2-6 7-9ZM13 41c3 15 11 16 17 26a134 134 0 0 1-10-9c-5-6-7-9-7-17ZM48 80c9-7 11-6 19-10a27 27 0 0 1 4-2c-3 3-18 9-23 12ZM77 34c5 1 6 4 8 8 3 4 1 10-1 14 1-5 2-9 0-13-3-6-2-5-7-9Z"/><path fill="#970000" fill-rule="evenodd" d="m44 59-6-8a62 62 0 0 0 7 7l-1 1ZM61 73c4 3 7 6 12 8-6-2-8-4-13-7v-1h1ZM47 46c-6-2-3 0-9-4l9 4ZM48 58l-8-11 9 10v1h-1Z"/><path fill="#fff" fill-rule="evenodd" d="M38 22a39 39 0 0 1 6 14l-6-14ZM45 39c2 2 1 1 1 4l-1-4ZM31 36a55 55 0 0 1 10 3c-7-1-4 0-10-3ZM63 73c6 3 4 1 9 5l-9-5ZM73 37a27 27 0 0 0-9-1c5-1 5-1 9 1ZM61 37l-6 5 6-5ZM34 29H24c7-2 3-1 10 0Z"/><path fill="#ec4b7a" fill-rule="evenodd" d="m45 68 6-1a4 4 0 0 1 2 0c-3 3-5 2-8 1ZM61 61l12-6c-5 4-5 4-12 6ZM26 43l5 7c-4-2-4-2-5-7ZM20 32c1 7 0 5 3 11-5-4-5-6-3-11ZM12 53c5 6 5 6 12 11-8-3-8-3-12-11ZM87 54c1 7-4 10-9 13 4-4 7-7 9-13ZM27 70c5 2 5 2 8 7a27 27 0 0 1-8-7ZM54 34c4-5 4-5 10-4a47 47 0 0 0-10 4Z"/><path fill="#fd6697" fill-rule="evenodd" d="m23 54 8 9c-6-3-5-3-8-9ZM43 74c6 1 7-1 13-2-5 3-8 5-13 2ZM66 67l4-2c-2 2-1 2-4 2Z"/></svg>