<svg xmlns="http://www.w3.org/2000/svg" viewBox="0 0 100 100"><path fill="#fcca97" fill-rule="evenodd" d="M22 36c0-3-3-8-6-9-5-3-10-2-14 3s2 6 6 5c-2 1-4 10 3 7-1 7 6 5 6 3l5-9ZM91 25c3 0 7 0 8 4 0 2-5 4-5 4 2 0 5 2 5 4 1 3-6 1-6 2 4 3 3 7-1 8l-5 1c-1-6-5-9-8-12-1-4 5-11 12-11Z"/><path fill="#fd6697" fill-rule="evenodd" d="M52 41c0-4-9-10-13-10-10-2-22 4-23 15-1 5 2 9 5 13 5 5 25 18 29 26 3-4 3-7 18-16l11-7c21-16-4-37-20-30a13 13 0 0 0-7 9Z"/><path fill="#ec4b7a" fill-rule="evenodd" d="M22 35a16 16 0 0 0-6 12c-1 4 2 8 5 12 5 5 25 18 29 26 3-4 3-7 18-16l11-7c7-6 9-12 7-17-2 11-12 17-16 19a39 39 0 0 0 8-13 34 34 0 0 1-17 13 20 20 0 0 0 10-3c-13 11-22 12-37 4 0 0-10-6-5-4 16 9 26 2 28 2-13-1-23-7-30-12 5 6 11 10 17 11a27 27 0 0 1-23-14c-1-4-1-9 1-13Z"/><path fill="#fff" fill-rule="evenodd" d="M74 36a2 2 0 1 1-1 3 2 2 0 0 1 1-3ZM79 40a1 1 0 1 1-1 2 1 1 0 0 1 1-2Z"/><path fill="#970000" fill-rule="evenodd" d="M50 85c-5-8-14-11-20-19 6 4 20 12 20 19ZM20 38c-4 8-4 10-1 18-5-7-5-12 1-18ZM58 76c5-7 7-7 15-10-7 6-8 6-15 10ZM77 63c2-3 0-2 3-3l-1 2ZM84 56c3-10 0-14-6-21l5 4c5 6 5 11 1 17ZM53 39c1-4 0-2 3-5-1 4 0 2-3 5ZM42 32H30c4-2 7-4 12 0ZM80 32c2-7 9-10 15-7h1a1 1 0 0 1-1 0c-7 0-11 2-15 7ZM12 25c3 0 9 2 7 7-2-4-3-5-7-7Z"/><path fill="#970000" fill-rule="evenodd" d="M15 46c-3 2-4-1-5-4-2 1-6 0-3-5v2c0 2 1 3 3 2 4-3-1 4 5 5Zm-5-4v-1 1ZM5 36c-5 0-6-4-2-8-2 5-2 5 2 8ZM89 48c5-3 7-5 3-9l2-1s4 1 5-2c1 2-2 3-4 3 2 4 0 8-6 9ZM75 33c-5-1-4-2-9-2a4 4 0 0 1-2 0c5-3 7-1 11 2Z"/><path fill="#ec4b7a" fill-rule="evenodd" d="m22 41 3 8a3 3 0 0 1 0 1c-4-2-3-5-3-9ZM36 54l10 5c-6-1-6-1-10-5ZM46 67a73 73 0 0 0 17-2c-6 3-11 4-17 2ZM83 48c-2 6-1 3-6 8a56 56 0 0 1 6-8ZM74 53c-3 4-3 4-8 6l8-6Z"/><path fill="#fd6697" fill-rule="evenodd" d="M19 46c2 7 4 8 10 13-7-3-10-6-10-13ZM41 71a56 56 0 0 0 12 3c-6 1-6 1-12-3Z"/><path fill="#fff" fill-rule="evenodd" d="M10 28c4-1 5 1 6 4l-6-4ZM17 33c2 0 2 0 2 2-1 0-2 0-2-2ZM82 34c1-5 4-6 9-6-5 2-6 2-9 6ZM93 28c-1 0 0-2 3 0h-3Zm0 0Z"/><path fill="#fd6697" fill-rule="evenodd" d="m13 52 9 12c-7-4-7-4-9-12ZM28 70l6 4a3 3 0 0 1 1 1l2 2-2-1c-2 1-7-6-7-6Zm5 5v1-1Zm1 1ZM58 80c5-6 5-5 13-8a82 82 0 0 1-13 8ZM47 30l-15-4c8-1 9-1 15 4Z"/></svg>