<svg xmlns="http://www.w3.org/2000/svg" viewBox="0 0 100 100"><path fill="#fcca97" fill-rule="evenodd" d="M24 67c-4-3-9-9-10-12-1-1-9-1-11 1-6 5 2 28 4 26a6 6 0 0 0 2-2l2-8 4 3c2 2 3-4 2-6 5 1 6 0 7-2Z"/><path fill="#970000" fill-rule="evenodd" d="M17 74v-4c-1-3 3 1 6-3l2-4a3 3 0 0 1 0 1c-2 6-2 7-7 6a12 12 0 0 1-1 4Zm0-4ZM16 56C2 54 1 55 3 68l2 11a26 26 0 0 1-2-5c-5-15-4-24 13-18Z"/><path fill="#970000" fill-rule="evenodd" d="m14 74-3-1-1 5c0-8-1-9 4-4Z"/><path fill="#fcca97" fill-rule="evenodd" d="M73 49c3-9 1-13 1-16 3-5 8-12 14-7 5 4 8 9 10 15 4 8-5 3-8 1-1 9-5 5-7 4-2 4-6 4-10 3Z"/><path fill="#fd6697" fill-rule="evenodd" d="M42 38C26 28 7 38 13 52c8 20 29 21 49 26 0-4 6-18 8-22 8-17 4-27-4-31-9-4-20-1-24 13Z"/><path fill="#ec4b7a" fill-rule="evenodd" d="M16 38a11 11 0 0 0-3 14c8 20 29 21 49 26 0-4 6-18 8-22 6-14 5-23 0-28-2 11-7 24-13 29-6 7-16 4-16 4 5-1 10-4 9-4-9 3-19-6-19-6 2 8 10 8 6 8-11-1-21-11-21-21Z"/><path fill="#fff" fill-rule="evenodd" d="M60 28a2 2 0 1 1 0 3 2 2 0 0 1 0-3ZM65 30a1 1 0 0 1 2 0 1 1 0 1 1-2 0Z"/><path fill="#970000" fill-rule="evenodd" d="M39 37c-7-2-10-3-17-2 8-3 10-2 17 2ZM12 48c5 11 10 16 20 21 5 3 10 3 15 5-11 0-22-4-29-12-4-5-5-7-6-14ZM71 54c1-8 4-15 1-22l-1-2c6 7 4 15 0 24ZM49 27l-6 7c1-4 2-6 6-7ZM70 57l-7 17c0-9 1-11 7-17Z"/><path fill="#970000" fill-rule="evenodd" d="M73 47c2 3 7 2 10-1 1-2 2 0 4 1h1c-3 1-4-1-5-1 0 3-8 6-11 2a1 1 0 0 1 0-1 1 1 0 0 1 1 0Zm10-1ZM73 35c2-3 6-13 11-11a15 15 0 0 1 4 2l-4-1c-5-1-8 8-9 11a1 1 0 1 1-2-1ZM90 28l3 3a8 8 0 0 1-3-3ZM95 35c1 1 9 13 1 11a11 11 0 0 1-4-3l6 2a94 94 0 0 0-3-10Zm3 10Z"/><path fill="#fd6697" fill-rule="evenodd" d="M23 57a103 103 0 0 0 14 6c-8-1-8-1-14-6ZM50 72h8c-4 2-3 2-8 0ZM70 36c0 7-1 8-4 13l4-13ZM46 64c8 0 8-2 15-6-5 6-8 8-15 6Z"/><path fill="#ec4b7a" fill-rule="evenodd" d="M21 41c2 4 1 4 4 7-4-1-4-3-4-7ZM53 55c7-6 6-10 11-14-1 5-5 11-11 14ZM36 51l7 2c-4 1-4 1-7-2Z"/><path fill="#fff" fill-rule="evenodd" d="M6 57c4-1 5-1 9 1a87 87 0 0 0-9-1ZM5 59a18 18 0 0 1-1 4c-1-2-1-3 1-4ZM77 34c2-5 2-5 6-7a53 53 0 0 1-6 7ZM85 27l5 2-5-2Z"/><path fill="#fd6697" fill-rule="evenodd" d="M27 72c9 3 10 4 19 5l4 1c-11 1-14 0-23-6ZM53 22c4-3 5-3 10-1l-10 1ZM67 23c4 1 2 0 4 3-3-1-2 0-4-3ZM15 36c-6 4-6 7-6 14-3-6-1-12 6-14Z"/><path fill="#fff" fill-rule="evenodd" d="M57 29c-6-2-9 3-12 7 2-3 7-11 12-7ZM23 38h4a20 20 0 0 1-4 0ZM31 38c6 1 5 1 10 4a42 42 0 0 0-10-4Z"/></svg>