<svg xmlns="http://www.w3.org/2000/svg" viewBox="0 0 100 100"><path fill="#fd6697" fill-rule="evenodd" d="M50 37c-6-13-22-17-32-10 7-3 12 6 3 8 7 1 5 9-2 7 3 4-4 9-8 2 0 19 31 27 39 39 7-12 22-20 31-29 14-14 7-35-13-34-9 1-15 7-18 17Z"/><path fill="#ec4b7a" fill-rule="evenodd" d="M20 44c-1 3-6 5-9 0 0 19 31 27 39 39 7-12 22-20 31-29a25 25 0 0 0 7-14c-8 11-21 20-21 20 3-7 10-12 2-6-22 14-14 15-28 5h10c-2 0-18-8-20-11-5-6 5 10 5 9-4-2-12-7-16-13Z"/><path fill="#fff" fill-rule="evenodd" d="M74 27a2 2 0 1 1-1 2 2 2 0 0 1 1-2ZM79 31a1 1 0 0 1 1 2 1 1 0 1 1-1-2ZM70 26c-5-1-7 1-11 5 3-4 6-8 11-5ZM57 34l-3 4 3-4ZM40 30l3 4c-3-2-2-1-3-4Z"/><path fill="#970000" fill-rule="evenodd" d="M85 49c-4 10-14 15-22 21a45 45 0 0 1-5 3c9-10 19-14 27-24ZM16 55c5 7 9 8 15 14-8-5-10-5-15-14ZM37 72l10 4c-7-2-4 0-10-4ZM81 24c-13-5-18-4-28 6 3-5 4-7 9-9 8-4 13-2 19 3Z"/><path fill="#fff" fill-rule="evenodd" d="M24 27c2-1 5 2 3 5 0-2 0-4-3-5ZM26 37c3 2 0 8-3 6 3 0 4-3 3-6ZM15 49l5-2c-1 1-3 4-5 2Z"/><path fill="#ec4b7a" fill-rule="evenodd" d="M14 60c8 8 7 7 18 13-12-4-11-3-18-13ZM88 25c5 6 4 5 5 12l-5-12ZM51 26c3-4 6-8 10-8a5 5 0 0 1-1 1l-9 7ZM56 58c4-4 4-5 9-8-3 5-4 5-9 8ZM76 49c5-5 2-3 9-7-6 6-3 3-9 7ZM35 48l9 5c-6 0-6-1-9-5Z"/><path fill="#fd6697" fill-rule="evenodd" d="m21 51 15 10c-8-3-8-3-15-10ZM40 64l7 4c-6-2-3 0-7-4ZM23 57c4 2 3 0 6 4l-6-4ZM57 66l3-3-3 3Z"/></svg>