<svg xmlns="http://www.w3.org/2000/svg" viewBox="0 0 100 100"><path fill="#fd0066" fill-rule="evenodd" d="M65 27c1 0 9 0 12 3 6-8 0-17-9-15 4 3 0 9-3 12ZM20 41l-4 7c-11-4-3-14-1-15a8 8 0 0 0 5 8Z"/><path fill="#fd6697" fill-rule="evenodd" d="M50 41C34 20 0 48 24 66c9 7 25 6 34 16 25-22 27-40 21-50-7-11-26-10-29 9Z"/><path fill="#ec4b7a" fill-rule="evenodd" d="M25 37c-10 6-15 19-1 29 9 7 25 6 34 16 22-20 26-36 23-46 0 9-5 19-12 25 0 0 5-7 4-11 0 0-9 17-14 19-1 1-5-1-7-2-3-1 5 5 3 4-5-3-11-3-15-5-4-3-4-2 0-2h3c-13-4-15-11-15-11-1 5 4 8 0 6-10-7-9-15-3-22Z"/><path fill="#fff" fill-rule="evenodd" d="M67 30a2 2 0 1 1 0 2 2 2 0 0 1 0-2ZM73 32a1 1 0 1 1 0 2 1 1 0 0 1 0-2Z"/><path fill="#970000" fill-rule="evenodd" d="m49 40-13-6c7 1 8 1 13 6ZM24 37c-8 8-9 13-5 23a4 4 0 0 1 0 2c-3-4-4-9-3-14s4-8 8-11ZM24 66c5 3 6 3 12 4-5 0-9 0-12-4ZM56 80c-4-3-8-3-13-5l-5-3 6 1c2 0 13 3 12 7ZM77 30c5 5 5 6 5 13-1-7-1-8-5-13ZM81 48c-1 10-2 12-8 19a80 80 0 0 1-12 12 25 25 0 0 1 4-6c7-9 12-13 16-25ZM74 15c6 3 7 6 5 13 0-8 0-8-5-13Z"/><path fill="#970000" fill-rule="evenodd" d="M13 35c-4 8-2 9 6 14-8-2-13-7-6-14ZM15 36a22 22 0 0 0 5 5c-3 0-5-1-5-5ZM69 16c2 3 3 5-1 7l1-7Z"/><path fill="#ec4b7a" fill-rule="evenodd" d="M78 37c1 5 0 6-3 9l3-9ZM26 42a55 55 0 0 0 0 10c-3-5-3-5 0-10ZM32 53l10 8c-7-2-6-2-10-8ZM56 65c6-1 8-7 12-12-1 2-7 16-12 12Z"/><path fill="#fd6697" fill-rule="evenodd" d="M19 50c2 7 1 6 5 11-5-4-5-3-5-11ZM28 63a49 49 0 0 1 12 5c-6-1-7-1-12-5ZM45 71c5 0 2 0 7 2l-7-2ZM62 73l8-9c-5 7-2 4-8 9Z"/><path fill="#fff" fill-rule="evenodd" d="M74 18c3 2 3 2 3 6l-3-6ZM14 38l1 4c-2-1-2-2-1-4Z"/><path fill="#fd6697" fill-rule="evenodd" d="m20 69 14 5 6 2c-10-1-12-1-20-7ZM26 34c6-5 6-5 13-2-7 0-6 0-13 2ZM85 49c0 8 0 9-6 17a29 29 0 0 1 2-6l4-11Z"/><path fill="#fff" fill-rule="evenodd" d="M65 30c-7 1-9 6-12 12 2-6 5-13 12-12ZM31 38c3-1 3-2 6 0a33 33 0 0 0-6 0ZM41 39l5 4a1 1 0 0 1 1 0 2 2 0 0 1-1 0h1a15 15 0 0 0 1 2l-2-2c-2 0-4-3-5-4Z"/></svg>