<svg xmlns="http://www.w3.org/2000/svg" width="100%" viewBox="0 0 100 100">
  <path fill="#fd6697" fill-rule="evenodd"
    d="M46 37c-6-2-17-3-23-1a17 17 0 0 0-10 17c1 18 30 21 43 28 6-9 13-15 18-26 17-32-16-41-28-18Z" />
  <path fill="#ec4b7a" fill-rule="evenodd"
    d="M16 43c-2 2-3 9-3 10 1 18 30 21 43 28 6-9 13-15 18-26 3-6 5-11 5-15l-5 7-9 11c-9-11-19-2-17 6a64 64 0 0 1-23-8 39 39 0 0 0 13 9c-8 0-23-9-22-22Z" />
  <path fill="#970000" fill-rule="evenodd" d="M79 40c-2 15-8 21-17 31 8-13 12-15 17-31Z" />
  <path fill="#fff" fill-rule="evenodd"
    d="M68 30a2 2 0 1 1-1 2 2 2 0 0 1 1-2ZM72 35a1 1 0 1 1 0 1 1 1 0 0 1 0-1Z" />
  <path fill="#fd8eb4" fill-rule="evenodd"
    d="m71 58-10-6a9 9 0 0 0-9 6c-4 9 10 17 14 23 5-3 10-4 15-8 15-11 1-23-10-15Z" />
  <path fill="#970000" fill-rule="evenodd"
    d="M48 77c-7-1-19-3-24-9a3 3 0 0 1 1 0c9 5 14 6 23 9ZM15 46c-2 8-2 8 2 16-5-6-7-8-2-16ZM52 59c-1 10 8 12 12 19l-1-1c-5-3-14-11-11-18ZM54 56c1-4 2-4 6-4l-6 4ZM86 67c-3 6-3 6-8 8l8-8ZM75 76l-7 4c4-4 2-2 7-4ZM71 26c-11-3-18 2-25 11l2-4c5-7 15-12 23-7Z" />
  <path fill="#fff" fill-rule="evenodd"
    d="M65 30c-5-1-5 0-10 3 2-3 6-7 10-3ZM42 39l-6-1c4 0 2-1 6 1ZM33 38c-6 1-8 3-13 7 4-5 6-8 13-7ZM84 60c-4-3-6-2-11 0 4-3 7-4 11 0ZM68 58a13 13 0 0 1-2-1c1-1 2 0 2 1ZM63 55c-6 0-7 1-10 5 2-4 5-6 10-5Z" />
  <path fill="#fd6697" fill-rule="evenodd"
    d="M20 59c10 8 15 8 25 13-10-2-18-4-25-13ZM40 67c6 1 4 0 9 3l-9-3Z" />
  <path fill="#ec4b7a" fill-rule="evenodd"
    d="m19 46 6 8c-6-2-5-2-6-8ZM74 42c-3 5-4 7-8 10l8-10ZM19 69c5 2 10 6 15 7l6 3c-12-2-12-3-21-10ZM82 37c1 6 1 7-2 13l2-13ZM36 33c-7-2-9-1-16 3 5-5 9-8 16-3Z" />
</svg>