<svg xmlns="http://www.w3.org/2000/svg" viewBox="0 0 100 100"><path fill="#fdb700" fill-rule="evenodd" d="m70 40 2-13c-7 0-15-3-17-9-3 5-16 6-20 3l-1 11c5 2 16 5 18 19 5-4 9-9 18-11Z"/><path fill="#970000" fill-rule="evenodd" d="M71 30c1 6 0 8-1 15-1-7 0-9 1-15Z"/><path fill="#fd6697" fill-rule="evenodd" d="M52 50c-4-26-45-23-36 4 1 6 14 16 20 24 4 5 8 8 8 12a47 47 0 0 1 7-6c15-8 32-13 35-28 3-17-24-26-34-6Z"/><path fill="#ec4b7a" fill-rule="evenodd" d="M21 35c-5 3-8 10-5 19 1 6 14 16 20 24 4 5 8 8 8 12a47 47 0 0 1 7-6c15-8 32-13 35-28l-7 6c-6 4-28 15-35 10a15 15 0 0 0 6 6c-10-2-17-10-18-12 3 3 5 3 7 3-7-4-12-8-13-18a13 13 0 0 0 1 10c-5-7-11-17-6-26Z"/><path fill="#fdb700" fill-rule="evenodd" d="M36 14a3 3 0 1 1-3 2 3 3 0 0 1 3-2Z"/><path fill="#7c0000" fill-rule="evenodd" d="M55 25c0 8-1 3 1 9-5-2-4-5-1-9Z"/><path fill="#fff" fill-rule="evenodd" d="M77 45a2 2 0 1 1-1 2 2 2 0 0 1 1-2ZM81 50a1 1 0 0 1 1 2 1 1 0 1 1-1-2Z"/><path fill="#970000" fill-rule="evenodd" d="M52 21c-4 2-9 3-14 2l14-2ZM35 23c0 7 0 3-2 11 0-8 0-4 2-11ZM57 22l10 5c-6-1-6 0-10-5ZM52 47a56 56 0 0 1-5-8c4 4 4 3 5 8Z"/><path fill="#970000" fill-rule="evenodd" d="M43 36c-9-3-18-5-25 3-2 3-2 7-3 10 0-4 0-7 2-11 7-9 17-7 26-2ZM44 87 31 73c8 5 9 6 13 14ZM27 68c-6-5-4-2-7-9a80 80 0 0 1 7 9ZM50 86c7-7 14-11 23-14-6 7-15 10-23 14ZM78 69l8-10c1 5-5 8-8 10ZM85 47c-3-4-2-3-7-6 5 1 7 1 7 6ZM66 39a112 112 0 0 0-11 6c4-5 4-5 11-6Z"/><path fill="#fdb700" fill-rule="evenodd" d="M57 11a3 3 0 1 1-3 2 3 3 0 0 1 3-2ZM73 20a3 3 0 1 1-3 2 3 3 0 0 1 3-2Z"/><path fill="#ec4b7a" fill-rule="evenodd" d="M79 60c-1 0-4 7-19 10l-6 1 17-6 8-5ZM21 41l3 11c-4-7-3-3-3-11Z"/><path fill="#ec4b7a" fill-rule="evenodd" d="m55 67 18-6c-6 4-11 7-18 6ZM22 40c1-4 1-4 6-5l-6 5ZM28 51v-4c1 1 1 7 5 12l9 8c-10-5-12-7-14-16Z"/><path fill="#fd6697" fill-rule="evenodd" d="M49 75c9 1 15-4 23-5-5 3-17 7-23 5ZM37 74l8 5c-6-2-4 0-8-5ZM16 47l9 14c-6-5-6-5-9-14Z"/><path fill="#fff" fill-rule="evenodd" d="M62 28c8 3 9-4 6 9v-7a12 12 0 0 1-6-2ZM58 26c-2-1-3-2-3-5a41 41 0 0 1 3 5ZM74 21l1 1-1 1-1-1 1-1zM35 15l1 2c-1 1-2 0-1-2ZM57 13h1l-1 1h-1l1-1z"/><path fill="#970000" fill-rule="evenodd" d="M70 22a14 14 0 0 1 1 3c-2-1-2-2-1-3ZM55 11c-2 3-1 2-1 5-2-2-2-3 1-5ZM33 15l1 4c-2-1-2-2-1-4Z"/><path fill="#fd6697" fill-rule="evenodd" d="M11 50c5 12 4 11 14 19a11 11 0 0 1 2 2h-1c-10-5-13-10-15-21ZM29 76c5 5 6 5 9 11-5-4-6-5-9-11ZM80 72c-7 8-7 8-17 11l17-11ZM76 27c0 6 1 3-1 8-1-5-1-3 1-8Z"/><path fill="#fff" fill-rule="evenodd" d="M74 45c-6-4-13 1-19 5 5-4 13-11 19-5ZM37 37c4 1 5 1 5 4a5 5 0 0 1-1-1l-4-3ZM46 44l2 7-2-7Z"/></svg>