<svg xmlns="http://www.w3.org/2000/svg" viewBox="0 0 100 100"><path fill="#fd0066" fill-rule="evenodd" d="M76 33c2-3 2-8-2-10 10-4 25-1 25 13-3-4-8-5-10-4 1 2 3 6 3 10-3-2-7-6-12-3l-4-6Z"/><path fill="#970000" fill-rule="evenodd" d="m76 24 1 8c3-4 1-5-1-8ZM80 21c8 0 11 2 17 7-5-6-9-9-17-7ZM83 38l7 2c-3-3-3-3-7-2ZM89 32a39 39 0 0 0 2 7c1-4 0-4-2-7Z"/><path fill="#fff" fill-rule="evenodd" d="M93 28c-3-4-6-5-11-5l11 5ZM78 24a4 4 0 0 0 2 3c1-2 0-3-2-3Z"/><path fill="#fd0066" fill-rule="evenodd" d="M23 44c-4-2-6-6-3-10C10 34-3 44 2 56c2-5 5-8 8-8 0 3-1 7 1 11 2-3 4-8 10-8l2-7Z"/><path fill="#fd6697" fill-rule="evenodd" d="M50 47c-10-14-32-9-31 9s28 18 39 28c4-11 15-20 20-29 9-13 0-29-16-24-7 2-11 7-12 16Z"/><path fill="#ec4b7a" fill-rule="evenodd" d="M25 42c-4 3-6 8-6 14 1 18 28 18 39 28 4-11 15-20 20-29a20 20 0 0 0 3-14c-2 9-9 16-15 22l4-8-7 7c-7 8-8 10-18 7-3 0-16-7-17-9 2 2 8 2 8 2l-10-7c-4-4-3-9-1-13Z"/><path fill="#fff" fill-rule="evenodd" d="M68 35a2 2 0 1 1-1 2 2 2 0 0 1 1-2ZM72 37a1 1 0 1 1 0 2 1 1 0 0 1 0-2Z"/><path fill="#970000" fill-rule="evenodd" d="M26 41c-5 6-7 10-5 18a4 4 0 0 1 0 1c-5-7-2-15 5-19ZM22 64l9 6c-5-1-6-1-9-6ZM35 73c10 2 12 2 21 7-7-1-15-3-21-7ZM61 79c1-6 0-4 4-7l-4 7ZM68 69c3-7 6-9 10-15-3 8-5 8-10 15ZM51 43c1-8 3-9 10-12-7 5-7 5-10 12ZM19 36c1 4 0 4 2 7-4-2-3-4-2-7ZM14 35c-7 3-9 6-13 13 3-7 5-12 13-13Z"/><path fill="#970000" fill-rule="evenodd" d="m18 51-5 5c1-4 1-4 5-5ZM11 49a40 40 0 0 1 0 7c-2-4-2-4 0-7Z"/><path fill="#ec4b7a" fill-rule="evenodd" d="M38 63c7 3 11 4 19 3a7 7 0 0 1-3 1c-6 2-11 0-16-4ZM26 45c-1 7 0 6 5 11-6-2-8-5-5-11ZM42 61l8 3c-6-1-3 0-8-3ZM78 42c-2 6-3 7-7 13a51 51 0 0 1 7-13Z"/><path fill="#fd6697" fill-rule="evenodd" d="M65 66c-3 5-3 5-8 7l8-7ZM22 55c5 8 7 8 15 13l1 1c-8-1-14-7-16-14ZM45 73c4 0 2 0 5 2l-5-2Z"/><path fill="#fff" fill-rule="evenodd" d="M5 46c1-5 3-7 8-9l-8 9ZM17 37a4 4 0 0 1 0 3c-2-1-2-2 0-3Z"/><path fill="#fd6697" fill-rule="evenodd" d="m44 38-9-2c5-1 5-1 9 2ZM18 64c8 7 4 5 15 10-11-2-10-1-15-10ZM39 78c7 1 4 0 9 4-6-1-3 0-9-4ZM78 62c-7 11-3 6-12 16 7-12 3-6 12-16Z"/><path fill="#fff" fill-rule="evenodd" d="M29 44c7-2 7-1 13 1-6-1-6-2-13-1ZM45 48c3 1 2 0 3 2l-3-2ZM65 35c-5-1-7 2-10 5a8 8 0 0 1-1 2c2-4 6-10 11-7Z"/></svg>