<svg xmlns="http://www.w3.org/2000/svg" viewBox="0 0 100 100"><path fill="#fd6697" fill-rule="evenodd" d="M16 28c-7 14 1 40 32 58 0-11 44-18 39-41-4-20-23-17-29-10l-2 12v3l-2 1a1 1 0 0 1-1 0l-6-6 1 15v5l-1-1-5-5 2 6 3 11 1 1-6-12-2-10 7 6v-1l-2-20 9 8v-2c5-34-27-41-38-18Z"/><path fill="#ec4b7a" fill-rule="evenodd" d="M32 16a24 24 0 0 0-16 12c-7 14 1 40 32 58 0-11 40-17 40-38a66 66 0 0 1-23 18c-11 5 4-3 4-4 0 0-16 8-18 7a29 29 0 0 1-8-6l1 2 3 10 1 2-6-12-1-5c-5-7-9-15-12-22l-1-4a26 26 0 0 0 1 14c0-2-14-20 3-32Z"/><path fill="#fff" fill-rule="evenodd" d="M76 37a2 2 0 1 1-2 3 2 2 0 0 1 2-3ZM80 43a1 1 0 0 1 0 3 1 1 0 1 1 0-3Z"/><path fill="#970000" fill-rule="evenodd" d="m54 32-6-11c5 2 6 6 6 11ZM41 16c-16 2-15 3-25 14l-1 1c0-3 3-7 5-9 6-8 12-8 21-6ZM14 40a108 108 0 0 0 8 20c-8-8-9-9-8-20ZM25 65ZM86 56c-1 5-1 5-6 8l6-8ZM75 67 57 77c7-6 9-7 18-10ZM85 40c-6-11-15-12-25-7 8-8 22-6 25 7Z"/><path fill="#ec4b7a" fill-rule="evenodd" d="M30 21c0 5 1 2-1 6l-1 1c-2-2 1-5 2-7ZM33 34c3 8 3 9 8 16-7-6-8-6-8-16ZM71 59c6-7 3-4 10-9-5 7-2 4-10 9ZM55 65c5-4 2-3 8-5-5 5-2 3-8 5Z"/><path fill="#fd6697" fill-rule="evenodd" d="M20 29c0 9-1 7 2 15-5-6-5-8-2-15ZM26 51c5 4 3 2 7 8-6-5-4-2-7-8ZM20 47a121 121 0 0 1 9 15c-6-6-6-6-9-15ZM36 70l5 6c-4-1-4-2-5-6ZM54 75c3-3 1-2 5-3-3 3-1 2-5 3ZM77 26c7 2 11 3 11 11-4-7-4-6-11-11ZM74 73 53 85c9-9 10-8 21-12ZM13 55c4 6 7 12 12 17l6 7c-12-9-13-10-18-24Z"/><path fill="#fff" fill-rule="evenodd" d="M32 20c7-2 11 1 14 8-4-6-7-8-14-8ZM48 31c3 3 2 1 4 6l-4-6ZM73 35c-6 0-9 2-13 7 3-6 7-9 13-7Z"/></svg>