<svg xmlns="http://www.w3.org/2000/svg" viewBox="0 0 100 100"><path fill="#fdb700" fill-rule="evenodd" d="m51 11 7 2a17 17 0 0 1 14 20l-5 24a17 17 0 0 1-20 14l-7-1a17 17 0 0 1-14-20l5-25a17 17 0 0 1 20-14Zm6 7-7-1a12 12 0 0 0-13 9l-5 25a12 12 0 0 0 9 13l7 2a12 12 0 0 0 14-10l4-24a12 12 0 0 0-9-14Z"/><path fill="#fd6697" fill-rule="evenodd" d="M48 45c1-5-7-13-11-14-4-2-9-2-13 0-12 7-13 18-7 29 7 14 21 22 21 29l30-15c8-2 16-13 16-21-1-15-15-21-27-17l-9 9Z"/><path fill="#ec4b7a" fill-rule="evenodd" d="M17 36c-5 7-4 16 0 24 7 14 21 22 21 29l30-15c8-2 16-13 16-21v-1a51 51 0 0 1-8 11c-3 3-13 10-26 13 4-1 10-5 12-8-4 3-13 6-18 7S31 64 28 60a36 36 0 0 0 6 10c1 3-6-4-6-4-5-5-6-8-8-13l1 1c2 4 3 3 5 5 0 1-8-9-9-23Z"/><path fill="#fff" fill-rule="evenodd" d="M72 41a2 2 0 1 1-1 2 2 2 0 0 1 1-2ZM76 46a1 1 0 1 1-1 1 1 1 0 0 1 1-1Z"/><path fill="#970000" fill-rule="evenodd" d="m48 42-8-9-1-1a1 1 0 0 1 1 0c5 3 6 4 8 10ZM34 30h-3 3ZM27 30c-13 5-17 17-9 29l1 1a18 18 0 0 1-7-13c0-8 7-16 15-17ZM38 88c-4-8-11-11-14-20 5 8 13 13 14 20ZM46 84c6-4 7-5 14-6l-14 6ZM63 76c8-6 12-7 19-14-4 8-10 10-19 14ZM83 56c1-11-8-19-19-20l-5-1h5c12 0 23 11 19 21ZM41 63c-4-4-1-11 5-9 8 1 5 10 1 10 1 7-2 7-4 6s-5-1-2-7Z"/><path fill="#ec4b7a" fill-rule="evenodd" d="M79 56c-5 7-6 7-14 11l14-11ZM65 64c3-4 1-3 5-4l-5 4ZM24 34c-7 6 0 11 2 18-4-3-11-15-2-18Z"/><path fill="#ec4b7a" fill-rule="evenodd" d="M24 37a26 26 0 0 1 0 6c-2-2-2-3 0-6ZM39 71c-3-2-6-4-7-8l7 8ZM27 53a67 67 0 0 0 6 9c-5-3-5-3-6-9Z"/><path fill="#fd6697" fill-rule="evenodd" d="M29 71c6 5 7 6 14 9-8-2-8-2-14-9ZM48 79l6-2c-3 2-2 2-6 2ZM48 87c7-4 9-5 17-7-7 4-9 5-17 7ZM9 50c4 9 4 11 11 20-7-5-10-11-11-20ZM22 75c5 4 3 2 6 8-5-5-3-2-6-8ZM51 37c3-3 1-2 6-3-3 3-2 2-6 3Z"/><path fill="#fff" fill-rule="evenodd" d="M69 40c-6-4-11 1-16 4 4-3 11-10 16-4ZM50 46l-2 2 2-2ZM32 34c5 0 6 1 8 5-3-3-3-4-8-5Z"/><path fill="#970000" fill-rule="evenodd" d="M56 18c6 1 10 3 10 10a1 1 0 0 1 0-1c-3-7-4-6-10-9ZM54 18h-2l-1-1h1l2 1zM44 18c-5 3-4 2-8 8 2-6 2-6 8-8ZM66 16l2 1 1 2c-3-1-2 0-3-3ZM46 11c-7 2-10 5-14 11v1c1-7 7-12 14-12Z"/><path fill="#fff" fill-rule="evenodd" d="M46 13c7 0 6 0 12 2l-12-2ZM62 16c4 2 3 2 5 5l-5-5ZM40 16l-3 1 3-1Z"/></svg>