<svg xmlns="http://www.w3.org/2000/svg" viewBox="0 0 100 100">
  <path fill="#fd6697" fill-rule="evenodd"
    d="M48 42c-6-2-17-3-23-1a17 17 0 0 0-10 17c0 18 30 22 43 29 6-10 13-15 19-26 17-33-17-42-29-19Z" />
  <path fill="#ec4b7a" fill-rule="evenodd"
    d="M24 42a18 18 0 0 0-9 16c0 18 30 22 43 29 6-10 13-15 19-26 4-9 5-17 4-22-3 10-6 18-14 27-4 6-7 10-13 11l-8-2 10-2c-10 1-19-2-26-8 3 4 5 6 9 8-17-5-26-21-15-31Z" />
  <path fill="#fdb700" fill-rule="evenodd"
    d="M37 18c15-5 29-5 30-2s-9 9-25 14-29 7-30 2 10-9 25-14Zm5 6c7-2 7-3 7-4l-7 1c-4 1-11 4-10 5s2 1 10-2Z" />
  <path fill="#fff" fill-rule="evenodd"
    d="M71 35a2 2 0 1 1-2 2 2 2 0 0 1 2-2ZM75 40a1 1 0 1 1-1 1 1 1 0 0 1 1-1Z" />
  <path fill="#970000" fill-rule="evenodd"
    d="M55 85c-7-1-14-3-20-7 10 1 12 2 20 7ZM28 74c-10-3-11-4-13-13 5 7 6 8 13 13ZM81 43c3 11-1 19-10 27 7-11 9-13 10-27ZM47 42c-8-3-19-3-26 3l-3 2c6-11 19-11 29-5ZM80 37c-5-6-10-8-18-7 7-4 15-1 18 7Z" />
  <path fill="#ec4b7a" fill-rule="evenodd"
    d="M59 71c6-5 6-8 14-13-4 4-8 11-14 13ZM22 56c5 5 3 2 6 8-5-4-3-2-6-8ZM32 64a73 73 0 0 0 18 6c-10 0-10 0-18-6ZM22 47a36 36 0 0 1 0 7c-2-3-2-3 0-7Z" />
  <path fill="#fd6697" fill-rule="evenodd" d="M55 80c6-3 11-9 16-14-3 5-9 15-16 14Z" />
  <path fill="#970000" fill-rule="evenodd"
    d="m15 35 27-6c-11 5-14 5-27 6ZM32 26c1-4 11-6 15-6-6 3-11 3-15 6ZM54 26s18-12 10-11a8 8 0 0 1-2 0c1-1 3-2 5-1 5 4-12 11-13 12ZM13 34c-6-9 18-14 21-15l-12 5c-5 2-10 3-9 10ZM41 24l7-2c-4 2-2 2-7 2ZM58 32a38 38 0 0 0-8 7c2-5 3-6 8-7ZM68 73c-3 5-1 3-5 6 2-5 1-3 5-6Z" />
  <path fill="#fd6697" fill-rule="evenodd" d="M25 69a70 70 0 0 0 13 6c-7-1-8-1-13-6Z" />
  <path fill="#fff" fill-rule="evenodd"
    d="M60 18c-4-3-8-1-13-1 2-1 11-4 13 1ZM15 32c-1-2 0-4 2-4l-2 4ZM21 26l12-5c-5 3-6 4-12 5Z" />
  <path fill="#fd6697" fill-rule="evenodd"
    d="M85 45c4 10 1 12-4 21 4-11 4-10 4-21ZM78 70 67 82c3-8 3-8 11-12ZM24 78l11 4c-6 1-6 0-11-4ZM33 15c5-4 11-4 18-4l-18 4Z" />
  <path fill="#fff" fill-rule="evenodd"
    d="M67 34c-5-2-8 3-13 6 3-3 9-9 13-6ZM53 41c-1 3 0 2-3 3l3-3ZM42 44l-10-1c5-1 5-1 10 1Z" />
</svg>