<svg xmlns="http://www.w3.org/2000/svg" width="100%" viewBox="0 0 100 100"><g data-name="Слой 2"><path fill="none" d="M0 0h100v100H0z"/><path d="M83 27.1c0 2.4-1.9 4.5-5 6.3-3.8 2-9.4 3.5-15.9 4a15.8 15.8 0 0 0-1.4-.7 51.1 51.1 0 0 0-19.3-3.4l-3.1.1H38c-3.1-1.8-5-4-5-6.3 0-5.7 11.2-10.4 25-10.4S83 21.4 83 27.1ZM37.4 37.7l4-.2c8.1 0 15.3 1.6 19.9 4.1 3.2 1.7 5 4 5 6.3a4.4 4.4 0 0 1-.2 1.5c-.6 1.7-2.2 3.3-4.5 4.6l-.2.1a43.3 43.3 0 0 1-20 4.2 44.7 44.7 0 0 1-20-4.2c-3-1.7-5-3.9-5-6.2 0-4.5 7-8.4 16.7-9.8l4.3-.4Zm33.1 10.2a9.8 9.8 0 0 0-3.1-6.9 43.7 43.7 0 0 0 9.9-2.7A22.3 22.3 0 0 0 83 35v4.6c0 2.5-2.1 4.8-5.7 6.6a31.7 31.7 0 0 1-6.8 2.4V48Zm-4.1 12.5c0 2.3-1.9 4.5-5 6.2l-.7.4a44.6 44.6 0 0 1-19.3 3.8c-8.1 0-15.4-1.7-20-4.2-3-1.7-5-3.9-5-6.2v-4.6a23 23 0 0 0 5.7 3.3 51.4 51.4 0 0 0 19.3 3.4A51.4 51.4 0 0 0 60.6 59a27 27 0 0 0 3-1.4 20.3 20.3 0 0 0 2.1-1.5l.6-.4v4.6Zm4.1 0v-7.5a40.2 40.2 0 0 0 6.8-2.1 22.6 22.6 0 0 0 5.7-3.3V52a5.8 5.8 0 0 1-2 4 22.9 22.9 0 0 1-10.5 5v-.7Zm-29 14.5a51.4 51.4 0 0 0 19.2-3.4 22.3 22.3 0 0 0 5.7-3.3v4.6c0 5.8-11.2 10.4-25 10.4s-24.9-4.6-24.9-10.4v-4.6a22.4 22.4 0 0 0 5.7 3.4 51.4 51.4 0 0 0 19.3 3.3Z"/></g></svg>