<svg xmlns="http://www.w3.org/2000/svg" xmlns:xlink="http://www.w3.org/1999/xlink" width="100%"
  viewBox="0 0 100 100">
  <defs><linearGradient id="a" x1="12.4" x2="35.2" y1="63.3" y2="59" gradientUnits="userSpaceOnUse"><stop offset="0" stop-color="#f8c316"/><stop offset="1" stop-color="#ff6f0f"/></linearGradient><linearGradient xlink:href="#a" id="c" x1="68.1" x2="56.6" y1="11.3" y2="38.6"/><linearGradient xlink:href="#a" id="d" x1="79" x2="45.2" y1="27.3" y2="66.7"/><linearGradient id="e" x1="41" x2="66" y1="35.8" y2="94.6" gradientUnits="userSpaceOnUse"><stop offset="0" stop-color="#f8c316"/><stop offset="1" stop-color="#ff8e0f"/></linearGradient><linearGradient id="b" x1="44.8" x2="58.3" y1="40.9" y2="27.1" gradientUnits="userSpaceOnUse"><stop offset="0" stop-color="#fff"/><stop offset="1" stop-color="#fff" stop-opacity="0"/></linearGradient><linearGradient xlink:href="#b" id="f" x1="43.6" x2="32.7" y1="42.6" y2="61.2"/></defs><g data-name="Слой 2" style="isolation:isolate"><path fill="none" d="M0 0h100v100H0z"/><path fill="url(#a)" d="m38.1 55.5 9.3 5.2-8.1.4L30 56l8.1-.5z"/><path fill="#fff" d="m38.6 55.8-.5-.3-8.1.5.4.2 8.2-.4z" opacity=".7" style="mix-blend-mode:overlay"/><path fill="url(#c)" d="m60 16.4 9.3 5.2-9.7 24.2-9.3-5.2L60 16.4z"/><path fill="#fff" d="m60 16.4-9.7 24.2.4.3 9.7-24.3-.4-.2z" opacity=".7" style="mix-blend-mode:overlay"/><path fill="url(#d)" d="m61.2 40 9.3 5.2-33.3 38.7-4-2.2 28-41.7z"/><path fill="url(#e)" d="m61.2 40-28 41.7 4.9-26.2-8.1.5 3.5-26.1L60 16.4l-9.7 24.2 10.9-.6z"/><path fill="#fff" d="m61.2 40-28 41.7.5.2 27.9-41.6-.4-.3z" opacity=".7" style="mix-blend-mode:overlay"/><path fill="url(#b)" d="m60 16.4-19.5 10 14.2 23.4 6.5-9.8-10.9.6L60 16.4z" opacity=".4" style="mix-blend-mode:overlay"/><path fill="url(#f)" d="M39.3 72.6 47 61.2l-14.5-24L30 56l8.1-.5L36 67.1l3.3 5.5z" opacity=".4" style="mix-blend-mode:overlay"/></g>
</svg>