<svg xmlns="http://www.w3.org/2000/svg" width="100%" viewBox="0 0 100 100"><g data-name="Слой 2"><path fill="none" d="M0 0h100v100H0z"/><path fill="#ff9786" d="M19 71.6c-1.3-.4-1.5.9-1.5 1-.2 0-1.4-.4-1.6.9-.1 1 1.5 2.1 3.1 1.6 1.2-1.2 1-3.2 0-3.5Z"/><path fill="#fff" d="M18 72a1 1 0 0 1 1-.3.6.6 0 0 1 .2.3v.1a2.3 2.3 0 0 0-1.2 0Z" opacity=".2"/><path fill="#ff9786" d="M8.8 35.2c-1.2-.4-1.4.9-1.4 1-.2 0-1.4-.4-1.6.9-.1 1 1.5 2.2 3 1.6 1.3-1.2 1-3.1 0-3.5Z"/><path fill="#fff" d="m8 35.7-.2-.1a1 1 0 0 1 1-.2.6.6 0 0 1 .3.2v.1a2.3 2.3 0 0 0-1.2 0Z" opacity=".2"/><path fill="#ff9786" d="M23.5 15.3c-.8-.4-1 .5-1 .6s-1-.4-1.2.4.9 1.6 2 1.3c1-.7.8-2 .2-2.3Z"/><path fill="#fff" d="M22.8 15.6v-.1a.6.6 0 0 1 .7 0 .3.3 0 0 1 .2.1v.1a1.5 1.5 0 0 0-.9-.1Z" opacity=".2"/><path fill="#f73b47" d="M34.5 7.6c-1-.5-1.3.6-1.3.7-.1 0-1.2-.5-1.4.5-.3.9 1 2 2.3 1.7 1.2-.8 1.2-2.5.4-2.9Z"/><path fill="#fff" d="M33.7 8v-.1a.8.8 0 0 1 .8 0 .6.6 0 0 1 .2.2 1.8 1.8 0 0 0-1-.1Z" opacity=".2"/><path fill="#ff9786" d="M9 59.7c-.9-.2-1 .8-1 .9s-1-.1-1 .8c0 .8 1.4 1.4 2.5.8.7-1 .3-2.4-.5-2.5Z"/><path fill="#fff" d="M8.4 60.2V60a.7.7 0 0 1 .6-.3.5.5 0 0 1 .2.1v.1a1.6 1.6 0 0 0-.8.2Z" opacity=".2"/><path fill="#ff9786" d="M10.6 48.5c-1.2-.8-1.9.6-2 .7 0 0-1.4-.8-2 .6-.4 1.2 1.2 2.9 3 2.7h.1c1.7-1 2-3.3.9-4Z"/><path fill="#fff" d="M9.4 48.8a.1.1 0 0 1 0-.2 1 1 0 0 1 1.2.1.7.7 0 0 1 .2.3.1.1 0 0 1-.1.2 2.7 2.7 0 0 0-1.3-.4Z" opacity=".2"/><path fill="#ff9786" d="M21.3 82c-.5-1-1.4-.3-1.5-.2s-.7-1-1.5-.3-.3 2.2 1 2.7c1.5 0 2.4-1.4 2-2.2Z"/><path fill="#fff" d="M20.4 81.7v-.1a.8.8 0 0 1 .8.5.7.7 0 0 1 0 .3h-.1a1.9 1.9 0 0 0-.7-.7Z" opacity=".2"/><path fill="#ff9786" d="M20 23.1c-.5-1.4-1.8-.7-2-.6 0-.2-.6-1.6-2-.8-1 .6-.9 2.9.8 4 2 .2 3.6-1.4 3.2-2.6Z"/><path fill="#fff" d="M19 22.6a.1.1 0 0 1 0-.2 1 1 0 0 1 .9.8.7.7 0 0 1 0 .5.1.1 0 0 1-.2 0 2.6 2.6 0 0 0-.8-1.1Z" opacity=".2"/><path fill="#ff9786" d="M35.8 13c-.5-1.5-2-.7-2.2-.7 0-.1-.7-1.7-2.2-.8-1.2.7-1 3.3.8 4.4 2.3.4 4-1.5 3.6-2.8Z"/><path fill="#fff" d="M34.6 12.5a.1.1 0 0 1 0-.2 1.2 1.2 0 0 1 1 1 .9.9 0 0 1 0 .4.1.1 0 0 1-.2 0 3 3 0 0 0-.8-1.2Z" opacity=".2"/><path fill="#ff7368" d="M8 64.1a.2.2 0 0 0-.4 0 .2.2 0 0 0-.4 0c0 .3.1.6.5.7.4-.1.5-.5.3-.7Z"/><path fill="#ff9786" d="M7.8 64.1a.2.2 0 0 1 .2 0 .5.5 0 0 0-.2 0Z" opacity=".2"/><path fill="#ff7368" d="M42.4 87.3a.5.5 0 0 0-.7.1s-.5-.4-.8 0 .2 1.2 1 1.3c.6-.3.9-1.1.5-1.4Z"/><path fill="#ff9786" d="M42 87.3a.4.4 0 0 1 .4 0 .4.4 0 0 1 .1.2 1 1 0 0 0-.5-.2Z" opacity=".2"/><g fill="#981d36"><path d="M12.6 48.4c-.2-.2-.3 0-.4 0a.2.2 0 0 0-.3 0c-.2.3 0 .7.4.7.4-.1.5-.5.3-.7Z"/><path d="M12.4 48.4a.2.2 0 0 1 .2 0 .3.3 0 0 1 0 .1.6.6 0 0 0-.2 0Z" opacity=".2"/></g><g fill="#981d36"><path d="M10.3 27.8a.3.3 0 0 0-.4 0 .2.2 0 0 0-.4 0c-.1.3 0 .6.4.7.4-.1.5-.6.3-.7Z"/><path d="M10 27.8a.2.2 0 0 1 .2 0 .6.6 0 0 0-.2 0Z" opacity=".2"/></g><g fill="#981d36"><path d="M31.8 16.6c-.2-.2-.4 0-.4 0a.2.2 0 0 0-.4 0c0 .3.1.6.5.7.4-.1.5-.5.3-.7Z"/><path d="M31.6 16.6a.2.2 0 0 1 .2 0s0 0 0 .1a.5.5 0 0 0-.2 0Z" opacity=".2"/></g><path fill="#981d36" d="M20.4 16.6a.2.2 0 0 0-.4 0s-.3-.1-.4 0 .1.6.5.7c.3-.1.4-.6.3-.7Z"/><path fill="#fff" d="M20.1 16.6a.2.2 0 0 1 .3 0v.1a.5.5 0 0 0-.3-.1Z" opacity=".2"/><path fill="#ff9786" d="M43.6 4.6c-.8-.4-1 .5-1 .6s-1-.4-1.2.4 1 1.6 2 1.3c1-.7.9-2 .2-2.3Z"/><path fill="#fff" d="M43 4.9v-.2a.6.6 0 0 1 .6 0 .4.4 0 0 1 .2.2V5a1.4 1.4 0 0 0-.9-.1Z" opacity=".2"/><path fill="#981d36" d="M43.6 8.3c-.3-.3-.5 0-.5.1s-.4-.3-.6 0 .2 1 .7 1c.5-.2.7-.8.4-1Z"/><path fill="#fff" d="M43.3 8.3a.3.3 0 0 1 .3 0 .2.2 0 0 1 0 .2.8.8 0 0 0-.3-.2Z" opacity=".2"/><path fill="#981d36" d="M21.6 24c-.3-.2-.5.1-.5.2a.4.4 0 0 0-.6 0c-.2.4.1 1 .7 1 .5-.2.7-.9.4-1.1Z"/><path fill="#fff" d="M21.3 24.1a.3.3 0 0 1 .3 0 .4.4 0 0 1 .1.1.8.8 0 0 0-.4-.1Z" opacity=".2"/><path fill="#ff4e5b" d="M27.6 11.2a.3.3 0 0 0-.6 0s-.2-.4-.5-.2-.1.8.4 1c.5 0 .8-.5.7-.8Z"/><path fill="#fff" d="M27.2 11.1a.3.3 0 0 1 .3.2.5.5 0 0 0-.3-.2Z" opacity=".2"/><path fill="#ff9786" d="M51.5 94c-.3 0-.3.3-.3.3s-.3 0-.2.3.4.3.7.2c.2-.3 0-.7-.2-.8Z"/><path fill="#fff" d="M51.3 94.2a.2.2 0 0 1 .3-.1.5.5 0 0 0-.3 0Z" opacity=".2"/><g fill="#981d36"><path d="M7.6 52.7c-.6-.2-.6.4-.6.5s-.7-.1-.7.4.8.9 1.4.6c.5-.6.3-1.4-.1-1.5Z"/><path d="M7.2 53v-.1a.4.4 0 0 1 .4-.1.4.4 0 0 1 .2 0s0 .1 0 .1a1 1 0 0 0-.6 0Z" opacity=".2"/></g><path fill="#ff9786" d="M11.5 73a.4.4 0 0 0-.5 0s-.3-.3-.6 0 0 .9.5 1c.5-.1.8-.7.6-1Z"/><path fill="#fff" d="M11.2 73a.3.3 0 0 1 .3 0 .5.5 0 0 1 0 .2.7.7 0 0 0-.3-.2Z" opacity=".2"/><g fill="#981d36"><path d="M16.7 66c-.1-.4-.5-.2-.6-.2s-.1-.5-.5-.3-.4.8 0 1.2c.6.1 1.1-.3 1-.6Z"/><path d="M16.4 65.9a.3.3 0 0 1 .2.2.2.2 0 0 1 0 .1.9.9 0 0 0-.2-.3Z" opacity=".2"/></g><g fill="#981d36"><path d="M39 86.4c-.2-.4-.6-.2-.6-.2s-.2-.4-.6-.2-.2 1 .3 1.2c.6 0 1-.5.9-.8Z"/><path d="M38.6 86.3v-.1a.3.3 0 0 1 .3.2.3.3 0 0 1 0 .1.7.7 0 0 0-.3-.3Z" opacity=".2"/></g><path fill="#981d36" d="M19.2 80c0-.4-.5-.2-.5-.2s-.1-.5-.6-.3-.4.8.1 1.2c.6.2 1.1-.3 1-.6Z"/><path fill="#fff" d="M19 79.9a.3.3 0 0 1 .2.2.3.3 0 0 1 0 .2H19a.9.9 0 0 0-.2-.4Z" opacity=".2"/><g fill="#981d36"><path d="M7.7 47c-.1-.6-.8-.4-.8-.3s-.2-.8-.8-.5-.6 1.2 0 1.8c.9.2 1.7-.4 1.6-1Z"/><path d="M7.2 46.8v-.1a.5.5 0 0 1 .4.4.3.3 0 0 1 0 .2h-.1a1.2 1.2 0 0 0-.3-.5Z" opacity=".2"/></g><path fill="#981d36" d="M14.4 24c-.6-.5-1 .1-1 .2s-.8-.6-1.2 0 .4 1.7 1.4 1.7c1-.3 1.3-1.5.8-1.9Z"/><path fill="#fff" d="M13.8 24v-.1a.6.6 0 0 1 .6.2.4.4 0 0 1 0 .1v.1a1.4 1.4 0 0 0-.6-.3Z" opacity=".2"/><path fill="#981d36" d="M30 9.7c-.7 0-.7.7-.7.7s-.8 0-.7.7 1 1 1.8.5c.5-.8.1-1.8-.5-1.9Z"/><path fill="#fff" d="M29.5 10.1a.5.5 0 0 1 .5-.3.3.3 0 0 1 .2.1 1.3 1.3 0 0 0-.7.2Z" opacity=".2"/><path fill="#981d36" d="M13.3 52.1c-.1-.5-.7-.4-.7-.3s-.2-.6-.7-.4-.5 1 0 1.5c.8.2 1.4-.4 1.4-.8Z"/><path fill="#fff" d="M12.9 51.9v-.1a.4.4 0 0 1 .3.3.3.3 0 0 1 0 .2H13a1 1 0 0 0-.2-.4Z" opacity=".2"/><g fill="#981d36"><path d="M20.5 27c0-.6-.6-.4-.7-.4s-.1-.6-.6-.4-.5 1 0 1.5c.8.2 1.4-.3 1.3-.8Z"/><path d="M20.2 26.7a.4.4 0 0 1 .2.3.4.4 0 0 1 0 .1 1 1 0 0 0-.2-.4Z" opacity=".2"/></g><path fill="#ff4e5b" d="M15.2 62.5c-1.3-1.4-2.5 0-2.6.2-.1-.1-1.5-1.4-2.5 0-.9 1.3.4 3.8 2.7 4.2h.1c2.3-.7 3.3-3.3 2.3-4.4Z"/><path fill="#fff" d="M13.7 62.5a.1.1 0 0 1 0-.3 1.3 1.3 0 0 1 1.4.5.9.9 0 0 1 .2.5.1.1 0 0 1-.2 0 3.2 3.2 0 0 0-1.4-.7Z" opacity=".2"/><path fill="#ff4e5b" d="M40.4 88.6c-.7-1.6-2.3-.6-2.5-.5 0-.2-1-1.8-2.4-.7-1.2.9-.8 3.6 1.3 4.7 2.5.1 4.2-2.1 3.6-3.5Z"/><path fill="#fff" d="M39 88.2a.1.1 0 0 1 0-.3 1.4 1.4 0 0 1 1.3 1 1 1 0 0 1 0 .4.1.1 0 0 1-.3 0 3.3 3.3 0 0 0-1-1.1Z" opacity=".2"/><path fill="#ff4e5b" d="M17.5 26.7c-1.7-1.3-2.8.6-2.9.8-.1-.1-2-1.3-2.9.6-.7 1.6 1.2 4.2 4 4.1h.1c2.5-1.2 3-4.4 1.7-5.5Z"/><path fill="#fff" d="M15.8 27a.1.1 0 0 1 0-.3 1.6 1.6 0 0 1 1.7.3 1 1 0 0 1 .3.5.1.1 0 0 1-.2.2 4 4 0 0 0-1.8-.7Z" opacity=".2"/><path fill="#ff4e5b" d="M40.3 7.4c-2-.7-2.4 1.4-2.5 1.7-.2-.1-2.3-.7-2.5 1.4-.3 1.8 2.4 3.6 5 2.7 2.1-2 1.7-5.2 0-5.8Z"/><path fill="#fff" d="M38.7 8.2a.1.1 0 0 1-.1-.2 1.6 1.6 0 0 1 1.7-.3 1 1 0 0 1 .5.4.1.1 0 0 1-.2.2 3.8 3.8 0 0 0-1.9 0Z" opacity=".2"/><path fill="#ff4e5b" d="M13.7 39c-1-1-1.9.2-2 .3-.1-.1-1.2-1.2-2 0-.7 1 .3 2.9 2.1 3.2h.2c1.7-.5 2.5-2.5 1.7-3.4Z"/><path fill="#fff" d="M12.5 39a.1.1 0 0 1 0-.1 1 1 0 0 1 1.1.3.7.7 0 0 1 .2.4.1.1 0 0 1-.2.1 2.5 2.5 0 0 0-1-.6Z" opacity=".2"/><path fill="#ff4e5b" d="M8.3 55.6c-1-.4-1.2.7-1.2.8S6 56 5.8 57c-.2.9 1 1.9 2.4 1.5 1-.9 1-2.5.2-2.9Z"/><path fill="#fff" d="m7.6 56-.1-.1a.8.8 0 0 1 .8-.1.6.6 0 0 1 .3.2l-.1.1a2 2 0 0 0-1-.1Z" opacity=".2"/><path fill="#ff4e5b" d="M18.5 17.6c-1-.4-1.3.6-1.3.7s-1.1-.4-1.3.7c-.2.8 1 1.8 2.4 1.5 1.1-1 1-2.5.2-2.9Z"/><path fill="#fff" d="M17.7 18v-.2a.8.8 0 0 1 .8 0 .6.6 0 0 1 .2.1v.1a2 2 0 0 0-1 0Z" opacity=".2"/><path fill="#f73b47" d="M18.3 68.8c-.6-1.5-2.2-.7-2.3-.6 0-.2-.8-1.7-2.2-.8-1.2.8-1 3.3 1 4.4 2.2.3 4-1.7 3.4-3Z"/><path fill="#fff" d="M17 68.3a.1.1 0 0 1 0-.2 1.2 1.2 0 0 1 1.1.9.8.8 0 0 1 0 .5.1.1 0 0 1-.2 0 3.2 3.2 0 0 0-.9-1.2Z" opacity=".2"/><path fill="#f73b47" d="M13.4 44.5c-.7-1.8-2.4-.8-2.6-.8 0-.1-.9-1.9-2.4-.9-1.3 1-1 3.8 1 5 2.6.3 4.5-1.9 4-3.3Z"/><path fill="#fff" d="M12 43.9a.1.1 0 0 1 0-.3 1.4 1.4 0 0 1 1.2 1 1 1 0 0 1 0 .6.1.1 0 0 1-.3 0 3.3 3.3 0 0 0-1-1.3Z" opacity=".2"/><path fill="#f73b47" d="M25.3 18.7c-1.3-1.4-2.6.1-2.7.3-.1-.1-1.5-1.5-2.6 0-1 1.3.4 4 2.8 4.4h.1c2.4-.7 3.5-3.5 2.4-4.7Z"/><path fill="#fff" d="M23.7 18.7a.1.1 0 0 1 0-.2 1.4 1.4 0 0 1 1.5.5 1 1 0 0 1 .2.5.1.1 0 0 1-.2 0 3.4 3.4 0 0 0-1.5-.8Z" opacity=".2"/><path fill="#f73b47" d="M9.1 66.2c-.6-.4-.9.2-.9.3s-.7-.4-1 .3.6 1.3 1.5 1.2c.8-.5.9-1.5.4-1.8Z"/><path fill="#fff" d="M8.6 66.3a.5.5 0 0 1 .5 0 .3.3 0 0 1 .1 0s0 .1 0 .1a1.2 1.2 0 0 0-.6-.1Z" opacity=".2"/><path fill="#f73b47" d="M15.9 75.2c-1 0-.9 1-.8 1s-1.1 0-1 1 1.6 1.2 2.6.4c.6-1 0-2.4-.8-2.4Z"/><path fill="#fff" d="M15.3 75.8v-.1a.7.7 0 0 1 .6-.4.5.5 0 0 1 .3.1v.1a1.7 1.7 0 0 0-.9.3Z" opacity=".2"/><path fill="#f73b47" d="M10.2 29.4c-1.1-.3-1.3.9-1.3 1s-1.3-.3-1.3.9c0 1 1.5 1.9 2.9 1.3 1-1.2.6-3-.3-3.2Z"/><path fill="#fff" d="m9.4 29.9-.1-.1a.9.9 0 0 1 1-.3.6.6 0 0 1 .2.2v.1a2.1 2.1 0 0 0-1.1 0Z" opacity=".2"/><path fill="#f73b47" d="M13.3 54.5c-.4-1-1.5-.5-1.6-.5 0-.1-.5-1.2-1.5-.6-.8.5-.7 2.3.6 3.1 1.5.3 2.8-1 2.5-2Z"/><path fill="#fff" d="M12.4 54.1V54a1 1 0 0 1 .8.6.8.8 0 0 1 0 .4H13a2 2 0 0 0-.6-.9Z" opacity=".2"/><path fill="#981d36" d="M11.7 68.1c-1.2-.6-1.6.8-1.6 1-.1-.1-1.4-.7-1.7.7-.3 1 1.3 2.4 3 2 1.4-1.1 1.3-3.2.3-3.7Z"/><path fill="#fff" d="M10.7 68.5a.1.1 0 0 1 0-.1 1 1 0 0 1 1-.1.7.7 0 0 1 .3.3l-.1.1a2.3 2.3 0 0 0-1.2-.2Z" opacity=".3"/><path fill="#981d36" d="M22.5 75.3c-1.3-1-2.2.5-2.2.7-.2-.1-1.6-1-2.3.4-.6 1.3 1 3.3 3.1 3.3 2-1 2.5-3.5 1.4-4.4Z"/><path fill="#fff" d="M21.1 75.6a.1.1 0 0 1 0-.3 1.2 1.2 0 0 1 1.3.3.9.9 0 0 1 .3.3.1.1 0 0 1-.2.2 3 3 0 0 0-1.4-.5Z" opacity=".3"/><path fill="#981d36" d="M33.5 89.4c-1-.2-1 .8-1 1s-1-.2-1 .8c0 .9 1.4 1.5 2.6 1 .7-1.2.3-2.7-.6-2.8Z"/><path fill="#fff" d="M32.9 89.8h-.1a.7.7 0 0 1 .8-.3.6.6 0 0 1 .2.1v.1a1.8 1.8 0 0 0-1 .1Z" opacity=".3"/><path fill="#981d36" d="M15.3 32.8c-1.6-1.1-2.5.6-2.6.8-.1-.1-1.8-1.2-2.6.6-.6 1.4 1.2 3.8 3.7 3.7 2.3-1.1 2.7-4.1 1.5-5Z"/><path fill="#fff" d="M13.7 33.1a.1.1 0 0 1 0-.2 1.4 1.4 0 0 1 1.5.2 1 1 0 0 1 .3.4.1.1 0 0 1-.2.2 3.5 3.5 0 0 0-1.6-.6Z" opacity=".3"/><path fill="#981d36" d="M28.9 13c-2-.6-2.2 1.6-2.2 1.8-.2 0-2.4-.4-2.3 1.7 0 1.8 2.8 3.3 5.2 2.1 1.8-2.1 1-5.3-.7-5.7Z"/><path fill="#fff" d="M27.5 13.9a.1.1 0 0 1-.2-.3 1.5 1.5 0 0 1 1.6-.4 1.2 1.2 0 0 1 .5.3.1.1 0 0 1 0 .2 3.8 3.8 0 0 0-2 .2Z" opacity=".3"/><path fill="#981d36" d="M14 57.8c-1-1.1-2 0-2.2.2 0-.1-1.1-1.3-2 0-.8 1 .2 3.1 2.1 3.5h.1c1.9-.5 2.7-2.7 2-3.7Z"/><path fill="#fff" d="M12.7 57.8a.1.1 0 0 1 0-.2 1.1 1.1 0 0 1 1.2.4.8.8 0 0 1 .1.4.1.1 0 0 1-.2.1 2.6 2.6 0 0 0-1-.7Z" opacity=".3"/><path fill="#981d36" d="M8.4 39.6c-.9-.3-1.2.6-1.2.7s-1-.3-1.2.6 1 1.7 2.2 1.3c1-.9 1-2.3.2-2.6Z"/><path fill="#fff" d="M7.7 40c-.1 0-.1-.1 0-.2a.8.8 0 0 1 .8 0 .4.4 0 0 1 .2 0l-.1.2a1.8 1.8 0 0 0-1 0Z" opacity=".3"/><path fill="#ff9786" d="M35 84.7c-1-1.1-2 0-2.1.2-.1-.1-1.3-1.1-2 0-.8 1 .3 3 2.2 3.4 1.9-.5 2.7-2.7 1.8-3.6Z"/><path fill="#fff" d="M33.7 84.7a.1.1 0 0 1 0-.2 1.1 1.1 0 0 1 1.2.4.8.8 0 0 1 .1.3.1.1 0 0 1-.1.1 2.6 2.6 0 0 0-1.2-.6Z" opacity=".2"/><path fill="#981d36" d="M32.1 83.4c0-.2-.3 0-.3 0s-.2-.3-.4-.2-.1.6.2.8c.4 0 .6-.4.5-.6Z"/><path fill="#fff" d="M32 83.3a.2.2 0 0 1 .1.2.5.5 0 0 0-.2-.2Z" opacity=".2"/><path fill="#ff9786" d="M27.5 80.2a.3.3 0 0 0-.5 0s-.3-.3-.5 0 0 .8.4 1c.5-.2.8-.7.6-1Z"/><path fill="#fff" d="M27.2 80.2a.3.3 0 0 1 .3.1.2.2 0 0 1 0 .1.8.8 0 0 0-.3-.2Z" opacity=".2"/><path fill="#f13195" d="M41 92a.3.3 0 0 0-.5 0s-.3-.3-.6 0 0 .8.5 1c.5-.1.7-.7.6-1Z"/><path fill="#fff" d="M40.6 92a.3.3 0 0 1 .3 0 .3.3 0 0 1 0 .2.8.8 0 0 0-.3-.2Z" opacity=".2"/><path fill="#981d36" d="M29.8 87.8c-.6-.1-.6.6-.6.6s-.8 0-.8.6 1 1 1.8.6c.5-.7.2-1.7-.4-1.8Z"/><path fill="#fff" d="M29.4 88.2V88a.5.5 0 0 1 .5-.2.4.4 0 0 1 .1.1 1.2 1.2 0 0 0-.6.2Z" opacity=".2"/><path fill="#981d36" d="M54.6 93.3c-.2-.6-.8-.4-.9-.4s-.2-.7-.8-.4-.5 1.2.1 1.8c.9.2 1.7-.4 1.6-1Z"/><path fill="#fff" d="M54.1 93a.5.5 0 0 1 .3.4.3.3 0 0 1 0 .2 1.1 1.1 0 0 0-.3-.5Z" opacity=".2"/><path fill="#ff4e5b" d="M24.8 78c-1.4-.3-1.6 1-1.6 1.3-.2 0-1.6-.4-1.7 1 0 1.1 1.8 2.3 3.5 1.6 1.3-1.3 1-3.5-.2-3.8Z"/><path fill="#fff" d="M23.8 78.7a.1.1 0 0 1-.1-.2 1 1 0 0 1 1.1-.2.7.7 0 0 1 .3.2.1.1 0 0 1 0 .2 2.4 2.4 0 0 0-1.3 0Z" opacity=".2"/><path fill="#f73b47" d="M29.7 81.5c-1.6-1-2.3.8-2.4 1-.2-.1-2-1-2.5.8-.4 1.5 1.6 3.6 4 3.2 2.1-1.4 2.2-4.3.9-5Z"/><path fill="#fff" d="M28.2 82a.1.1 0 0 1 0-.3 1.4 1.4 0 0 1 1.5 0 1 1 0 0 1 .3.4.1.1 0 0 1-.1.2 3.4 3.4 0 0 0-1.7-.4Z" opacity=".2"/><path fill="#981d36" d="M22.6 83.9c-1 0-.7 1-.7 1s-1 0-.8 1 1.6 1.1 2.5.3c.5-1-.2-2.3-1-2.3Z"/><path fill="#fff" d="M22.1 84.5s-.1 0 0-.1a.6.6 0 0 1 .6-.4.5.5 0 0 1 .2 0s0 .2 0 .2a1.6 1.6 0 0 0-.8.3Z" opacity=".3"/><path fill="#ff4e5b" d="M15.2 73.2c-.2-1-1.1-.5-1.2-.5s-.4-1-1.2-.5-.7 1.8.3 2.5c1.3.2 2.3-.8 2.1-1.5Z"/><path fill="#fff" d="M14.5 72.8a.7.7 0 0 1 .6.5.6.6 0 0 1 0 .2H15a1.6 1.6 0 0 0-.5-.7Z" opacity=".3"/><path fill="#ff4e5b" d="M21 74.3a.3.3 0 0 0-.4 0s-.2-.3-.5 0 0 .6.4.8c.5-.1.8-.6.6-.8Z"/><path fill="#fff" d="M20.8 74.3a.2.2 0 0 1 .3 0 .2.2 0 0 1 0 .2.6.6 0 0 0-.3-.3Z" opacity=".3"/><path fill="#ff9786" d="M82.3 71.4c1.2-.4 1.5.9 1.5 1 .1 0 1.4-.4 1.5.9.2 1-1.5 2.2-3 1.6-1.3-1.2-1-3.1 0-3.5Z"/><path fill="#fff" d="M83.3 71.9v-.2a1 1 0 0 0-1-.1.7.7 0 0 0-.2.2v.1a2.3 2.3 0 0 1 1.2 0Z" opacity=".2"/><path fill="#ff9786" d="M92.4 35c1.2-.4 1.5.9 1.5 1 .1 0 1.4-.4 1.6.9 0 1-1.6 2.2-3.1 1.6-1.3-1.2-1-3.1 0-3.5Z"/><path fill="#fff" d="M93.4 35.5v-.1a1 1 0 0 0-1-.2.6.6 0 0 0-.3.2l.1.2a2.4 2.4 0 0 1 1.2 0Z" opacity=".2"/><path fill="#ff9786" d="M77.8 15.1c.7-.4 1 .5 1 .6s1-.4 1.1.5-.8 1.5-2 1.3c-.8-.8-.8-2-.1-2.4Z"/><path fill="#fff" d="M78.4 15.4s.1 0 0-.1a.6.6 0 0 0-.7 0 .6.6 0 0 0-.1.1s0 .1 0 .1a1.5 1.5 0 0 1 .8-.1Z" opacity=".2"/><path fill="#ff9786" d="M57 10.6c.7-.3 1 .4 1 .5s.7-.3.9.4-.7 1.3-1.7 1.1c-.7-.6-.7-1.7-.2-2Z"/><path fill="#fff" d="M57.6 10.9v-.1a.5.5 0 0 0-.6 0 .4.4 0 0 0-.1.1s0 .1 0 0a1.4 1.4 0 0 1 .7 0Z" opacity=".2"/><path fill="#f73b47" d="M66.8 7.4c1-.5 1.3.6 1.3.7.1 0 1.1-.5 1.4.5.3 1-1 2-2.4 1.8-1.1-.9-1.1-2.6-.3-3Z"/><path fill="#fff" d="M67.6 7.8v-.1a.8.8 0 0 0-.9 0 .6.6 0 0 0-.2.2 2 2 0 0 1 1-.1Z" opacity=".2"/><path fill="#ff9786" d="M92.7 59.4c1-.2 1 .8 1 .9s1-.1 1 .8-1.4 1.4-2.4.8c-.8-1-.3-2.4.4-2.5Z"/><path fill="#fff" d="M93.3 59.8h.1a.7.7 0 0 0-.7-.3.5.5 0 0 0-.2.1v.1a1.6 1.6 0 0 1 .8.1Z" opacity=".2"/><path fill="#ff9786" d="M90.7 48.4c1.2-.9 1.8.5 2 .7 0-.1 1.4-.9 2 .5.4 1.2-1.1 2.9-3 2.7-1.8-1-2-3.3-1-4Z"/><path fill="#fff" d="M91.8 48.6a.1.1 0 0 0 .1-.2 1 1 0 0 0-1.2.1.9.9 0 0 0-.3.4.1.1 0 0 0 .2.1 2.6 2.6 0 0 1 1.3-.4Z" opacity=".2"/><path fill="#ff9786" d="M80 81.8c.5-1 1.4-.3 1.5-.2 0-.1.6-1 1.5-.4s.3 2.3-1 2.8c-1.5 0-2.5-1.4-2-2.2Z"/><path fill="#fff" d="M80.8 81.6v-.2a.8.8 0 0 0-.7.5.5.5 0 0 0 0 .3s0 .1.1 0a2 2 0 0 1 .6-.6Z" opacity=".2"/><path fill="#ff9786" d="M58.2 87.8c.8-.4 1 .5 1 .6s1-.4 1.2.5-1 1.7-2 1.3c-1-.7-1-2.1-.2-2.4Z"/><path fill="#fff" d="M58.8 88c.1 0 .1 0 0 0a.7.7 0 0 0-.7-.1.6.6 0 0 0-.2.2 1.6 1.6 0 0 1 1 0Z" opacity=".2"/><path fill="#ff9786" d="M81.2 23c.5-1.5 1.9-.8 2-.7 0-.2.7-1.6 2-.8 1 .6.9 3-.7 4-2 .3-3.7-1.4-3.3-2.6Z"/><path fill="#fff" d="M82.3 22.4a.1.1 0 0 0 0-.2 1.1 1.1 0 0 0-1 .9.8.8 0 0 0 0 .4.1.1 0 0 0 .3 0 2.6 2.6 0 0 1 .7-1Z" opacity=".2"/><path fill="#f73b47" d="M56.6 6.7c.4-1.1 1.4-.6 1.5-.5s.5-1.2 1.5-.6.7 2.2-.5 3H59c-1.5.3-2.7-1-2.4-2Z"/><path fill="#fff" d="M57.5 6.3v-.1a.8.8 0 0 0-.8.6.5.5 0 0 0 0 .3h.2a2.1 2.1 0 0 1 .6-.8Z" opacity=".2"/><path fill="#ff9786" d="M51.3 5.5c.4-1.1 1.4-.6 1.6-.5 0-.1.4-1.2 1.4-.6.9.5.8 2.3-.5 3-1.5.3-2.8-1-2.5-1.9Z"/><path fill="#fff" d="M52.2 5.1V5a.9.9 0 0 0-.8.7.6.6 0 0 0 0 .3h.2a2 2 0 0 1 .6-.9Z" opacity=".2"/><path fill="#ff9786" d="M65.4 13c.6-1.7 2.1-.9 2.3-.8 0-.2.7-1.8 2.1-1 1.2.8 1 3.4-.8 4.6-2.2.3-4-1.6-3.6-2.9Z"/><path fill="#fff" d="M66.7 12.3a.1.1 0 0 0 0-.2 1.2 1.2 0 0 0-1 1 .9.9 0 0 0 0 .4.1.1 0 0 0 .1 0 3 3 0 0 1 .9-1.2Z" opacity=".2"/><path fill="#ff7368" d="M93.2 64c.2-.3.4 0 .4 0s.3-.2.4 0-.1.6-.5.6c-.3 0-.4-.5-.3-.7Z"/><path fill="#fff" d="M93.5 64a.2.2 0 0 0-.3 0 .3.3 0 0 0 0 .1.6.6 0 0 1 .3-.1Z" opacity=".2"/><path fill="#ff7368" d="M74.3 88c.2-.3.4 0 .4 0s.3-.2.4 0-.1.6-.5.6c-.3-.1-.4-.5-.3-.7Z"/><path fill="#fff" d="M74.6 88a.2.2 0 0 0-.3 0 .5.5 0 0 1 .3 0Z" opacity=".2"/><path fill="#ff9786" d="M59.8 87.1c.2-.2.4 0 .4.1s.3-.2.4 0-.1.6-.5.6c-.3-.1-.4-.5-.3-.7Z"/><path fill="#fff" d="M60 87.1a.2.2 0 0 0-.1.1.5.5 0 0 1 .2 0Z" opacity=".2"/><path fill="#981d36" d="M88.6 48.2a.2.2 0 0 1 .4.1s.3-.2.4 0-.1.6-.5.6c-.3 0-.4-.5-.3-.7Z"/><path fill="#fff" d="M88.9 48.3a.2.2 0 0 0-.3 0 .5.5 0 0 1 .3 0Z" opacity=".2"/><path fill="#981d36" d="M91 27.6c.2-.2.4 0 .4 0s.2-.1.4 0-.1.6-.5.7c-.3-.1-.5-.5-.3-.7Z"/><path fill="#fff" d="M91.3 27.6a.2.2 0 0 0-.3 0s0 0 0 .1a.5.5 0 0 1 .3 0Z" opacity=".2"/><g fill="#981d36"><path d="M69.5 16.4a.2.2 0 0 1 .3.1s.3-.2.4 0 0 .6-.4.6c-.4-.1-.5-.5-.3-.7Z"/><path d="M69.7 16.4a.2.2 0 0 0-.2 0v.2a.5.5 0 0 1 .2-.2Z" opacity=".2"/></g><path fill="#981d36" d="M57.8 9.6c.2-.2.4 0 .4.1s.2-.2.4 0-.1.6-.5.6-.5-.5-.3-.7Z"/><path fill="#fff" d="M58 9.7a.2.2 0 0 0-.2 0 .6.6 0 0 1 .2 0Z" opacity=".2"/><g fill="#981d36"><path d="M80.9 16.4c.2-.2.4 0 .4 0a.2.2 0 0 1 .4 0c0 .3-.1.7-.5.7-.4-.1-.5-.5-.3-.7Z"/><path d="M81.1 16.4a.2.2 0 0 0-.2 0 .3.3 0 0 0 0 .2.6.6 0 0 1 .2-.2Z" opacity=".2"/></g><path fill="#981d36" d="M79.6 23.9c.3-.3.6 0 .6.1a.4.4 0 0 1 .6 0c.2.4-.2 1-.7 1-.6-.2-.7-.9-.5-1.1Z"/><path fill="#fff" d="M80 24v-.1a.3.3 0 0 0-.3 0 .2.2 0 0 0-.1.2.7.7 0 0 1 .4-.2Z" opacity=".2"/><path fill="#ff7368" d="M94.8 42.8a.3.3 0 0 1 .6 0s.2-.4.5-.1 0 .8-.4 1c-.5 0-.8-.6-.7-.9Z"/><path fill="#ff9786" d="M95.1 42.8a.3.3 0 0 0-.2.1.2.2 0 0 0 0 .1.7.7 0 0 1 .2-.2Z" opacity=".2"/><path fill="#ff4e5b" d="M73.7 11c.2-.3.5-.1.5 0s.3-.5.6-.2 0 .8-.4 1c-.5 0-.8-.5-.7-.8Z"/><path fill="#fff" d="M74 11a.3.3 0 0 0-.3.1.4.4 0 0 0 0 .1.8.8 0 0 1 .3-.2Z" opacity=".2"/><path fill="#ff7368" d="M84.3 78.7c.2 0 .2.3.2.3s.3 0 .3.3-.4.4-.7.2c-.2-.3-.1-.7.2-.8Z"/><path fill="#fff" d="M84.4 78.9a.2.2 0 0 0-.2 0 .6.6 0 0 1 .2 0Z" opacity=".2"/><path fill="#981d36" d="M93.7 52.5c.5-.1.6.5.6.5s.6-.1.6.4-.7 1-1.3.6c-.5-.5-.3-1.4.1-1.5Z"/><path fill="#fff" d="M94 52.8v-.1a.4.4 0 0 0-.3-.1.2.2 0 0 0-.2 0v.1a1 1 0 0 1 .6 0Z" opacity=".2"/><path fill="#ff9786" d="M89.7 72.9a.4.4 0 0 1 .6 0 .4.4 0 0 1 .6 0c.2.2 0 .8-.5 1-.6-.2-.9-.7-.7-1Z"/><path fill="#fff" d="M90 72.8a.3.3 0 0 0-.2.2.7.7 0 0 1 .3-.2Z" opacity=".2"/><path fill="#981d36" d="M84.6 65.9a.4.4 0 0 1 .6-.3s0-.5.5-.3.4.8 0 1.2c-.6.2-1.2-.3-1.1-.6Z"/><path fill="#fff" d="M85 65.7a.3.3 0 0 0-.3.3 1 1 0 0 1 .2-.3Z" opacity=".2"/><path fill="#981d36" d="M62.3 86.2a.4.4 0 0 1 .6-.1s.2-.5.6-.2.2.9-.3 1.1c-.6 0-1-.5-1-.8Z"/><path fill="#fff" d="M62.6 86a.3.3 0 0 0-.3.3.2.2 0 0 0 0 .1h.1a.8.8 0 0 1 .2-.3Z" opacity=".2"/><path fill="#981d36" d="M82 79.9c0-.4.5-.3.6-.3s0-.5.5-.3.4.9 0 1.2c-.6.2-1.1-.2-1.1-.6Z"/><path fill="#fff" d="M82.3 79.7a.3.3 0 0 0-.2.3.3.3 0 0 0 0 .1.8.8 0 0 1 .2-.4Z" opacity=".2"/><path fill="#981d36" d="M93.6 46.9c.1-.7.7-.4.8-.4s.2-.7.8-.5.6 1.3 0 1.8c-1 .3-1.7-.4-1.6-1Z"/><path fill="#fff" d="M94 46.6a.5.5 0 0 0-.3.3.3.3 0 0 0 0 .2 1.3 1.3 0 0 1 .3-.5Z" opacity=".2"/><path fill="#981d36" d="M86.9 23.8c.5-.5 1 .1 1 .2s.7-.6 1.1 0-.3 1.7-1.3 1.7c-1-.3-1.3-1.5-.8-2Z"/><path fill="#fff" d="M87.5 23.8a.6.6 0 0 0-.6 0 .5.5 0 0 0-.1.3 1.5 1.5 0 0 1 .7-.3Z" opacity=".2"/><g fill="#981d36"><path d="M71.3 9.6c.7-.1.7.6.7.7s.8 0 .7.6-1 1-1.8.5c-.5-.8-.1-1.8.4-1.8Z"/><path d="M71.8 10v-.1a.5.5 0 0 0-.5-.3.4.4 0 0 0-.2.1v.1a1.2 1.2 0 0 1 .7.1Z" opacity=".2"/></g><path fill="#981d36" d="M64 7.3c.1-.6.7-.4.8-.4s.1-.6.7-.4.5 1.1-.1 1.6c-.8.2-1.5-.3-1.4-.8Z"/><path fill="#fff" d="M64.4 7a.4.4 0 0 0-.3.3.2.2 0 0 0 0 .2 1.1 1.1 0 0 1 .3-.5Z" opacity=".2"/><path fill="#981d36" d="M42 11.3c0-1 1-.6 1.1-.6s.3-1 1.1-.7.9 1.8 0 2.6c-1.3.4-2.4-.5-2.3-1.3Z"/><path fill="#fff" d="M42.6 10.9v-.1a.7.7 0 0 0-.6.6.4.4 0 0 0 0 .2h.1a1.6 1.6 0 0 1 .5-.7Z" opacity=".2"/><path fill="#981d36" d="M88 52c.1-.6.6-.4.7-.4s.1-.6.7-.4.4 1-.1 1.5c-.7.2-1.4-.3-1.3-.8Z"/><path fill="#fff" d="M88.4 51.7a.4.4 0 0 0-.3.3.3.3 0 0 0 0 .1 1 1 0 0 1 .3-.4Z" opacity=".2"/><g fill="#981d36"><path d="M80.7 26.7c.1-.5.7-.3.7-.3s.2-.6.7-.4.5 1 0 1.5c-.8.2-1.5-.3-1.4-.8Z"/><path d="M81.1 26.5a.4.4 0 0 0-.3.3.3.3 0 0 0 0 .1 1.1 1.1 0 0 1 .3-.4Z" opacity=".2"/></g><path fill="#ff4e5b" d="M86.4 62.4c1.2-1.4 2.4 0 2.5.2.2-.1 1.5-1.4 2.6 0 .9 1.3-.4 3.8-2.8 4.2-2.3-.7-3.3-3.3-2.3-4.4Z"/><path fill="#fff" d="M88 62.4a.1.1 0 0 0 0-.3 1.3 1.3 0 0 0-1.5.5 1 1 0 0 0-.2.5.1.1 0 0 0 .2 0 3.2 3.2 0 0 1 1.4-.7Z" opacity=".2"/><path fill="#ff4e5b" d="M60.9 88.5c.7-1.7 2.3-.7 2.4-.6.1-.1 1-1.8 2.5-.7 1.2.9.7 3.7-1.4 4.7-2.4.1-4.2-2-3.5-3.4Z"/><path fill="#fff" d="M62.3 88a.1.1 0 0 0 0-.2 1.4 1.4 0 0 0-1.3.8 1 1 0 0 0 0 .6.1.1 0 0 0 .2 0 3.1 3.1 0 0 1 1-1.2Z" opacity=".2"/><path fill="#ff4e5b" d="M83.8 26.6c1.6-1.4 2.7.5 2.8.7.2-.1 2-1.3 3 .6.7 1.6-1.3 4.2-4 4.2-2.6-1.3-3.2-4.5-1.8-5.6Z"/><path fill="#fff" d="M85.5 26.8a.1.1 0 0 0 0-.3 1.6 1.6 0 0 0-1.7.3 1 1 0 0 0-.3.5.1.1 0 0 0 .2.2 3.8 3.8 0 0 1 1.8-.7Z" opacity=".2"/><path fill="#ff4e5b" d="M60.8 7.7c2-.7 2.4 1.4 2.4 1.6.2 0 2.3-.6 2.6 1.5.2 1.8-2.5 3.6-5 2.7h-.1c-2-2-1.6-5.2 0-5.8Z"/><path fill="#fff" d="M62.3 8.5a.1.1 0 0 0 .1-.2 1.6 1.6 0 0 0-1.7-.3 1 1 0 0 0-.4.4.1.1 0 0 0 .1.2 3.8 3.8 0 0 1 1.9-.1Z" opacity=".2"/><path fill="#ff4e5b" d="M87.6 38.8c1-1 2 0 2 .1.1 0 1.2-1 2 0 .7 1-.3 3-2.1 3.2h-.1c-1.8-.4-2.6-2.5-1.8-3.4Z"/><path fill="#fff" d="M88.8 38.7v-.2a1 1 0 0 0-1 .4.7.7 0 0 0-.2.4s0 .1.1 0a2.7 2.7 0 0 1 1.1-.6Z" opacity=".2"/><path fill="#ff4e5b" d="M93 55.5c1-.5 1.2.6 1.2.7s1.1-.4 1.3.6c.2.9-1 1.9-2.4 1.5-1.1-.9-1-2.5-.2-2.8Z"/><path fill="#fff" d="M93.7 55.8v-.1a.8.8 0 0 0-.8-.1.5.5 0 0 0-.2.2v.1a1.8 1.8 0 0 1 1 0Z" opacity=".2"/><path fill="#ff4e5b" d="M82.8 17.4c1-.4 1.2.7 1.2.8s1.2-.4 1.4.6c.1.9-1.1 1.9-2.5 1.5-1-.9-.9-2.5-.1-2.9Z"/><path fill="#fff" d="M83.6 17.8v-.2a.8.8 0 0 0-.8 0 .5.5 0 0 0-.3.2h.1a1.9 1.9 0 0 1 1 0Z" opacity=".2"/><path fill="#f73b47" d="M83.3 68.7c.5-1.5 2-.7 2.1-.6 0-.1.8-1.6 2.1-.7 1.2.7.9 3.2-1 4.2-2 .2-3.7-1.6-3.3-2.9Z"/><path fill="#fff" d="M84.5 68.2a.1.1 0 0 0-.1-.2 1.2 1.2 0 0 0-1 .9.8.8 0 0 0 0 .4.1.1 0 0 0 .2 0 2.8 2.8 0 0 1 .9-1Z" opacity=".2"/><path fill="#f73b47" d="M88.2 44.3c.7-1.8 2.4-.8 2.5-.7.1-.2 1-2 2.5-1 1.3 1 1 3.8-1.1 5H92c-2.4.3-4.3-1.9-3.8-3.3Z"/><path fill="#fff" d="M89.6 43.7a.1.1 0 0 0 0-.2 1.4 1.4 0 0 0-1.2 1 .9.9 0 0 0 0 .5.1.1 0 0 0 .2 0 3.3 3.3 0 0 1 1-1.3Z" opacity=".2"/><path fill="#f73b47" d="M76 18.6c1.3-1.5 2.5 0 2.7.2.1-.1 1.5-1.5 2.6 0 1 1.4-.4 4-2.8 4.4h-.1c-2.4-.7-3.5-3.4-2.4-4.6Z"/><path fill="#fff" d="M77.5 18.5a.1.1 0 0 0 0-.2 1.4 1.4 0 0 0-1.4.5 1 1 0 0 0-.3.5.1.1 0 0 0 .3.1 3.4 3.4 0 0 1 1.5-.9Z" opacity=".2"/><path fill="#f73b47" d="M45.8 5.4c2.1-1 2.8 1.3 2.9 1.6.2-.1 2.5-1 3 1.3.4 2-2.4 4.3-5.4 3.5-2.5-2-2.3-5.6-.5-6.4Z"/><path fill="#fff" d="M47.6 6.1a.2.2 0 0 0 .1-.3 1.8 1.8 0 0 0-1.9-.1 1.2 1.2 0 0 0-.5.4.2.2 0 0 0 .2.3 4.2 4.2 0 0 1 2-.3Z" opacity=".2"/><path fill="#f73b47" d="M92.2 66c.5-.4.8.3.9.4s.7-.4.9.2-.5 1.4-1.4 1.3c-.8-.6-1-1.6-.4-1.9Z"/><path fill="#fff" d="M92.7 66.1a.5.5 0 0 0-.5 0 .4.4 0 0 0-.2 0s0 .2.1.1a1.3 1.3 0 0 1 .6 0Z" opacity=".2"/><path fill="#f73b47" d="M85.4 75c1 0 .8 1 .8 1s1 0 .9 1c-.2.8-1.6 1.2-2.5.4-.6-1 0-2.3.8-2.4Z"/><path fill="#fff" d="M86 75.6a.7.7 0 0 0-.6-.4.6.6 0 0 0-.3 0v.2a1.7 1.7 0 0 1 .8.2Z" opacity=".2"/><path fill="#f73b47" d="M91 29.2c1.2-.3 1.3.9 1.3 1s1.4-.3 1.4 1c0 1-1.5 1.8-3 1.2-1-1.2-.6-3 .4-3.2Z"/><path fill="#fff" d="M91.9 29.7v-.1a.9.9 0 0 0-.9-.3.6.6 0 0 0-.2.2v.2a2 2 0 0 1 1 0Z" opacity=".2"/><path fill="#f73b47" d="M88.3 54.5c.4-1.1 1.5-.6 1.6-.5 0-.1.5-1.3 1.5-.7.9.6.8 2.4-.5 3.2-1.6.3-2.9-1-2.6-2Z"/><path fill="#fff" d="M89.2 54.1V54a.9.9 0 0 0-.7.6.7.7 0 0 0 0 .3h.1a2.1 2.1 0 0 1 .6-.8Z" opacity=".2"/><path fill="#981d36" d="M89.5 68c1.3-.6 1.7.8 1.7.9.1 0 1.4-.6 1.7.7.2 1.1-1.4 2.5-3 2-1.5-1-1.4-3.2-.4-3.6Z"/><path fill="#fff" d="M90.6 68.3v-.1a1 1 0 0 0-1 0 .7.7 0 0 0-.3.2v.1a2.5 2.5 0 0 1 1.3-.2Z" opacity=".3"/><path fill="#981d36" d="M78.5 75.6c1-1.2 2 0 2.2.2 0-.1 1.2-1.3 2.2 0 .8 1-.3 3.3-2.3 3.7-2-.5-3-2.8-2.1-3.9Z"/><path fill="#fff" d="M79.8 75.6a.1.1 0 0 0 0-.2 1.2 1.2 0 0 0-1.3.4 1 1 0 0 0-.1.4.1.1 0 0 0 .1.1 3 3 0 0 1 1.3-.7Z" opacity=".3"/><path fill="#981d36" d="M57.7 91c1.2-1 2 .4 2 .6.1-.1 1.4-1 2 .4.5 1.1-.9 3-2.8 3-1.8-1-2.2-3.2-1.2-4Z"/><path fill="#fff" d="M59 91.2a.1.1 0 0 0 0-.2 1.1 1.1 0 0 0-1.3.2 1 1 0 0 0-.2.3.1.1 0 0 0 .1.2 2.7 2.7 0 0 1 1.3-.5Z" opacity=".3"/><path fill="#981d36" d="M41.3 90.2c.1-1.6 1.7-1.3 1.9-1.3 0-.1.2-1.7 1.8-1.3 1.2.4 1.7 2.8.3 4.3-2 .8-4-.4-4-1.8Z"/><path fill="#fff" d="M42.3 89.3a.1.1 0 0 0 0-.1 1.1 1.1 0 0 0-.8 1 .8.8 0 0 0 .1.5.1.1 0 0 0 .2 0 2.9 2.9 0 0 1 .5-1.4Z" opacity=".3"/><path fill="#981d36" d="M67.7 89.2c1-.2 1 .8 1 1s1.2-.2 1.1.8c0 .8-1.4 1.5-2.6.9-.8-1.1-.3-2.6.5-2.7Z"/><path fill="#fff" d="M68.4 89.7v-.1a.7.7 0 0 0-.7-.3.5.5 0 0 0-.3.1v.2a1.7 1.7 0 0 1 1 0Z" opacity=".3"/><path fill="#981d36" d="M86.4 32.4c1.5-1.2 2.4.6 2.5.7.2 0 1.9-1.2 2.6.6.7 1.5-1.2 3.8-3.6 3.7-2.3-1.1-2.8-4-1.5-5Z"/><path fill="#fff" d="M88 32.6a.1.1 0 0 0 0-.2 1.4 1.4 0 0 0-1.5.2 1 1 0 0 0-.4.4.1.1 0 0 0 .2.2 3.3 3.3 0 0 1 1.6-.6Z" opacity=".3"/><path fill="#981d36" d="M72.4 12.8c2-.5 2.2 1.6 2.2 1.8.2 0 2.3-.4 2.3 1.7 0 1.8-2.8 3.3-5.3 2.1-1.8-2.1-.9-5.2.8-5.6Z"/><path fill="#fff" d="M73.8 13.7a.1.1 0 0 0 .2-.2 1.5 1.5 0 0 0-1.7-.5 1 1 0 0 0-.5.3.1.1 0 0 0 .1.2 3.7 3.7 0 0 1 2 .2Z" opacity=".3"/><path fill="#981d36" d="M52 9.7c.5-1.4 1.9-.7 2-.6 0-.1.7-1.5 2-.7 1 .7.8 3-.9 4-2 .2-3.5-1.6-3.1-2.7Z"/><path fill="#fff" d="M53.1 9.2a.1.1 0 0 0 0-.2 1 1 0 0 0-1 .8.8.8 0 0 0 0 .4.1.1 0 0 0 .2 0 2.5 2.5 0 0 1 .9-1Z" opacity=".3"/><path fill="#981d36" d="M87.6 57.9c1-1.1 1.9 0 2 0 0 0 1-1 2 0 .7 1-.2 3-2 3.4h-.1c-1.8-.5-2.6-2.5-1.9-3.4Z"/><path fill="#fff" d="M88.8 57.8a.1.1 0 0 0 0-.2 1 1 0 0 0-1 .4.8.8 0 0 0-.2.4h.2a2.4 2.4 0 0 1 1-.6Z" opacity=".3"/><path fill="#981d36" d="M93 39.2c.9-.4 1.2.6 1.2.7s1-.3 1.3.6c.1.8-1 1.7-2.3 1.3-1-.8-1-2.3-.2-2.6Z"/><path fill="#fff" d="M93.8 39.5a.8.8 0 0 0-.8-.2.4.4 0 0 0-.2.2 1.9 1.9 0 0 1 1 0Z" opacity=".3"/><path fill="#ff9786" d="M66.4 84.9c1-1.1 2 0 2 .2.1 0 1.2-1.1 2 0 .8 1-.3 3-2.2 3.4-1.9-.5-2.6-2.7-1.8-3.6Z"/><path fill="#fff" d="M67.6 84.9a.1.1 0 0 0 0-.2 1 1 0 0 0-1.1.4.8.8 0 0 0-.2.3.1.1 0 0 0 .2.1 2.7 2.7 0 0 1 1.1-.6Z" opacity=".2"/><path fill="#ff4e5b" d="M44.2 93.5c.2-.8 1-.4 1-.4s.4-.9 1-.5.6 1.6-.3 2.2c-1 .2-1.9-.7-1.7-1.3Z"/><path fill="#fff" d="M44.8 93.2V93a.6.6 0 0 0-.5.5.5.5 0 0 0 0 .2 1.4 1.4 0 0 1 .5-.6Z" opacity=".2"/><path fill="#981d36" d="M69.2 83.6c.1-.2.3 0 .4 0a.2.2 0 0 1 .4-.2c.1.2 0 .6-.3.8-.3 0-.6-.4-.5-.6Z"/><path fill="#fff" d="M69.4 83.5a.2.2 0 0 0-.2.2.6.6 0 0 1 .2-.2Z" opacity=".2"/><path fill="#ff9786" d="M74 80.6c.2-.3.5 0 .6 0s.2-.3.5 0 0 .7-.5 1c-.5-.2-.8-.7-.6-1Z"/><path fill="#fff" d="M74.3 80.5a.3.3 0 0 0-.3.2.2.2 0 0 0 0 .1.6.6 0 0 1 .3-.3Z" opacity=".2"/><path fill="#981d36" d="M71.4 87.7c.7-.2.7.5.7.6s.8-.1.7.6-1 1-1.7.5c-.5-.7-.2-1.7.3-1.8Z"/><path fill="#fff" d="M71.9 88a.5.5 0 0 0-.5-.2.3.3 0 0 0-.2 0v.1a1.1 1.1 0 0 1 .7.1Z" opacity=".2"/><path fill="#ff4e5b" d="M76.8 78.4c1.3-.4 1.6 1 1.6 1.2.1 0 1.5-.4 1.7 1 0 1.2-1.8 2.3-3.5 1.6-1.3-1.3-1-3.4.2-3.8Z"/><path fill="#fff" d="M77.8 79a.1.1 0 0 0 0-.2 1 1 0 0 0-1-.2.7.7 0 0 0-.4.2.1.1 0 0 0 .1.2 2.5 2.5 0 0 1 1.3 0Z" opacity=".2"/><path fill="#ff4e5b" d="M52.8 89.1c.4-1.4 1.7-.7 1.8-.7 0-.1.6-1.5 1.8-.8 1 .6 1 2.8-.5 3.8-1.9.4-3.5-1.2-3.1-2.3Z"/><path fill="#fff" d="M53.8 88.6a.1.1 0 0 0 0-.2 1 1 0 0 0-.9.8.8.8 0 0 0 0 .4.1.1 0 0 0 .2 0 2.6 2.6 0 0 1 .7-1Z" opacity=".2"/><path fill="#f73b47" d="M71.5 81.4c1.6-.9 2.3 1 2.4 1.1.2 0 2-1 2.5.9.4 1.5-1.6 3.5-4 3-2.1-1.3-2.2-4.2-.9-5Z"/><path fill="#fff" d="M73 82a.1.1 0 0 0 0-.3 1.4 1.4 0 0 0-1.4 0 1 1 0 0 0-.4.4.1.1 0 0 0 .2.1A3.3 3.3 0 0 1 73 82Z" opacity=".2"/><path fill="#f73b47" d="M47.6 88.1c1.6-1 2.3.9 2.4 1 .2 0 2-.9 2.5 1 .5 1.5-1.6 3.5-4 3.1-2.2-1.4-2.3-4.3-1-5.1Z"/><path fill="#fff" d="M49 88.6a.1.1 0 0 0 .2-.3 1.4 1.4 0 0 0-1.6 0 1 1 0 0 0-.4.4.1.1 0 0 0 .2.2 3.4 3.4 0 0 1 1.7-.3Z" opacity=".2"/><path fill="#981d36" d="M78.2 83.7c.9 0 .7 1 .7 1s1 0 .8 1c-.3.7-1.7 1-2.6.3-.5-1 .3-2.3 1-2.3Z"/><path fill="#fff" d="M78.7 84.2a.7.7 0 0 0-.6-.4.5.5 0 0 0-.2 0s0 .2 0 .2a1.6 1.6 0 0 1 .8.2Z" opacity=".3"/><path fill="#ff4e5b" d="M86 73c.3-1 1.2-.5 1.3-.5s.3-1 1.2-.5.6 1.8-.4 2.5c-1.2.3-2.3-.7-2-1.5Z"/><path fill="#fff" d="M86.7 72.7c.1 0 0-.2 0-.2a.7.7 0 0 0-.5.6.6.6 0 0 0 0 .3h.1a1.7 1.7 0 0 1 .4-.8Z" opacity=".3"/><path fill="#ff4e5b" d="M80.2 74.1c.2-.3.4 0 .4 0s.3-.3.5 0 0 .7-.4.8c-.4 0-.7-.5-.5-.8Z"/><path fill="#fff" d="M80.5 74a.2.2 0 0 0-.3.2.6.6 0 0 1 .3-.1Z" opacity=".3"/><path fill="#ff4e5b" d="M6.1 51.9c0-.3-.4-.2-.4-.2s-.2-.4-.5-.2-.3.7.1 1c.5 0 1-.3.8-.6Z"/><path fill="#fff" d="M5.9 51.8a.3.3 0 0 1 .2.1.2.2 0 0 1 0 .1.6.6 0 0 0-.2-.2Z" opacity=".3"/><path fill="#ff9786" d="M6.5 43c-.2-.3-.6-.1-.6 0s-.2-.4-.5-.2-.1.8.3 1c.6 0 1-.5.8-.8Z"/><path fill="#fff" d="M6.2 43a.3.3 0 0 1 .2.1.4.4 0 0 1 0 .1.7.7 0 0 0-.3-.3Z" opacity=".2"/></g></svg>