<svg xmlns="http://www.w3.org/2000/svg" width="100%" viewBox="0 0 100 100"><g data-name="Слой 2"><path fill="none" d="M0 0h100v100H0z"/><path fill="#fff" stroke="#fff" stroke-linejoin="round" stroke-width="10" d="M74.3 58.8a13.3 13.3 0 0 0-1.1-2.8 11.2 11.2 0 0 0-.6-1.1 16.6 16.6 0 0 0 0-5.8v-.9a9 9 0 0 0-1-3 4.1 4.1 0 0 0-.8-1 3 3 0 0 0-1.1-.8c-1.8-.7-3.6 1.4-4.2 2.2l-.2-.3c-.5-1.8-1.4-3.2-2.8-3.4-1-.4-2-.3-3.2 1a9.4 9.4 0 0 0-1.2-1.4 4.6 4.6 0 0 0-5.3-2.2 5.1 5.1 0 0 0-1.2.5c0-4.2 0-9.3-.4-13.2-.2-3.6-.8-6.2-1.8-6.9a6 6 0 0 0-2.6-1 5.4 5.4 0 0 0-1.5-.3 3.7 3.7 0 0 0-3.6 2.3s0 .1 0 .1a6.5 6.5 0 0 0-.9 1.4c-1 2.6-1.1 20.3-1 30.1-7.9-3-16.3-3.4-16.7 1.3-.3 3 1.4 4.1 3.5 5.2a5.5 5.5 0 0 0-.9-.1l16 20v2.7H70l.2-5.8a15.4 15.4 0 0 0 1-1.2c3.8-4 4.6-9.8 3-15.6Zm-38.9 5a15 15 0 0 0 6.3 10c-.7-.4-6.2-3.7-6.3-10Z"/><path fill="#ffc095" d="M44.2 76.2s-7.9-3.6-8.8-11.5c0 0-3-2-6.2-3.7s-6.5-2.4-6.2-6.6c.6-6.3 15.7-3.3 24.2 2.9ZM62.2 60.4s-3.2 2.3-4.9-2.5S56.7 44.3 61 43c6.3-1.9 6 13.5 1.3 17.4Z"/><path fill="#ffc095" d="M41.6 82.1v-8.4a12 12 0 0 1-3.3-6.4C36 54.6 41.3 49 48.7 48a32.8 32.8 0 0 1 15.4 1.6c.7-2.4 1.9-4.4 3.7-5 4.3-1.2 5.5 5.4 4.4 11a13.3 13.3 0 0 1 1.9 4c1.7 6.4.5 12.9-4.3 16.7V82Z"/><path fill="none" stroke="#531712" stroke-linejoin="round" stroke-width="2" d="M41.7 79.7v-5s-6.2-3.3-6.3-10c0 0-6.3-5-9.8-5.2"/><path fill="#ff9074" d="M63.5 82.1c-1.2-7.9 6-11 7.3-15.7s-2.8-11-2.8-11c1.8-3 1.6-7.5 1.1-10.9 3.2.3 4 6.1 3.1 11a13.3 13.3 0 0 1 1.9 4.1c1.7 6.4.5 12.8-4.3 16.6v5.9Z"/><path fill="none" stroke="#531712" stroke-linejoin="round" stroke-width="2" d="M65.1 46.8s2.3-3.3 4.4-2.4 4 6.4 3 11.4a21.2 21.2 0 0 1 2.1 10.3A17.5 17.5 0 0 1 70 76.3l-.2 5.7"/><path fill="#ffc095" d="M55.2 63s-4.6 2.9-7.1-3.4-1.4-17.8 4.6-19.3c9-2.3 9 17.7 2.5 22.7Z"/><path fill="none" stroke="#531712" stroke-linejoin="round" stroke-width="2" d="M65.3 46.7s-2.7-6.7-6.2-2.8c0 0-3.6-6.2-8.3-2.1"/><path fill="#ffc095" d="M40.7 23.3a5.6 5.6 0 0 1 8.6-2.5c4.1 2.8.4 36.6.4 36.6l-10 2.3s-.5-32.8 1-36.5Z"/><path fill="none" stroke="#531712" stroke-linejoin="round" stroke-width="2" d="M51.4 48.1s.6-17.8-.8-24.1a5.7 5.7 0 0 0-5.4-4.5 3.7 3.7 0 0 0-3.6 2.2c-2.4 4.5-1.2 35-1.2 35"/></g></svg>