<svg xmlns="http://www.w3.org/2000/svg" width="100%" viewBox="0 0 100 100"><g data-name="Слой 2"><path fill="none" d="M0 0h100v100H0z"/><path fill="#8a0028" d="m82.4 20.9 4 1 2.1.5v2a79 79 0 0 1-8 41.2 34.1 34.1 0 0 1-12 12.5 34 34 0 0 1-16.7 4.6 78.7 78.7 0 0 1-40-12.7l-1.9-1.1.6-2 1.1-4a103 103 0 0 1 7.7-22c4.6-8.4 11-14 20.9-10.5C41.8 20 49.8 17 59.4 17c7.7 0 16.2 2.1 23 3.8"/><path fill="#fa5c98" d="M65.7 73.4a28.6 28.6 0 0 0 10-10.6c1.6-2.6 10.2-21.5 3.7-24.5-4-2-12 5.8-15.5 8.2-4.9 3.4-2 3.8-4.6 8.4a7.5 7.5 0 0 1-6.7 4c-5.3.2-4.3-2.6-9.6 0-3.8 1.9-14.4 5.2-14.7 9.7-.5 7.2 20.2 8.7 23.3 8.6a28.6 28.6 0 0 0 14-3.8M59.4 22.6c-7.7 0-14 2.6-14 11.9V39l-4-2.2c-8.2-4.5-13.5-.2-17.2 6.6-2.1 4-7.1 12.4-3.5 16.9 1.2 1.5 3.6 2.7 8.1 1.5 3.6-1.3 7.9-2.6 11-4.9 4.5-3.4 3.2-3.7 5.2-7.4 1-1.9 2.5-3 4.7-1.8l1.1.6V47c0-2.6 1.8-3.3 4-3.3 4.2 0 3.8 1.3 9-1 3.5-1.7 6.7-4.8 9.6-7.3 3.1-3.4 3.3-6 2.5-7.9-2.2-5.3-12-5-16.5-5"/><path fill="#da3c78" fill-rule="evenodd" d="M19.4 57.5a5.7 5.7 0 0 0 1.2 2.9c1.2 1.5 3.6 2.7 8.1 1.5 3.6-1.3 7.9-2.6 11-4.9 4.6-3.4 3.3-3.7 5.3-7.4 1-1.9 2.5-3 4.7-1.8l1.1.6V47c0-2.6 1.8-3.3 4-3.3 4.2 0 3.8 1.3 9-1 3.5-1.7 6.7-4.8 9.6-7.3 3.1-3.4 3.3-6 2.5-7.9a5.7 5.7 0 0 0-1.9-2.4C75 34.6 59.7 40 52.5 40c-2.2 0-4 .7-4 3.3v1.3l-1-.6c-2.3-1.3-3.8 0-4.8 1.8-3.4 6.3-15.5 17-23.3 11.7M55.5 63.1a6.8 6.8 0 0 0 6-3.5c2-3.4 15.7-24 20-13.2.7-3.8.3-7-2.1-8.1-4-2-12 5.8-15.5 8.2-4.9 3.4-2 3.8-4.6 8.4a7.5 7.5 0 0 1-6.7 4c-5.3.2-4.3-2.6-9.6 0-3.8 1.9-14.4 5.2-14.7 9.7-.2 2.6 2.5 4.5 6 5.8-7.4-9 17.3-11.1 21.2-11.2"/></g></svg>