<svg xmlns="http://www.w3.org/2000/svg" xmlns:xlink="http://www.w3.org/1999/xlink" width="100%"
viewBox="0 0 100 100">
  <defs>
    <linearGradient id="a" x1="5.2" x2="22" y1="50.3" y2="47.1" gradientUnits="userSpaceOnUse">
      <stop offset="0" stop-color="#f8c316" />
      <stop offset="1" stop-color="#ff6f0f" />
    </linearGradient>
    <linearGradient xlink:href="#a" id="d" x1="46.2" x2="37.7" y1="12" y2="32.1" />
    <linearGradient xlink:href="#a" id="e" x1="54.2" x2="29.3" y1="23.8" y2="52.9" />
    <linearGradient id="c" x1="26.2" x2="44.6" y1="30.1" y2="73.4" gradientUnits="userSpaceOnUse">
      <stop offset="0" stop-color="#f8c316" />
      <stop offset="1" stop-color="#ff8e0f" />
    </linearGradient>
    <linearGradient id="b" x1="29" x2="38.9" y1="33.8" y2="23.7" gradientUnits="userSpaceOnUse">
      <stop offset="0" stop-color="#fff" />
      <stop offset="1" stop-color="#fff" stop-opacity="0" />
    </linearGradient>
    <linearGradient xlink:href="#b" id="f" x1="28.1" x2="20.1" y1="35.1" y2="48.8" />
    <linearGradient xlink:href="#a" id="g" x1="45" x2="58.7" y1="64.9" y2="62.3" />
    <linearGradient xlink:href="#a" id="h" x1="78.4" x2="71.5" y1="33.7" y2="50.1" />
    <linearGradient xlink:href="#a" id="i" x1="85" x2="64.7" y1="43.3" y2="67" />
    <linearGradient xlink:href="#c" id="j" x1="62.1" x2="77.2" y1="48.4" y2="83.8" />
    <linearGradient xlink:href="#b" id="k" x1="64.4" x2="72.5" y1="51.5" y2="43.2" />
    <linearGradient xlink:href="#b" id="l" x1="63.7" x2="57.1" y1="52.5" y2="63.7" />
    <linearGradient xlink:href="#a" id="m" x1="14.8" x2="37.3" y1="61.2" y2="57" />
    <linearGradient xlink:href="#a" id="n" x1="69.7" x2="58.3" y1="10" y2="36.9" />
    <linearGradient xlink:href="#a" id="o" x1="80.4" x2="47.1" y1="25.7" y2="64.6" />
    <linearGradient xlink:href="#c" id="p" x1="43" x2="67.6" y1="34.2" y2="92.1" />
    <linearGradient xlink:href="#b" id="q" x1="46.7" x2="60" y1="39.2" y2="25.6" />
    <linearGradient xlink:href="#b" id="r" x1="45.5" x2="34.8" y1="40.9" y2="59.1" />
  </defs>
  <g data-name="Слой 2" style="isolation:isolate">
    <path fill="none" d="M0 0h100v100H0z" />
    <path fill="url(#a)" d="m24.1 44.6 6.8 3.8-5.9.3-6.9-3.8 6-.3z" />
    <path fill="#fff" d="m24.4 44.8-.3-.2-6 .3.3.2 6-.3z" opacity=".7"
      style="mix-blend-mode:overlay" />
    <path fill="url(#d)" d="m40.2 15.8 6.8 3.8-7.1 17.8-6.9-3.8 7.2-17.8z" />
    <path fill="#fff" d="M40.2 15.8 33 33.6l.4.2L40.5 16l-.3-.2z" opacity=".7"
      style="mix-blend-mode:overlay" />
    <path fill="url(#e)" d="m41.1 33.2 6.8 3.8-24.5 28.5-2.9-1.6 20.6-30.7z" />
    <path fill="url(#c)" d="M41.1 33.2 20.5 63.9l3.6-19.3-6 .3 2.6-19.1 19.5-10L33 33.6l8.1-.4z" />
    <path fill="#fff" d="M41.1 33.2 20.5 63.9l.3.1 20.6-30.6-.3-.2z" opacity=".7"
      style="mix-blend-mode:overlay" />
    <path fill="url(#b)" d="m40.2 15.8-14.4 7.3 10.5 17.3 4.8-7.2-8.1.4 7.2-17.8z" opacity=".4"
      style="mix-blend-mode:overlay" />
    <path fill="url(#f)" d="m25 57.2 5.6-8.4-10.7-17.7-1.8 13.8 6-.3-1.6 8.5 2.5 4.1z" opacity=".4"
      style="mix-blend-mode:overlay" />
    <path fill="url(#g)" d="m60.4 60.3 5.6 3.1-4.9.2-5.6-3.1 4.9-.2z" />
    <path fill="#fff" d="m60.7 60.4-.3-.1-4.9.2.3.2 4.9-.3z" opacity=".7"
      style="mix-blend-mode:overlay" />
    <path fill="url(#h)" d="m73.5 36.7 5.6 3.1-5.8 14.6-5.6-3.1 5.8-14.6z" />
    <path fill="#fff" d="m73.5 36.7-5.8 14.6.3.1 5.8-14.5-.3-.2z" opacity=".7"
      style="mix-blend-mode:overlay" />
    <path fill="url(#i)" d="m74.3 50.9 5.6 3.2-20.1 23.2-2.3-1.3 16.8-25.1z" />
    <path fill="url(#j)" d="M74.3 50.9 57.5 76l2.9-15.7-4.9.2 2.1-15.6 15.9-8.2-5.8 14.6 6.6-.4z" />
    <path fill="#fff" d="M74.3 50.9 57.5 76l.2.1 16.8-25-.2-.2z" opacity=".7"
      style="mix-blend-mode:overlay" />
    <path fill="url(#k)" d="m73.5 36.7-11.7 6 8.5 14.1 4-5.9-6.6.4 5.8-14.6z" opacity=".4"
      style="mix-blend-mode:overlay" />
    <path fill="url(#l)" d="m61.1 70.5 4.6-6.9L57 49.3l-1.5 11.2 4.9-.2-1.3 6.9 2 3.3z" opacity=".4"
      style="mix-blend-mode:overlay" />
    <path fill="url(#m)" d="m40.1 53.6 9.2 5.1-8 .4-9.2-5.1 8-.4z" />
    <path fill="#fff" d="m40.5 53.8-.4-.2-8 .4.4.2 8-.4z" opacity=".7"
      style="mix-blend-mode:overlay" />
    <path fill="url(#n)" d="m61.6 15 9.2 5.1L61.3 44l-9.2-5.1L61.6 15z" />
    <path fill="#fff" d="m61.6 15-9.5 23.9.4.2 9.6-23.9-.5-.2z" opacity=".7"
      style="mix-blend-mode:overlay" />
    <path fill="url(#o)" d="m62.8 38.3 9.2 5.1-32.8 38.1-3.9-2.2 27.5-41z" />
    <path fill="url(#p)" d="m62.8 38.3-27.5 41 4.8-25.7-8 .4 3.4-25.6L61.6 15l-9.5 23.9 10.7-.6z" />
    <path fill="#fff" d="m62.8 38.3-27.5 41 .4.3 27.6-41.1-.5-.2z" opacity=".7"
      style="mix-blend-mode:overlay" />
    <path fill="url(#q)" d="m61.6 15-19.2 9.8 14 23.1 6.4-9.6-10.7.6L61.6 15z" opacity=".4"
      style="mix-blend-mode:overlay" />
    <path fill="url(#r)" d="m41.3 70.4 7.6-11.3-14.3-23.6L32.1 54l8-.4L38 64.9l3.3 5.5z"
      opacity=".4" style="mix-blend-mode:overlay" />
  </g>
</svg>