<svg xmlns="http://www.w3.org/2000/svg" width="100%" viewBox="0 0 100 100"><g data-name="Слой 2"><path fill="none" d="M0 0h100v100H0z"/><path fill="#fff" d="M98.5 58.6a7.4 7.4 0 0 0-5.8-4.6h-.1a7.6 7.6 0 0 0-4.2-3.9l.5-16.5.1-3.3-3.7-.5-18.8-2.5 1.2-1.5a16.1 16.1 0 0 0 2.7-9.6 13.1 13.1 0 0 0-8.8-11.8 18.4 18.4 0 0 0-4-1c-3.9-.6-10 0-14.4 8a22 22 0 0 0-.7-.9A14 14 0 0 0 33.3 5a15.5 15.5 0 0 0-8.9 1.6 13.5 13.5 0 0 0-5.6 5 12.6 12.6 0 0 0-1.5 3.3 7.4 7.4 0 0 0-8.6 2.6l-.2.1v.2A7.4 7.4 0 0 0 2.2 21a7 7 0 0 0-.2 7.7 7.6 7.6 0 0 0 .9 1.3l-.8-.2 1.3 16.4.5 5.5 4.7 1 .8 4.3 6.1 29 .5 2.3 28.3 7.8.9.3 1-.2L83 84.4l.7-15c3.1.4 8.9.6 12.5-2.5a8.8 8.8 0 0 0 1.2-1.1 7.2 7.2 0 0 0 1.1-7.2Z"/><path fill="#ef5d77" d="m85.2 33.5-32.1 8.6-9.9 1.8-6.7-1-30.3-8.6 36.2-6.4 42.8 5.6z"/><path fill="#fff" d="m43.2 43.9 2.1 48.8v-.1l-26.1-7.1-7.5-36-2.2-10.7 27 4.1 6.6 1h.1z"/><path fill="#ef4b67" d="m45.3 92.7 34.1-11 1.9-44.6-38.1 6.8 2.1 48.8z"/><path fill="#bd0a42" d="M46.6 65.7a3.2 3.2 0 0 0 0 .5c.4 1.7 2.8 2.9 3.5 3.2.8-.6 3.8-2.6 4-4.6.3-1.8-1.7-2.2-3-1.1a2.6 2.6 0 0 0-.7 1c-.5-2-3.7-1.2-3.8 1ZM57.5 64a1.7 1.7 0 0 0 0 .5c.3 1.7 2.7 2.9 3.4 3.1.8-.5 3.9-2.5 4.1-4.5.2-1.8-1.8-2.2-3-1.2a2.5 2.5 0 0 0-.7 1.1c-.5-2.1-3.7-1.3-3.8 1Zm13.8-3.1a3.2 3.2 0 0 0 0 .4c.3 1.8 2.7 3 3.4 3.2.9-.5 3.9-2.5 4.1-4.6.2-1.7-1.8-2.1-3-1a2.7 2.7 0 0 0-.7 1.1c-.5-2.1-3.7-1.3-3.8.9Zm-24 13.9a2.3 2.3 0 0 0 0 .4c.4 1.8 3 2.8 3.6 3 .8-.5 3.8-2.7 3.9-4.8.1-1.7-1.9-2-3-1a2.6 2.6 0 0 0-.8 1.3c-.6-2.1-3.7-1.2-3.7 1ZM58 72.5a3.1 3.1 0 0 0 0 .4c.4 1.8 2.9 2.8 3.6 3 .8-.5 3.7-2.7 3.9-4.7 0-1.8-2-2.1-3.1-1a2.7 2.7 0 0 0-.7 1.1c-.5-2-3.7-1-3.7 1.2ZM70.5 69a2.3 2.3 0 0 0 0 .5c.4 1.8 2.9 2.8 3.6 3 .8-.5 3.7-2.7 3.9-4.7.1-1.8-1.9-2.1-3-1a2.6 2.6 0 0 0-.7 1.2c-.6-2.1-3.8-1.2-3.8 1ZM47.8 83.7a1.6 1.6 0 0 0 0 .5c.4 1.7 3 2.7 3.7 3 .8-.6 3.6-2.8 3.7-4.9.1-1.8-1.9-2-3-.9a2.7 2.7 0 0 0-.7 1.2c-.7-2.1-3.8-1.1-3.7 1.1Zm10.6-2.5a2.1 2.1 0 0 0 .1.5c.4 1.7 3 2.7 3.6 3 .8-.6 3.7-2.8 3.8-4.9 0-1.8-2-2-3-.9a2.7 2.7 0 0 0-.8 1.2c-.6-2.1-3.7-1.1-3.7 1.1Zm12.5-3.6a1.6 1.6 0 0 0 0 .4c.4 1.8 3 2.7 3.7 3 .8-.6 3.6-2.8 3.7-4.8.1-1.8-1.9-2-3-1a2.7 2.7 0 0 0-.7 1.2c-.7-2.1-3.8-1-3.7 1.2Z"/><path fill="#ef4b67" d="m84.8 48.8-4 .7-37.1 7.3-32-7.3-4.3-.9-1.2-14.3 36.8 6 42.2-6.8-.4 12v3.3z"/><path fill="#bd0a42" d="M84.8 45.8 78.3 47l-34.7 7v-.3l8.2-1.6 33-6.6ZM45.3 92.6l-26.1-7.1L13 56l-1.4-6.6-4.3-1-.2-2.4v-.3l-1-11.6 36.7 6c1.1 19.9 2 38.3 2.4 52.4Z"/><path fill="#75002c" d="m43.3 54-9.5-2-26.6-5.9v-.3l4.6 1 31.6 7c.2 0 .1.3 0 .3Zm.4 2.8.2 5.2-30.8-5.9-1.4-6.6 32 7.3z"/><path fill="#bd0a42" d="m43.7 56.8 37.1-7.3-.3 5.6L43.9 62l-.2-5.2z"/><path fill="#00847a" d="M29.8 16.4a6 6 0 0 0-.5 8c2.4 3.3 12.9 8.8 12.9 8.8h-2s-11.5-1.6-16.7-8 0-14.4 6.3-8.8Z"/><path fill="#00baad" d="M40.2 33.2S16.9 26.7 23.7 17c5.8-8.4 18.5 16.3 18.5 16.3l4.1-.2s-3-31.5-20.2-23c-11 5.2-5.5 23 14 23.2Z"/><path fill="#00847a" d="M57.2 14.7a6 6 0 0 1 1.2 8 59.4 59.4 0 0 1-12 9.8l2-.1s11.3-2.7 15.9-9.4-1.4-14.4-7.1-8.3Z"/><path fill="#00baad" d="M48.3 32.4s22.7-8.6 15-17.7c-6.5-8-17 17.8-17 17.8l-4.1.2S42.4 1 60.3 7.9c11.4 4.3 7.6 22.5-12 24.5Z"/><path fill="#00847a" d="m41.4 32.7-20.9 3.9L22 51.9l3.6 35.3 8.9 2.5-2.2-50.9 13.2-6.3-4.1.2z"/><path fill="#00baad" d="m41.1 32.6 17.8 4.3 1.4 50.9 9-2.9.1-35.9.2-15.3-21.2-2-7.3.9z"/><path fill="#00555d" d="m22 51.9 11 2.5.2 5.5-10.6-2-.6-6z"/><path fill="#00847a" d="m59.4 53.7 10-1.9v5.4l-9.9 1.9-.1-5.4z"/><path fill="#ff8894" d="M5.3 26.7a4.2 4.2 0 0 0 .5.8c2.4 2.7 8 3 9.5 3 1-1.4 4.3-6.8 2.6-10.4a3.6 3.6 0 0 0-6.6.2 4 4 0 0 0-.2 2.3c-3.1-3.2-8 .4-5.8 4.1Zm89.1 36.8a4.2 4.2 0 0 1-.6.6c-2.8 2.4-8.3 1.8-9.9 1.5-.7-1.5-3.2-7.3-.9-10.6a3.6 3.6 0 0 1 6.5 1.2 4 4 0 0 1-.2 2.4c3.5-2.8 7.9 1.4 5.1 4.9Z"/></g></svg>