<svg xmlns="http://www.w3.org/2000/svg" width="100%" viewBox="0 0 100 100"><g data-name="Слой 2" style="isolation:isolate"><path fill="none" d="M0 0h100v100H0z"/><path fill="#fff" d="M84 50c0 9.7-.5 21.4-6 28-6.1 7.3-17.7 9-27.5 9-10.3 0-22.4-4-28.5-12-5-6.4-5-16-5-25 0-20.4 15-37 33.5-37S84 29.6 84 50Z"/><path fill="#9fc0e2" d="M79.2 59.6c-1 9-4.2 17-10.7 19.4-13.8 4.8-41.6 2.3-45.8-13.3a40.1 40.1 0 0 1-1.3-9.1C21 42.5 26.8 26.8 34.9 22c14.6-8.6 34-.9 40.2 10.5 3.3 6 5.1 17.1 4 27.1Z"/><path fill="#451255" d="M25.9 44a5.5 5.5 0 0 0 2.8 3.6 7 7 0 0 0 7.4-.6 6.3 6.3 0 0 0 2.1-7c-2.6-6.8-13.7-2.9-12.4 4ZM65.7 48.3a9 9 0 0 0 2.8.6 5.8 5.8 0 0 0 5.5-3.7c1.9-5.2-4.2-9.2-8.8-7.5-5 1.9-4 9 .5 10.6ZM47.4 44c-1.5 0-1 5.3 3 5.4s4.5-5 3.2-5.2-.7 3.3-3.2 3-1.4-3.3-3-3.3Z"/><path fill="#5883b9" d="m79.2 59.6-.4 2.8c-1.3 7.8-4.5 14.5-10.3 16.6-13.8 4.8-41.6 2.4-45.8-13.2a36.8 36.8 0 0 1-1-5 40.7 40.7 0 0 1-.3-4.2c9-2 36.8-7.2 57.8 3Z"/><path fill="#fff" d="M28.7 59.8A3 3 0 0 0 34 61a3 3 0 0 0 .2-3 3 3 0 0 0-2.5-1.6 2.8 2.8 0 0 0-3 3.4ZM66 60.4a3 3 0 1 0 5.5-1.8 3 3 0 0 0-2.6-1.7 2.8 2.8 0 0 0-2.9 3.5ZM31.6 38.7H34v2.4h-2.4zM65.4 38.7h2.4v2.4h-2.4z"/><path fill="#ff4f6c" d="M25.6 49A2.6 2.6 0 0 1 28 50a3.4 3.4 0 0 1 .4 2.7 2.4 2.4 0 0 1-.5.9 2.4 2.4 0 0 1-.8.6 3 3 0 0 1-3.3-.7 3 3 0 0 1 2-4.7ZM74.5 49.8a2.6 2.6 0 0 0-2.3 1.2 3.3 3.3 0 0 0-.3 2.6 2.2 2.2 0 0 0 .4.9 2 2 0 0 0 .8.6 3 3 0 0 0 3.3-.7 2.9 2.9 0 0 0-2-4.6Z"/><path fill="#451255" d="M53.2 74.6H50c-3.8 0-10.7-.2-11-.4s-.8-4.7-.9-8.4c-.3-8.2.2-8.4.3-8.6 1-.5 10.9-.5 12-.5 5.1 0 11.3.1 11.6.6s.4 15.9-.6 16.8c-.1.2-.5.5-8.2.5Zm-14-.8c1.6.3 21 .5 21.8 0 .6-.7 1-14.8.6-16.1a155 155 0 0 0-22.9 0c-.6 1 .1 14.9.5 16.1Z"/><path fill="#fff" d="M35 24.9a1.6 1.6 0 0 0-.5 1.2 1.1 1.1 0 0 0 1 .8 3.3 3.3 0 0 0 1.3 0l6.2-1.3a25.9 25.9 0 0 0 3-.8c.9-.3 1.9-.8 1.9-1.8a1.9 1.9 0 0 0-.8-1.4c-1.4-1.2-4.3-1.2-6-.9A11.1 11.1 0 0 0 35 25Z"/><path fill="#451255" d="M40 72.8a.7.7 0 0 0 .4 0 .6.6 0 0 0 .5-.4c.2-.5-.4-1-.9-.8a.6.6 0 0 0 0 1.2ZM59.6 73.4a1 1 0 0 0 .3 0 .6.6 0 0 0 .6-.4c.2-.6-.4-1-1-.8a.6.6 0 0 0 .1 1.2ZM39.7 59.2a.7.7 0 0 0 .3 0 .6.6 0 0 0 .5-.3c.2-.6-.4-1-.9-.8a.6.6 0 0 0 0 1.1ZM60 59.2a.8.8 0 0 0 .2 0 .6.6 0 0 0 .6-.3c.2-.6-.5-1-1-.8a.6.6 0 0 0 .1 1.1Z"/><path fill="#451255" d="M78.8 62.4c-1.3 7.8-4.5 14.5-10.3 16.6-13.8 4.8-41.6 2.4-45.8-13.2a36.8 36.8 0 0 1-1-5c2.9 3.7 11.1 10.6 32 9.5 13.4-.8 21-4.4 25.1-8Z" opacity=".3" style="mix-blend-mode:multiply"/></g></svg>