<svg xmlns="http://www.w3.org/2000/svg" width="100%" viewBox="0 0 100 100"><g data-name="Слой 2"><path fill="none" d="M0 0h100v100H0z"/><path fill="#ffe6e6" d="M19.1 61.6a7 7 0 0 0 1 2.9 6.8 6.8 0 0 0 6 3h.7a6.5 6.5 0 0 0 4.5 2.6 5.7 5.7 0 0 0 4.4-1.7 46.8 46.8 0 0 0 25.5 7h.8a6.3 6.3 0 0 0 2-.2h.2l.3-.2a3.2 3.2 0 0 0 1.1-.4 3 3 0 0 0 1-.9 36 36 0 0 0 3.6-7.1l.1-.2a37.8 37.8 0 0 0 2.5-10.6 27.4 27.4 0 0 0-.1-8.7l-.3-1.3.5-.5.1-.1a13.4 13.4 0 0 0 2.4-3.5c1.3-3 1-5.7-.6-7.4a9 9 0 0 0 .5-4.6 9.4 9.4 0 0 0-.3-1.4 1.4 1.4 0 0 0-.1-.2 4 4 0 0 0-1.5-2L73 26H73a3.3 3.3 0 0 0-.6-.3 4.3 4.3 0 0 0-1.2-.3v-.4a9 9 0 0 0-2-5.8 4.7 4.7 0 0 0-3.7-1.6 5 5 0 0 0-3.6 2 21 21 0 0 0-4.3 9v.2l-.3 1.5a11.7 11.7 0 0 0-2 0H55a14 14 0 0 0-7.1 3.4 14.5 14.5 0 0 0-5 8.2 18.6 18.6 0 0 0-3 0c-2.6.3-6 1-8.5 3.1a9.8 9.8 0 0 0-3 3.7 19.7 19.7 0 0 0-6.8-.8h-.1c-2.6.2-7 .6-9.2 3.7a1.8 1.8 0 0 0-.1.3c-1 1.7-1.4 4.5 1.6 7.4a11.3 11.3 0 0 0 5.4 2.5"/><path fill="#ffe6ca" d="M25.9 52.5a16.7 16.7 0 0 0-5.3-.1 14 14 0 0 0-3.2.8l-1.1.5-.3.3a2.1 2.1 0 0 0 0 .4 1.3 1.3 0 0 0 0 .2v.5a3.7 3.7 0 0 0 2.1 1.8h.1a18.8 18.8 0 0 0 2.7.7 3.3 3.3 0 0 1 1.4.4 1.4 1.4 0 0 1 .5 1.2 4.4 4.4 0 0 1 0 .9 3.6 3.6 0 0 0 .4 2.3 2.4 2.4 0 0 0 2.9 1 8.6 8.6 0 0 0 1.3-.4 1.3 1.3 0 0 1 1.6 1.4v.2a3 3 0 0 0 1 1.2 4.5 4.5 0 0 0 .5.3h.7a5.3 5.3 0 0 0 .7 0s.1-.1 0 0h-.1.1l.5-.3a4.4 4.4 0 0 0 .6-.8 2 2 0 0 0 .1-.2v.1c0-.1 0-.1 0 0a3.6 3.6 0 0 0 .4-.8 16 16 0 0 1-2.4-3.2.9.9 0 0 1-.6.2 4.2 4.2 0 0 1-3.9-2.7l-.5-1.5v-.2h-.2l-.3-.2-1.5-.6a20.1 20.1 0 0 0-3.4-.9.6.6 0 0 1-.2-1c1.8-.3 3.2.3 5.2.5a2 2 0 0 1 1.6 1c.2.2.3 1 .2.5v.5a3.7 3.7 0 0 0 .8 2 1.4 1.4 0 0 0 .8.6 2.3 2.3 0 0 0 1.1.1h.2a12.4 12.4 0 0 1-1-3.6 12.3 12.3 0 0 1-.1-2l-.4-.2a13.3 13.3 0 0 0-3-.9Z"/><path fill="#f73b47" d="M63.8 38.4c-3.2-3.4-7.3-4.6-10.2-3.3-4.3 1.9-7.1 5.8-7.3 9.4a11 11 0 0 1 2.8 1.4.8.8 0 0 1-.8 1.3 4.4 4.4 0 0 0-.8-.4 16.6 16.6 0 0 0-3.3-.8H44a5.7 5.7 0 0 1-.7 0h-.8a14.2 14.2 0 0 0-5 .5 8.7 8.7 0 0 0-2.4 1 10.3 10.3 0 0 0-2.1 1.7 8.9 8.9 0 0 0-1.2 7.5 14.8 14.8 0 0 0 2.7 5.3 21 21 0 0 0 4.5 3.5c6.6 4 14 5.4 21.5 5.8l2.3.2h.2a1.1 1.1 0 0 1 .2-.4 9 9 0 0 0 .6-1 52.3 52.3 0 0 0 3.8-10.2 34.5 34.5 0 0 0 1-10.8 20 20 0 0 0-4.8-10.8ZM33 53.4a2.3 2.3 0 0 1 0-1.7 1 1 0 0 1 2-.1v.9a1.6 1.6 0 0 1-.3 1 1 1 0 0 1-1.7-.2ZM48 66a.8.8 0 0 1-.7.8 1.2 1.2 0 0 1-.6-.2l-2.9-1a24.1 24.1 0 0 1-4.7-2.6 15 15 0 0 1-4-4.2 10.4 10.4 0 0 1-1.3-2.3 2 2 0 0 1 0-.2.8.8 0 0 1 1.4-.8.6.6 0 0 1 .1.3v.1a13.5 13.5 0 0 0 1.3 1.8 22.3 22.3 0 0 0 9.5 7c1.1.5 1.9.3 2 1.3Z"/><path fill="#ffdede" d="M30.5 66.1h.1Z"/><path fill="#ffe6ca" d="M70.6 28.8H70l-.1.1c-.2 0-.4.2-.5.3l-.8.4a1.1 1.1 0 0 1-1.1.1 1.2 1.2 0 0 1-.6-.8 6.7 6.7 0 0 1 0-1.5 30.3 30.3 0 0 0-.2-3.5 5 5 0 0 0-.1-.6 4.4 4.4 0 0 0-.4-1 2 2 0 0 0-.2-.3 2.3 2.3 0 0 0-.3-.3h-.2a.4.4 0 0 0 0 .1h-.1c-2.3 2.4-4.4 8-4.7 11.3a10.6 10.6 0 0 1 1 .6 17 17 0 0 1 4.8 4c.5-1.4.8-2.7-.3-3.7a15 15 0 0 0-1.6-1 1.3 1.3 0 0 1-.5-.7c-.3-1.2 0-4.2.1-6.2a.7.7 0 0 1 1.4 0 25 25 0 0 0 .2 5.4v.6l.1.2 1.5 1.3a4.8 4.8 0 0 1 1.3 3 7.7 7.7 0 0 1-1 3.1 20.5 20.5 0 0 1 1.4 2.8 6.9 6.9 0 0 0 .7-.7 13 13 0 0 0 1.5-1.9 5 5 0 0 0 1-2.3v-.4a.6.6 0 0 1 0-.2l-.1-.1-.1-.1h-.2l-.4-.2a2.7 2.7 0 0 1-.5 0h-.3c-1.4-1-.6-2.4-.1-4a6.5 6.5 0 0 0 .4-3.4V29Z"/><path fill="#7c0f46" d="M72.2 27.8H72l-.2-.2a2.4 2.4 0 0 0-.4-.2 2.8 2.8 0 0 0-1.8-.2h-.2a2.6 2.6 0 0 0-.6.1l.1-2.5a7 7 0 0 0-1.5-4.5 2.7 2.7 0 0 0-4.2.3 19 19 0 0 0-3.9 8.5 13.6 13.6 0 0 0-.3 3.3v.1a10.8 10.8 0 0 0-3.7-.4 12 12 0 0 0-6 3 11.8 11.8 0 0 0-4.5 9l-.5-.1a1 1 0 0 0-.3 0c-.2 0-.2 0 0 0l-1-.2a17.6 17.6 0 0 0-2.9 0c-2.6.3-5.4.9-7.4 2.6a8.5 8.5 0 0 0-3.1 5 15.3 15.3 0 0 0-8-1.7c-2.5.3-6 .7-7.7 3-.9 1.8-.3 3.4 1.3 5s4.6 2 5.9 2.2a6 6 0 0 0 .8 3.5 4.7 4.7 0 0 0 4.1 2 9.3 9.3 0 0 0 1.3 0 1.8 1.8 0 0 0 .5-.2 2.1 2.1 0 0 0 .1.2c.5.8 2 2.6 3.6 2.6a3.9 3.9 0 0 0 3.6-2l.3-.5A42.3 42.3 0 0 0 56.3 73c1.6.2 3.3.3 5 .3a10.3 10.3 0 0 0 2.2 0 .8.8 0 0 0 .3-.3 1 1 0 0 0 1.1-.5 35 35 0 0 0 3.5-6.9 36.3 36.3 0 0 0 2.4-10 26.2 26.2 0 0 0-.2-8L70 45h.1a10.2 10.2 0 0 0 1.4-1.2 11.3 11.3 0 0 0 2-2.8c1-2.4 1-5-1-6l.1-.5c.8-2.6.8-3.1.7-4.5A8 8 0 0 0 73 29c-.1-.3-.1-.3 0 0a2 2 0 0 0-.8-1ZM30.5 66.1Zm-1.1-10.5a12.4 12.4 0 0 0 1 3.6h-.2a2.3 2.3 0 0 1-1.1-.1 1.4 1.4 0 0 1-.8-.6 3.7 3.7 0 0 1-.7-2l-.1-.5c0 .4 0-.4-.2-.5a2 2 0 0 0-1.6-1c-2-.2-3.4-.8-5.2-.6a.6.6 0 0 0 .2 1.1 20.1 20.1 0 0 1 3.5.9l1.6.6.2.1.1.1.1.2.5 1.5a4.2 4.2 0 0 0 4 2.7.9.9 0 0 0 .5-.2 16 16 0 0 0 2.5 3.2 3.6 3.6 0 0 1-.4.8c0-.1 0 0 0 0a2 2 0 0 1-.1.1 4.4 4.4 0 0 1-.7.8l-.4.3h-.2.2a5.3 5.3 0 0 1-.8 0h-.7a4.5 4.5 0 0 1-.6-.3 3 3 0 0 1-.9-1.2v-.2a1.3 1.3 0 0 0-1.7-1.4 8.6 8.6 0 0 1-1.4.5 2.4 2.4 0 0 1-2.9-1 3.6 3.6 0 0 1-.4-2.4 4.4 4.4 0 0 0 0-.9 1.4 1.4 0 0 0-.5-1.1 3.3 3.3 0 0 0-1.4-.5A18.8 18.8 0 0 1 18 57a3.7 3.7 0 0 1-2.1-1.7l-.2-.6a1.3 1.3 0 0 1 0-.2 2.1 2.1 0 0 1 .1-.3l.1-.1.3-.3 1.1-.6a14 14 0 0 1 3.3-.7 16.7 16.7 0 0 1 5.2.1 13.3 13.3 0 0 1 3 .8l.4.2a12.3 12.3 0 0 0 0 2Zm39-6.5c.6 8-1.6 14.6-4.6 21a7.7 7.7 0 0 1-.6 1 1.3 1.3 0 0 0-.2.3h-2.5c-7.4-.6-15-2-21.5-5.9a20.8 20.8 0 0 1-4.5-3.5 14.8 14.8 0 0 1-2.7-5.3 8.9 8.9 0 0 1 1.2-7.5 10.5 10.5 0 0 1 2.1-1.8 8.7 8.7 0 0 1 2.5-1 15.4 15.4 0 0 1 5.7-.5 4.3 4.3 0 0 0 .7.1h.2a17 17 0 0 1 3.3.8 5.2 5.2 0 0 1 .9.4.7.7 0 0 0 .7-1.3 11 11 0 0 0-2.8-1.4c.2-3.6 3-7.5 7.3-9.4 3-1.3 7-.1 10.2 3.2 2.6 2.5 4.3 7.4 4.7 10.8ZM71 28.9v.2a6.5 6.5 0 0 1-.4 3.5c-.4 1.5-1.3 2.8 0 3.8h.4a2.7 2.7 0 0 0 .6 0l.4.2h.1l.1.1v.8a5 5 0 0 1-.8 2.3 13 13 0 0 1-1.6 2 6.9 6.9 0 0 1-.6.6 20.5 20.5 0 0 0-1.4-2.8 7.7 7.7 0 0 0 .9-3.2 4.8 4.8 0 0 0-1.3-3c-.4-.4-1-.7-1.4-1.2l-.1-.2v-.7a25 25 0 0 1-.2-5.3.7.7 0 0 0-1.4 0c0 2-.4 5 0 6.2a1.3 1.3 0 0 0 .4.7 15 15 0 0 1 1.5 1.1c1 1 .8 2.3.3 3.7a17 17 0 0 0-4.7-4 10.6 10.6 0 0 0-1-.6c.2-3.3 2.3-8.9 4.6-11.3a.4.4 0 0 1 .2 0h.1a2.3 2.3 0 0 1 .4.2 2 2 0 0 1 .1.2 4.4 4.4 0 0 1 .4 1.1 5 5 0 0 1 .1.6 30.3 30.3 0 0 1 .2 3.4 6.7 6.7 0 0 0 0 1.6 1.2 1.2 0 0 0 .6.8 1.1 1.1 0 0 0 1.2 0l.7-.6.5-.2h.1l.6-.1h.3Z"/><path fill="#ff9786" d="M34.7 53.4a1.6 1.6 0 0 0 .2-1c0-.3.1-.6 0-.8a1 1 0 0 0-2 .1 2.4 2.4 0 0 0 .1 1.6 1 1 0 0 0 1.7.1ZM36.6 57.8a15 15 0 0 1-1.2-1.8.3.3 0 0 0 0-.1.7.7 0 0 0-.2-.3.8.8 0 0 0-1.3.7 1.6 1.6 0 0 0 0 .3 10.4 10.4 0 0 0 1.2 2.3 15 15 0 0 0 4 4.1 24.1 24.1 0 0 0 4.8 2.6l2.8 1a1.2 1.2 0 0 0 .7.2.8.8 0 0 0 .7-.8c-.2-.9-1-.7-2-1.3a22.4 22.4 0 0 1-9.5-6.9Z"/><path fill="#981d36" d="M48.1 62.8c-12-7-7.5-14.5-5.6-17a14.2 14.2 0 0 0-5 .6 8.7 8.7 0 0 0-2.4 1 10.3 10.3 0 0 0-2.1 1.8 8.9 8.9 0 0 0-1.2 7.5 14.8 14.8 0 0 0 2.7 5.3 21 21 0 0 0 4.5 3.5c6.6 4 14 5.4 21.5 5.8l2.3.2h.2a1.1 1.1 0 0 1 .2-.4 9 9 0 0 0 .6-1 52.3 52.3 0 0 0 3.8-10.2c-5.4 4-12.4 7-19.5 2.9ZM33 53.3a2.3 2.3 0 0 1 0-1.6 1 1 0 0 1 2-.1v.9a1.6 1.6 0 0 1-.3 1 1 1 0 0 1-1.7-.2Zm15 12.8a.8.8 0 0 1-.7.8 1.2 1.2 0 0 1-.6-.2l-2.9-1a24.1 24.1 0 0 1-4.7-2.6 15 15 0 0 1-4-4.2 10.4 10.4 0 0 1-1.3-2.3 2 2 0 0 1 0-.2.8.8 0 0 1 1.4-.8.6.6 0 0 1 .1.3v.1a13.5 13.5 0 0 0 1.3 1.8 22.3 22.3 0 0 0 9.5 7c1.1.5 1.9.3 2 1.3Z"/><path fill="#ff9786" d="M56.8 39a4.5 4.5 0 0 0-2.5-.3c-1.1.2-2.3.6-2.6 1.8a2 2 0 0 0 2.5 2.2l.5.1h.4l.4.3a2.1 2.1 0 0 0 2.9-1.7 2.3 2.3 0 0 0-1.6-2.4ZM61.2 42.7a1.9 1.9 0 0 0-2.7 2.6L60 48a18.6 18.6 0 0 1 1 3.5c.5 1.9 3.7 2.2 4 0a9.8 9.8 0 0 0-3.9-8.8Z"/></g></svg>