<svg xmlns="http://www.w3.org/2000/svg" width="100%" viewBox="0 0 100 100"><g data-name="Слой 2"><path fill="none" d="M0 0h100v100H0z"/><path fill="#ffe6e6" d="M30.7 73.3a.4.4 0 0 0 .1 0 5 5 0 0 0 1 .2 3.9 3.9 0 0 0 2.7 2.3l.3.1.2.1a100.7 100.7 0 0 0 18.9 2.1h2.5a76.6 76.6 0 0 0 10.4-.6h.2l2.5-.4h.2a3.7 3.7 0 0 0 2-.7 3.4 3.4 0 0 0 1-3.6 5.4 5.4 0 0 0-.1-.6l1.1-.2c2.1-.4 3.5-1.2 4-2.5a3.3 3.3 0 0 0-.3-3.1 47 47 0 0 1-3.8-10A106.9 106.9 0 0 1 71 44.3c-.7-3.7-1-7.1-1.3-11l-.2-2.4-.1-1.1a4.6 4.6 0 0 0-1.5-3.6 3.3 3.3 0 0 0-2.8-.5H65a6.5 6.5 0 0 0-5.3-3.7 5.9 5.9 0 0 0-4.4 1.4 6.2 6.2 0 0 0-1 1.1 5.8 5.8 0 0 0-3.5-2.1 6.5 6.5 0 0 0-5 1 6.2 6.2 0 0 0-2.2 2.7H43a.4.4 0 0 1 0-.1 6.5 6.5 0 0 0-4.9-3.4 6.2 6.2 0 0 0-4.7 1.8 7.4 7.4 0 0 0-1.7 2 2.8 2.8 0 0 0-.7.4 3.4 3.4 0 0 0-1.8 1.5 2.6 2.6 0 0 0-.4 1v.2a71 71 0 0 0-.6 8.7v2.6C28 45.4 28 50 28 54.5V69a3.9 3.9 0 0 0 .4 2.4 3.8 3.8 0 0 0 2.4 1.8"/><path fill="#f73b47" d="M66.2 38c-8.3.1-16.5.6-24.7 1a62.9 62.9 0 0 1-7.5 0l-.5-9h6.3v.3a4.7 4.7 0 0 1-.2.5 1.2 1.2 0 0 1 0 .1 1.2 1.2 0 0 0 1.6 1.6 2.7 2.7 0 0 0 .8-2v-.7h8.5a.9.9 0 0 0-.1.3l-.2.3a1.2 1.2 0 0 0 1.4 1.4c.8-.3 1.2-1.1 1.5-1.8a1 1 0 0 0 0-.2H61l-.2.5v-.1a1 1 0 0 1 0 .1 1 1 0 0 0 1 1.4.8.8 0 0 0 .3-.2 1.3 1.3 0 0 0 .2-.1H62a2.7 2.7 0 0 0 .5-.4 3.5 3.5 0 0 0 .6-1l.1-.4 2-.1h.2c.4 1.2.4 3.4.5 5.8l.2 2.7Z"/><path fill="#ffb6a7" d="m58.7 71.7-5.1.1-11-.1a21.6 21.6 0 0 1-2.1 0c-1.2 0-2.6 0-3-1.3a6.2 6.2 0 0 1-.3-1.1 2.6 2.6 0 0 1 0-.3.5.5 0 0 1 0-.1c-.5-1.8-.9-3.7-1.2-5.5L33.4 49l-1-7.1c.1 2.4.2 5 .5 7.4l1.3 11.3c.5 3.7 1.3 8.8 1.5 11.7l.4.2.7.2 5.2 1a92.7 92.7 0 0 0 16.9.6c3.4-.2 8-.7 10-1v-1c-3.5-.3-6.8-.5-10.2-.5ZM31.8 52.2c-.3-2.1-.4-4.2-.5-6.3l.1 10.7c0 4.2.4 8.4.4 12.5v.6a5.5 5.5 0 0 0 .9.2h.5l-.3-2.4-1.1-15.3Z"/><path fill="#ffe6ca" d="M73.7 67.7a29.2 29.2 0 0 1-5 .9 169.7 169.7 0 0 1-21 .9H39a4.7 4.7 0 0 1-.4-.8 2 2 0 0 0-.2-.2l-.5-2c-.6-2.7-.9-5.6-1.3-8.4-.7-5-1.9-10.9-2.4-16l-.1-1.5h2.7c9.8-.2 19.7-.8 29.6-.8l.8 5.9a99.8 99.8 0 0 0 5.8 20.7l.6 1.3Z"/><path fill="#7c0f46" d="M71.9 56.9A109.7 109.7 0 0 1 69 44.5C68.3 40 68 36 67.6 31l-.1-1.1c-.1-1.3-.4-2.8-2-2.4a15.8 15.8 0 0 1-2 .2 4.4 4.4 0 0 0-8.7.2h-1.4a3.8 3.8 0 0 0-3.1-3.7 4.6 4.6 0 0 0-5.4 3.8h-3.2a5.5 5.5 0 0 0-.4-1 4.8 4.8 0 0 0-3.4-2.5 4.4 4.4 0 0 0-3.3 1.3 5 5 0 0 0-1.5 2 2.8 2.8 0 0 0-.2.4.8.8 0 0 0-1 .3 1.6 1.6 0 0 0-1.2 1 .6.6 0 0 0-.2.3 100.3 100.3 0 0 0-.6 11V69.3a2.4 2.4 0 0 0 0 1.5 2 2 0 0 0 1.3.9l-.2-.1a4 4 0 0 0 1.7.2h.7v.5c.2 1.6 1.1 1.7 2 2A98.3 98.3 0 0 0 54 76.4a80.5 80.5 0 0 0 12.7-.6c.9 0 1.8-.2 2.6-.3a2.5 2.5 0 0 0 1.3-.4 1.6 1.6 0 0 0 .4-1.7 9.8 9.8 0 0 0-.4-1.6 1 1 0 0 0 0-.1l-.2-.8 3-.5c1.6-.3 3.7-1 2.6-3a47.8 47.8 0 0 1-4-10.4ZM59.8 25.7c.8.3 1.7 1 1.8 1.6v.5h-5.2a2.7 2.7 0 0 1 3.4-2.1Zm-8.4 1.9a2 2 0 0 1 0 .2h-4.8c.7-2.7 4.3-2.7 4.8-.3Zm-15.4-1a2.3 2.3 0 0 1 3.1.4c.6.5.7.7.8 1l-5.2.2a2.8 2.8 0 0 1 1.3-1.6Zm3.1 3.3h.7v.3a4.7 4.7 0 0 1-.2.5 1.2 1.2 0 0 1 0 .1 1.2 1.2 0 0 0 1.6 1.6 2.7 2.7 0 0 0 .8-1.8v-.8h8.5a.9.9 0 0 0-.1.3l-.2.3a1.2 1.2 0 0 0 1.4 1.4c.8-.3 1.2-1.1 1.5-1.8a1 1 0 0 0 0-.2H61l-.2.5v-.1a1 1 0 0 0 1 1.5 1 1 0 0 0 .3-.2l.2-.1c0-.1 0 0-.1 0a2.4 2.4 0 0 0 .5-.4 3.5 3.5 0 0 0 .6-1l.1-.4 2-.1h.2c.4 1.2.4 3.4.5 5.8l.3 2.7H66c-8.2.1-16.4.6-24.6 1A52.8 52.8 0 0 1 34 39l-.5-9h5.6ZM32.8 70a5.5 5.5 0 0 1-.8-.2h-.1v-.5c0-4.2-.3-8.4-.4-12.6L31.4 46c0 2 .2 4.2.4 6.3l1.3 15.5.2 2.3Zm26 4.1a92.7 92.7 0 0 1-16.9-.5c-1.7-.3-3.5-.5-5.2-1l-.7-.3-.4-.2c-.2-2.8-1-8-1.5-11.6L32.8 49l-.5-7.4q.4 3.6 1 7.1L36 63.4l1.2 5.4a.5.5 0 0 0 0 .1 2.6 2.6 0 0 0 0 .3 6.2 6.2 0 0 0 .3 1.2c.4 1.3 1.8 1.2 3 1.2a21.6 21.6 0 0 0 2.2 0 158.1 158.1 0 0 0 16 0c3.4.1 6.8.2 10.2.5v1c-2 .4-6.5.9-10 1Zm9.8-5.5a167.8 167.8 0 0 1-21 .9h-8.5a4.7 4.7 0 0 1-.5-.8 2 2 0 0 0 0-.2c-.3-.7-.5-1.3-.6-2-.6-2.7-.9-5.6-1.3-8.4-.7-5-2-10.9-2.4-16l-.1-1.5c10.7 0 21.5-.9 32.2-.8a111.3 111.3 0 0 0 7.3 28 29.2 29.2 0 0 1-5 .8Z"/><path fill="#981d36" d="M36.5 39 34 39c-.2-3-.4-6-.4-9h2.2a49.6 49.6 0 0 0 .7 9.1Z"/><path fill="#ffb6a7" d="M73.7 67.7a29.2 29.2 0 0 1-5 .9 169.7 169.7 0 0 1-21 .9H39a4.7 4.7 0 0 1-.4-.8 2 2 0 0 0-.2-.2l-.5-2c-.6-2.7-.9-5.6-1.3-8.4-.7-5-1.9-10.9-2.4-16l-.1-1.5h2.7C39.4 52.4 47.7 67 73 66.4l.6 1.3Z"/><path fill="#7c0f46" d="m48.2 60-1.4-.1V45.5a3 3 0 0 1 0-.3V45a1.3 1.3 0 0 0-.3-1 1.1 1.1 0 0 0-.6-.4h-.3a1 1 0 0 0-.4 0c-.8.3-1 1.3-1.5 2-.3.6-1 1.1-.8 1.9a1.2 1.2 0 0 0 1.9.6l-.2 3.1-.1 7.1v1.5a3.3 3.3 0 0 0-1.3 0 1.2 1.2 0 0 0 .5 2.3 24 24 0 0 1 3.3 0c.4 0 .9.3 1.3 0a1.2 1.2 0 0 0 0-2.1M60 60h-.6a8.3 8.3 0 0 0 0-1c.1-4.6.4-9.3.1-14 0-.3 0-.6-.2-.9a.7.7 0 0 0-1.2.5 68.2 68.2 0 0 0-.6 7.3H54.2a93.1 93.1 0 0 0 3.9-8.5.8.8 0 0 0-1.5-.8c-1.3 2.8-2.7 5.5-4.2 8.3-.1.2-.2.2 0 0-.5.8-1.5 2-.7 2.8a2.7 2.7 0 0 0 1.9.5h2.8a10.2 10.2 0 0 1 1.1 0v.1l-.1 3.7c0 .6-.2 1.3 0 1.8a2.9 2.9 0 0 0-1.3 0 1 1 0 0 0 0 1.8 11.4 11.4 0 0 0 3 .3c.5 0 1.1 0 1.5-.4a1 1 0 0 0-.5-1.6M63.2 29.9s0-.1 0 0"/></g></svg>