<svg xmlns="http://www.w3.org/2000/svg" width="100%" viewBox="0 0 100 100"><g data-name="Слой 2"><path fill="none" d="M0 0h100v100H0z"/><path fill="#fff" d="M86 14.3a5.4 5.4 0 0 0-1.3.7 90 90 0 0 0-18.5 19.7h-.4a12.3 12.3 0 0 0-6.7.5l-.6.2a17.1 17.1 0 0 0-7.7 7.6 17.1 17.1 0 0 0-10.9.7l-.6.3a12.5 12.5 0 0 0-5.1 5.2 90 90 0 0 0-27.4.8 5.4 5.4 0 0 0-1.4.4 3.6 3.6 0 0 0-2.3 3.8 3.8 3.8 0 0 0 3.6 3.3 4 4 0 0 0 1.5 2.8 6.1 6.1 0 0 0 2.3 1c1 .4 2.1.6 3.2.9a4.2 4.2 0 0 0 2.7 3.5 27 27 0 0 0 6.7 2 3.8 3.8 0 0 0 1.6 2.3 8.3 8.3 0 0 0 2.4 1.1 84.7 84.7 0 0 0 10.2 2.6c2.7.5 5.6.8 8.3-.4a9 9 0 0 0 2-1.4c5.2 1.8 10.7 2.1 15.8 2.1h1.3l.8-1a49.4 49.4 0 0 0 8.8-13 8.9 8.9 0 0 0 2-.5c2.7-1.2 4.4-3.5 5.8-5.9a84.7 84.7 0 0 0 4.9-9.4 8 8 0 0 0 .8-2.5A3.9 3.9 0 0 0 87 39a26.7 26.7 0 0 0 3-6.3 4.2 4.2 0 0 0-.9-4.4l1.5-3a6 6 0 0 0 .7-2.4 4 4 0 0 0-1.1-3 3.8 3.8 0 0 0 0-4.9 3.6 3.6 0 0 0-4.4-.7Z"/><path fill="#ffb6a7" d="M66 39.9a87.8 87.8 0 0 1 20.4-22.7c.6-.4 1.4-.8 1.8-.3s0 1.2-.4 1.7l-4.8 6 3.4-2.5c.5-.3 1-.7 1.6-.5a1.2 1.2 0 0 1 .6 1.2 3.3 3.3 0 0 1-.4 1.3 64.6 64.6 0 0 1-5.7 9.7 12 12 0 0 1 3.2-3.3c.4-.3 1-.6 1.4-.4s.5 1.1.3 1.8c-1 3.3-2.8 6-4.6 8.8a3.3 3.3 0 0 1 1-.5 1 1 0 0 1 1 .4 1.3 1.3 0 0 1 .2.8 5.4 5.4 0 0 1-.5 1.7 80.5 80.5 0 0 1-4.7 9c-1.2 2-2.6 3.9-4.7 4.8a8 8 0 0 1-6.5-.4 23.8 23.8 0 0 1-5.4-4c0 .2-.5 0-.5 0a21 21 0 0 1 0-9.2 5.2 5.2 0 0 1 .8-2.3c.6-.6 1.8-1.4 2.6-1.1Z"/><path fill="#ffe6ca" d="M79.6 42a1.3 1.3 0 0 0-.3-1.4.8.8 0 0 0-.9 0c1.3-1.5 4-5.1 3.4-5.8-.6-.8-4.5 2.5-6.2 4.1a28.4 28.4 0 0 1 6.6-12.8 27.4 27.4 0 0 0-8.8 9 57.7 57.7 0 0 1 3-6.7 86.2 86.2 0 0 0-8.2 10.9 5.8 5.8 0 0 1 2.8.5 7.9 7.9 0 0 1 4.2 5 14 14 0 0 1 0 6.6 19.4 19.4 0 0 1 3.6-8.2 4.4 4.4 0 0 0 .8-1.2Z"/><path fill="#ffb6a7" d="M37.7 52.6a87.8 87.8 0 0 0-30.4.2c-.7 0-1.5.4-1.4 1s.9.9 1.5 1l7.7.3-4.1.9c-.6.1-1.2.3-1.4.9A1.2 1.2 0 0 0 10 58a3.4 3.4 0 0 0 1.3.6 63.3 63.3 0 0 0 11 2.1 11.8 11.8 0 0 0-4.6.2c-.5.1-1 .3-1.2.8s.5 1.2 1.1 1.4c3.2 1.5 6.3 1.9 9.7 2.4a3.3 3.3 0 0 0-1 .5 1 1 0 0 0-.5 1 1.3 1.3 0 0 0 .6.7 5.9 5.9 0 0 0 1.6.7 80 80 0 0 0 9.8 2.5c2.3.4 4.7.7 6.7-.3a8 8 0 0 0 4-5 24 24 0 0 0 .7-6.7l.3-.5a21.4 21.4 0 0 0-6.9-6.2 5.4 5.4 0 0 0-2.3-.8 3 3 0 0 0-2.6 1.1Z"/><path fill="#ffe6ca" d="M30.4 64.1a1.3 1.3 0 0 1-.8-1.1.8.8 0 0 1 .5-.7c-2 0-6.5-.3-6.6-1.3-.2-1 5-1.7 7.2-1.9a28.3 28.3 0 0 0-14-3.6 27.7 27.7 0 0 1 12.6-.6 58.6 58.6 0 0 0-7-2.2 85.8 85.8 0 0 1 13.6 1 5.7 5.7 0 0 0-1.5 2.5 7.9 7.9 0 0 0 1 6.4 14 14 0 0 0 5 4.5 19.3 19.3 0 0 0-8.6-2.7 4.2 4.2 0 0 1-1.4-.3Z"/><path fill="#f73b47" d="M63.4 71.2c-8.7 0-17.2-1.1-23.4-7a13.3 13.3 0 0 1-4.5-8.9 9.8 9.8 0 0 1 5.1-8.8c3.2-1.7 9-1.8 11.9.4.3-3.6 4.2-7.9 7.6-9.2a9.8 9.8 0 0 1 10 2c2.4 2.4 3.5 5.9 3.6 9.2.3 8.7-4.5 15.8-10.3 22.3Z"/><g fill="#981d36"><path d="M73 51.7c.4-4.8-1.4-9.9-5.3-12.7v-.2a8.8 8.8 0 0 1 2 1.4c2 2 3.3 5.1 3.4 8.8a21.8 21.8 0 0 1 0 2.7ZM40.4 63.8a12.7 12.7 0 0 1-4.4-8.5A9.2 9.2 0 0 1 41 47l.4-.2a10 10 0 0 1 2-.6 7.7 7.7 0 0 1 2.4.4c-1.2 5 4.2 8.1 7.3 10.8 2.6 2.2 5.4 4.9 5.4 8.2A3.6 3.6 0 0 0 59 68c.8 1 2.4.4 3.4-.2a23.1 23.1 0 0 0 10.5-14 37 37 0 0 1-9.6 17c-7.8 0-16.6-1-22.8-7Z"/></g><path fill="#ff9786" d="M62.5 45.4a17 17 0 0 0-3.7-1l-.4 1.2a2 2 0 0 0 0 .3 26 26 0 0 1 7 1.5l.2-.5a20.7 20.7 0 0 0-3-1.5ZM63 44.1a24 24 0 0 1 3 1.5 28.6 28.6 0 0 1 1.8-3.9 18.7 18.7 0 0 0-7.4-1.3 38 38 0 0 0-1.2 2.6 20 20 0 0 1 3.8 1.1ZM68.2 46a1.4 1.4 0 1 0 .7-2 1.4 1.4 0 0 0-.8 2Z"/><path fill="#f73b47" d="M37.9 57.5a3.2 3.2 0 0 1-.4-.7 7.1 7.1 0 0 1 5.4-9.1 11.8 11.8 0 0 0-2.3 2 3.7 3.7 0 0 0-.6 2.8 12.5 12.5 0 0 0 1.3 2.5 3.4 3.4 0 0 1 .3 2.5c-.7 2.2-2.8 1.4-3.7 0Z"/></g></svg>