<svg xmlns="http://www.w3.org/2000/svg" width="100%" viewBox="0 0 100 100"><g data-name="Слой 2"><path fill="none" d="M0 0h100v100H0z"/><path fill="#fff" d="m34.4 75 1-.5c4-1.8 8.3-4 11.6-7.4 2.3 1.2 4.7 2.4 7 3.4l1 .5 1-.5C66 66 76.8 60 81.5 48.2c2.2-5.3 2.4-10.6.7-14.8a15.3 15.3 0 0 0-13-9.4h-.8a21.2 21.2 0 0 0-13.3 5.4A21.1 21.1 0 0 0 41.7 24H41a15.3 15.3 0 0 0-13 9.4 18.3 18.3 0 0 0-.6 11 10.7 10.7 0 0 0-1-.1h-.6a10.3 10.3 0 0 0-8.8 6.3 13 13 0 0 0 .4 9.8c3 7.4 9.8 11.3 16 14.1Z"/><path fill="#f73b47" d="M55 68.3c-10.3-4.7-19.9-10.6-24.1-21a17.4 17.4 0 0 1-.7-13 12.8 12.8 0 0 1 11-7.8c4.6-.3 11.6 2.7 13.8 6.9 2.3-4.2 9.3-7.2 14-6.9a12.8 12.8 0 0 1 11 7.8c1.6 4.1 1 8.9-.7 13C75 57.6 65.4 63.5 55 68.3Z"/><g fill="#981d36"><path d="M77 50.1c3-5.6 3.6-12.6.4-18l.2-.3a11.6 11.6 0 0 1 1.6 2.8c1.4 3.5 1.1 7.9-.7 12.4A28 28 0 0 1 77 50ZM31.5 47c-1.8-4.5-2-8.9-.6-12.4a12 12 0 0 1 10.3-7.4h.5a13.6 13.6 0 0 1 2.8.3 10 10 0 0 1 2.6 1.9c-4 5.2.7 12 3 16.8 1.8 4 3.7 8.6 2 12.7-.4 1-1 2-.8 3 .5 1.6 2.7 1.7 4.3 1.5a30.2 30.2 0 0 0 20-11.1c-4.9 7.2-13 11.7-20.5 15.2-9.3-4.2-19.3-10-23.6-20.5Z"/></g><path fill="#ff9786" d="M67.8 37a22.4 22.4 0 0 0-3.9-3.3L63 35l-.2.3a34.2 34.2 0 0 1 7.5 5.7l.5-.5a26.3 26.3 0 0 0-2.9-3.5ZM69.1 35.7a30.5 30.5 0 0 1 2.8 3.4 37 37 0 0 1 4.2-3.7 24.3 24.3 0 0 0-8-5.5c-1 .8-2 1.6-2.8 2.5a25.4 25.4 0 0 1 3.8 3.3ZM74.2 40.7a1.9 1.9 0 1 0 1.9-1.9 1.9 1.9 0 0 0-2 2Z"/><path fill="#f73b47" d="M32 38.2a4.6 4.6 0 0 1-.1-1 9.4 9.4 0 0 1 3.4-6.2 9.5 9.5 0 0 1 7.8-1.8 15.1 15.1 0 0 0-3.7 1.2 4.8 4.8 0 0 0-2.3 3 15.9 15.9 0 0 0 .2 3.6 4.5 4.5 0 0 1-1 3.1c-2 2.4-4 .3-4.4-2ZM34.4 72.3c-6.3-2.9-12.2-6.5-14.7-12.8a10.6 10.6 0 0 1-.4-8 7.8 7.8 0 0 1 6.6-4.7c2.9-.1 7.1 1.7 8.5 4.2 1.4-2.5 5.6-4.3 8.5-4.2a7.8 7.8 0 0 1 6.6 4.8 10.6 10.6 0 0 1-.4 7.9c-2.6 6.3-8.4 10-14.7 12.8Z"/><g fill="#981d36"><path d="M47.8 61.2a11.5 11.5 0 0 0 .2-11l.1-.1a7.5 7.5 0 0 1 1 1.7 10.2 10.2 0 0 1-.4 7.5 16.4 16.4 0 0 1-1 2ZM20 59.3a10.2 10.2 0 0 1-.3-7.6 7.3 7.3 0 0 1 6.2-4.5h.4a8.4 8.4 0 0 1 1.6.2 6 6 0 0 1 1.6 1.2c-2.5 3.1.5 7.2 1.9 10.2 1 2.5 2.2 5.3 1.2 7.8a2.8 2.8 0 0 0-.4 1.8c.2 1 1.6 1 2.6.9A18.4 18.4 0 0 0 47 62.5c-3 4.5-8 7.2-12.6 9.3-5.7-2.6-11.8-6-14.3-12.5Z"/></g><path fill="#ff9786" d="M42.2 53.2a13.5 13.5 0 0 0-2.4-2l-.7.8a1.4 1.4 0 0 0 0 .2 20.8 20.8 0 0 1 4.6 3.4l.3-.3a16 16 0 0 0-1.8-2ZM43 52.4a18.9 18.9 0 0 1 1.7 2 22.4 22.4 0 0 1 2.5-2.1 14.8 14.8 0 0 0-4.9-3.4l-1.7 1.5a15 15 0 0 1 2.4 2ZM46 55.5a1.2 1.2 0 1 0 1.2-1.2 1.2 1.2 0 0 0-1.2 1.2Z"/><path fill="#f73b47" d="M20.3 54a2.3 2.3 0 0 1 0-.7 5.7 5.7 0 0 1 2-3.8 5.8 5.8 0 0 1 4.9-1 9.4 9.4 0 0 0-2.3.7 3 3 0 0 0-1.4 1.8 9 9 0 0 0 0 2.2A2.7 2.7 0 0 1 23 55c-1.2 1.4-2.5.2-2.7-1.2Z"/></g></svg>