<svg xmlns="http://www.w3.org/2000/svg" width="100%" viewBox="0 0 100 100"><g data-name="Слой 2"><path fill="none" d="M0 0h100v100H0z"/><path fill="#fff" d="m69.6 80.8 2.6 1.3 1.4-2.6a145.6 145.6 0 0 0 12.7-39l.4-2.2-2-1A216.1 216.1 0 0 0 22 18.7l-2.8-.3L10 62.8l3 .5c.4 0 33.7 6.4 56.6 17.5Z"/><path fill="#ffb6a7" d="m21.6 21.7-8 38.6s33.8 6.4 57.3 17.8A144 144 0 0 0 83.4 40a215.4 215.4 0 0 0-61.8-18.3Z"/><path fill="#ffe6ca" d="M81.7 44.2q-6.5 2.1-13 4.5a34.7 34.7 0 0 0-7.7 3.6c-1.8 1.3-3.4 2.8-5.2 4-3.6 2-7.9 2.3-12 2.5A140.6 140.6 0 0 0 53.2 70a165.3 165.3 0 0 1 17.3 7 147.1 147.1 0 0 0 11.2-32.8ZM83.4 40a215.4 215.4 0 0 0-61.8-18.3l24.7 35Z"/><path fill="#ffb6a7" d="M58 43.7c-2.1-3.6-6.5-1.5-9.8.6-.6-3.1-3.1-6-5-8.4a6.7 6.7 0 0 1-.8-6.6 6.5 6.5 0 0 1 1.8-2.3 197.8 197.8 0 0 0-20.8-4.1L30.6 33l11.2 14.3a5.2 5.2 0 0 0 2.2 2 5.3 5.3 0 0 0 2.7 0A26 26 0 0 0 58 43.7Z"/><path fill="#f73b47" d="M44.3 60.6s-5.7-10-6.4-14.9c-.2-1.8-.3-4 .9-5.3 1.4-1.7 4.2-1.4 5.8.1s2.6 3.8 3.2 6a23.3 23.3 0 0 1 4.6-3 7 7 0 0 1 5.1-.6 5 5 0 0 1 3.5 4c.2 2.3-1.2 4.3-2.7 5.8-4 4.2-14 8-14 8Z"/><path fill="#981d36" d="M52.7 55.7a23 23 0 0 1-7 .6 5.7 5.7 0 0 0 1-5.5c-.5-1.3-1.4-2.3-2-3.6a6 6 0 0 1 .3-5 6.8 6.8 0 0 0-1-1 4 4 0 0 0-2.6-1 2.5 2.5 0 0 0-2 .8c-.8 1-1 2.4-.7 4.6.5 4 4.6 11.7 5.9 14a71.3 71.3 0 0 0 8.1-3.9Z"/><path fill="#ffe6ca" d="M21.8 35.8a114 114 0 0 0 15.8 27.8C34 62.2 16.9 58 16.9 58s5.3-21.4 5-22.2Z"/><path fill="#ff9786" d="M57.9 48.6a16.4 16.4 0 0 1 2.2-1.3 2 2 0 0 0 0-.3 4.2 4.2 0 0 0-2.8-3.3 4.8 4.8 0 0 0-1.6-.2 7.1 7.1 0 0 0-2.6.5 9.9 9.9 0 0 1 4.8 4.6ZM55.7 50.2l1.2-1a8.3 8.3 0 0 0-5.3-4.4l-.7.5a7.3 7.3 0 0 1 4.8 4.9ZM58.4 50.9a.7.7 0 1 1-.7-.7.7.7 0 0 1 .7.7Z"/><path fill="#f73b47" d="M41.9 42.2a.8.8 0 0 1-.8.7.8.8 0 0 1 0-1.5.8.8 0 0 1 .8.8Z"/></g></svg>